<?xml version="1.0" encoding="UTF-8" standalone="no"?>
<!-- Created with Inkscape (http://www.inkscape.org/) -->

<svg
   width="40.011768"
   height="50.003822"
   viewBox="0 0 10.586447 13.230177"
   version="1.1"
   id="svg5"
   xml:space="preserve"
   inkscape:version="1.2.2 (b0a8486541, 2022-12-01)"
   sodipodi:docname="tilemap-select.svg"
   inkscape:export-filename="pokus-tile.png"
   inkscape:export-xdpi="96"
   inkscape:export-ydpi="96"
   xmlns:inkscape="http://www.inkscape.org/namespaces/inkscape"
   xmlns:sodipodi="http://sodipodi.sourceforge.net/DTD/sodipodi-0.dtd"
   xmlns:xlink="http://www.w3.org/1999/xlink"
   xmlns="http://www.w3.org/2000/svg"
   xmlns:svg="http://www.w3.org/2000/svg"><sodipodi:namedview
     id="namedview7"
     pagecolor="#ffffff"
     bordercolor="#000000"
     borderopacity="0.25"
     inkscape:showpageshadow="2"
     inkscape:pageopacity="0.0"
     inkscape:pagecheckerboard="0"
     inkscape:deskcolor="#d1d1d1"
     inkscape:document-units="px"
     showgrid="false"
     showguides="true"
     inkscape:zoom="5.6568544"
     inkscape:cx="72.831997"
     inkscape:cy="353.02305"
     inkscape:window-width="2560"
     inkscape:window-height="1011"
     inkscape:window-x="0"
     inkscape:window-y="0"
     inkscape:window-maximized="1"
     inkscape:current-layer="layer1"><sodipodi:guide
       position="25.929166,50.205694"
       orientation="-1,0"
       id="guide26882"
       inkscape:locked="false"
       inkscape:label=""
       inkscape:color="rgb(0,134,229)" /><sodipodi:guide
       position="36.512499,47.984526"
       orientation="-1,0"
       id="guide26884"
       inkscape:locked="false"
       inkscape:label=""
       inkscape:color="rgb(0,134,229)" /><sodipodi:guide
       position="47.095831,48.311931"
       orientation="-1,0"
       id="guide26886"
       inkscape:locked="false"
       inkscape:label=""
       inkscape:color="rgb(0,134,229)" /><sodipodi:guide
       position="57.679164,47.984526"
       orientation="-1,0"
       id="guide26888"
       inkscape:locked="false"
       inkscape:label=""
       inkscape:color="rgb(0,134,229)" /><sodipodi:guide
       position="12.964583,49.200602"
       orientation="-1,0"
       id="guide26892"
       inkscape:locked="false"
       inkscape:label=""
       inkscape:color="rgb(0,134,229)" /><sodipodi:guide
       position="23.547916,49.528007"
       orientation="-1,0"
       id="guide26894"
       inkscape:locked="false"
       inkscape:label=""
       inkscape:color="rgb(0,134,229)" /><sodipodi:guide
       position="34.131249,45.552373"
       orientation="-1,0"
       id="guide26896"
       inkscape:locked="false"
       inkscape:label=""
       inkscape:color="rgb(0,134,229)" /><sodipodi:guide
       position="44.714582,48.873197"
       orientation="-1,0"
       id="guide26898"
       inkscape:locked="false"
       inkscape:label=""
       inkscape:color="rgb(0,134,229)" /><sodipodi:guide
       position="55.297914,48.452247"
       orientation="-1,0"
       id="guide26900"
       inkscape:locked="false"
       inkscape:label=""
       inkscape:color="rgb(0,134,229)" /><sodipodi:guide
       position="17.727083,47.049082"
       orientation="-1,0"
       id="guide26902"
       inkscape:locked="false"
       inkscape:label=""
       inkscape:color="rgb(0,134,229)" /><sodipodi:guide
       position="28.310416,46.581361"
       orientation="-1,0"
       id="guide26904"
       inkscape:locked="false"
       inkscape:label=""
       inkscape:color="rgb(0,134,229)" /><sodipodi:guide
       position="38.90783,37.914197"
       orientation="-1,0"
       id="guide26906"
       inkscape:locked="false"
       inkscape:label=""
       inkscape:color="rgb(0,134,229)" /><sodipodi:guide
       position="49.477081,47.189399"
       orientation="-1,0"
       id="guide26908"
       inkscape:locked="false"
       inkscape:label=""
       inkscape:color="rgb(0,134,229)" /><sodipodi:guide
       position="60.060414,49.528007"
       orientation="-1,0"
       id="guide26910"
       inkscape:locked="false"
       inkscape:label=""
       inkscape:color="rgb(0,134,229)" /><sodipodi:guide
       position="4.7624998,47.00231"
       orientation="-1,0"
       id="guide26912"
       inkscape:locked="false"
       inkscape:label=""
       inkscape:color="rgb(0,134,229)" /><sodipodi:guide
       position="9.6350661,46.832257"
       orientation="0,1"
       id="guide26914"
       inkscape:locked="false"
       inkscape:label=""
       inkscape:color="rgb(0,134,229)" /><sodipodi:guide
       position="7.8564448,49.874965"
       orientation="0,1"
       id="guide26916"
       inkscape:locked="false"
       inkscape:label=""
       inkscape:color="rgb(0,134,229)" /><sodipodi:guide
       position="7.4367743,43.789549"
       orientation="0,1"
       id="guide27644"
       inkscape:locked="false"
       inkscape:label=""
       inkscape:color="rgb(0,134,229)" /><sodipodi:guide
       position="2.3812499,51.85934"
       orientation="-1,0"
       id="guide28435"
       inkscape:locked="false"
       inkscape:label=""
       inkscape:color="rgb(0,134,229)" /><sodipodi:guide
       position="7.1437497,50.801007"
       orientation="-1,0"
       id="guide28437"
       inkscape:locked="false"
       inkscape:label=""
       inkscape:color="rgb(0,134,229)" /><sodipodi:guide
       position="-2.3386083,33.603091"
       orientation="0,1"
       id="guide28619"
       inkscape:locked="false"
       inkscape:label=""
       inkscape:color="rgb(0,134,229)" /><sodipodi:guide
       position="-1.2147974,36.645799"
       orientation="0,1"
       id="guide28621"
       inkscape:locked="false"
       inkscape:label=""
       inkscape:color="rgb(0,134,229)" /><sodipodi:guide
       position="-2.4321526,30.560383"
       orientation="0,1"
       id="guide28623"
       inkscape:locked="false"
       inkscape:label=""
       inkscape:color="rgb(0,134,229)" /><sodipodi:guide
       position="-1.4951929,20.370695"
       orientation="0,-1"
       id="guide30297"
       inkscape:locked="false" /><sodipodi:guide
       position="-5.0074536,7.1397282"
       orientation="0,-1"
       id="guide31859"
       inkscape:locked="false" /><sodipodi:guide
       position="40.565718,73.293018"
       orientation="0,-1"
       id="guide33317"
       inkscape:locked="false" /><sodipodi:guide
       position="1.5792457,76.359609"
       orientation="0,1"
       id="guide36845"
       inkscape:locked="false"
       inkscape:label=""
       inkscape:color="rgb(0,134,229)" /><sodipodi:guide
       position="49.578496,89.518208"
       orientation="0,-1"
       id="guide36847"
       inkscape:locked="false" /></sodipodi:namedview><defs
     id="defs2"><linearGradient
       inkscape:collect="always"
       id="linearGradient5767"><stop
         style="stop-color:#ff9999;stop-opacity:1;"
         offset="0"
         id="stop5763" /><stop
         style="stop-color:#ffcbcb;stop-opacity:1;"
         offset="1"
         id="stop5765" /></linearGradient><linearGradient
       inkscape:collect="always"
       id="linearGradient5759"><stop
         style="stop-color:#ff3333;stop-opacity:1;"
         offset="0"
         id="stop5755" /><stop
         style="stop-color:#cc0000;stop-opacity:1;"
         offset="1"
         id="stop5757" /></linearGradient><linearGradient
       inkscape:collect="always"
       xlink:href="#linearGradient5759"
       id="linearGradient8929"
       gradientUnits="userSpaceOnUse"
       gradientTransform="translate(-3.2026017,77.922147)"
       x1="12.900038"
       y1="13.800077"
       x2="12.94384"
       y2="13.756275" /><linearGradient
       inkscape:collect="always"
       xlink:href="#linearGradient5767"
       id="linearGradient8931"
       gradientUnits="userSpaceOnUse"
       gradientTransform="translate(-3.2026017,77.922147)"
       x1="12.435538"
       y1="13.368127"
       x2="3.4919937"
       y2="1.6133311" /></defs><g
     inkscape:label="tilemap"
     inkscape:groupmode="layer"
     id="layer1"
     transform="translate(0,-79.374995)"><g
       id="g2371"
       inkscape:label="flowerO"><g
         id="g44868"><path
           style="fill:url(#linearGradient8929);fill-opacity:1;stroke:#000000;stroke-width:0.264583;stroke-linecap:round;stroke-linejoin:bevel;stroke-dasharray:none;stroke-opacity:1;paint-order:stroke fill markers"
           d="m 9.2024236,79.705791 1.0029414,1.000246 c 0.151069,0.151069 0.24879,0.326524 0.24879,0.479573 l -4.96e-4,10.61911 c 0,0.277758 -0.19657,0.668161 -0.6958304,0.668161 l -7.9493392,-0.0015 c -0.2383801,0 -0.3756391,-0.154451 -0.5014051,-0.280218 L 0.26485726,91.153417 Z"
           id="path2981-17"
           sodipodi:nodetypes="ccccccccc" /><rect
           style="fill:url(#linearGradient8931);fill-opacity:1;stroke:#000000;stroke-width:0.264583;stroke-linecap:round;stroke-linejoin:round;stroke-dasharray:none;stroke-opacity:1;paint-order:stroke fill markers"
           id="rect2763-85"
           width="9.260416"
           height="11.90625"
           x="0.1322915"
           y="79.507286"
           ry="0.66145831" /><path
           style="fill:#648700;fill-opacity:1;stroke:#1d3400;stroke-width:0.132292;stroke-dasharray:none;stroke-opacity:1"
           d="m 4.2022596,89.470713 c -0.377908,-0.16538 -0.7360628,-0.632594 -0.8336934,-1.08755 -0.023004,-0.107213 -0.025066,-0.268479 -0.00443,-0.346893 0.034908,-0.132658 0.1129767,-0.233201 0.2243237,-0.288908 0.03363,-0.01681 0.06537,-0.03058 0.070527,-0.03058 0.00524,0 0.019849,0.04926 0.033064,0.111402 0.1030993,0.484914 0.3285146,1.283804 0.3548158,1.2575 0.00227,-0.0023 -0.014699,-0.07303 -0.037722,-0.157248 -0.091438,-0.334478 -0.1719606,-0.7539 -0.2017243,-1.050715 -0.01024,-0.102147 -0.011349,-0.191991 -0.00243,-0.197465 0.013225,-0.008 0.1632185,0.03651 0.2221279,0.06607 0.081297,0.04079 0.1305772,0.07781 0.1895837,0.142366 0.097269,0.106425 0.1655671,0.250904 0.2057721,0.435291 0.016802,0.07705 0.018857,0.110141 0.01895,0.305023 1.266e-4,0.238497 -0.00966,0.321657 -0.062833,0.533896 -0.024067,0.09608 -0.096615,0.318365 -0.1075546,0.329545 -0.00314,0.0033 -0.034096,-0.0066 -0.068779,-0.02175 z m -1.577327,-0.262701 c -0.1471748,-0.332788 -0.012272,-0.894533 0.2452877,-1.021324 0.044311,-0.02182 0.064707,-0.02681 0.1109254,-0.02707 0.048121,-3.35e-4 0.1196916,0.01397 0.1196916,0.02386 0,0.0017 -0.032606,0.06283 -0.072459,0.135973 -0.1452206,0.266518 -0.3146627,0.618048 -0.314123,0.65169 9.52e-5,0.0061 0.035399,-0.05712 0.078446,-0.140355 0.1231229,-0.238061 0.2764452,-0.485479 0.3573203,-0.576617 l 0.032375,-0.03648 0.030982,0.04666 c 0.1259709,0.189728 0.085851,0.419946 -0.1138547,0.653314 -0.068022,0.07948 -0.1828637,0.177967 -0.2887574,0.24762 -0.069985,0.04604 -0.1482078,0.0901 -0.1599313,0.0901 -0.00274,0 -0.014372,-0.02132 -0.025905,-0.04739 z M 6.4302321,88.96323 C 6.3542801,88.91918 6.2023089,88.766293 6.1406609,88.671914 6.0056266,88.46518 5.9368969,88.24819 5.9446551,88.053084 c 0.00594,-0.149151 0.04603,-0.23695 0.1360132,-0.297817 0.039796,-0.0269 0.109743,-0.0542 0.1179387,-0.04601 0.00197,0.002 0.013365,0.08299 0.025327,0.180012 0.041925,0.340233 0.1083929,0.723131 0.1356437,0.781389 l 0.011991,0.02563 -0.00459,-0.02384 c -0.048682,-0.252958 -0.092938,-0.797261 -0.075899,-0.93347 l 0.00616,-0.04926 0.026607,0.0051 c 0.058539,0.01126 0.1508764,0.06574 0.2076649,0.122527 0.1799897,0.179989 0.2083788,0.537093 0.073549,0.925149 -0.026821,0.0772 -0.1068224,0.252234 -0.1152835,0.252234 -0.00283,0 -0.029645,-0.01417 -0.059546,-0.03152 z M 7.51073,88.9395 C 7.3622571,88.919522 7.2471752,88.886196 7.1346742,88.830586 7.0258508,88.776794 6.9514164,88.723493 6.878282,88.646994 6.7573563,88.52051 6.7253087,88.406806 6.7767255,88.286685 c 0.00933,-0.02182 0.021747,-0.04364 0.027576,-0.04846 0.00792,-0.0066 0.037956,0.01597 0.11889,0.08925 0.2122628,0.192161 0.4966759,0.425865 0.5525691,0.454047 0.032553,0.0164 0.025931,0.0094 -0.049107,-0.05158 -0.209653,-0.17054 -0.5507106,-0.519243 -0.5507106,-0.563052 0,-0.0064 0.021754,-0.02019 0.048345,-0.03062 0.065938,-0.0258 0.2017263,-0.0277 0.2745743,-0.0038 0.1597212,0.05235 0.3288427,0.231442 0.4413992,0.467405 0.039419,0.08264 0.093314,0.231239 0.105682,0.291388 0.00522,0.0254 0.00387,0.02724 -0.026571,0.03568 -0.035488,0.0098 -0.1691421,0.01792 -0.2086425,0.0126 z m -5.2427986,-0.774127 -0.02996,-0.0038 0.00722,-0.06044 c 0.03832,-0.320844 0.3592119,-0.70987 0.6748797,-0.818173 0.053227,-0.01825 0.083172,-0.02317 0.1434969,-0.02357 0.069412,-3.35e-4 0.081171,0.002 0.1313517,0.02667 0.032275,0.01587 0.070119,0.04342 0.09132,0.06641 0.04319,0.04685 0.057056,0.03212 -0.130749,0.138793 -0.3070262,0.174368 -0.6264223,0.37671 -0.668422,0.423456 l -0.021019,0.0234 0.037834,-0.02544 c 0.2107115,-0.141593 0.7264376,-0.40151 0.8470871,-0.426922 l 0.027326,-0.0057 v 0.07877 c 0,0.04361 -0.00574,0.100841 -0.012878,0.128203 -0.073644,0.282744 -0.4329904,0.469885 -0.9203914,0.47932 -0.080926,0.0017 -0.1606187,0.0013 -0.1770983,-9.86e-4 z m 4.9106913,-0.116792 c -0.3036384,-0.048 -0.4989898,-0.191228 -0.5428046,-0.397951 -0.011888,-0.05609 -0.015948,-0.128988 -0.00764,-0.137297 0.00247,-0.0023 0.022322,-9.86e-4 0.044139,0.003 0.2226628,0.04242 0.7402163,0.119857 1.0023653,0.14997 0.1854916,0.02132 0.3699433,0.03092 0.3699433,0.01928 0,-0.0046 -0.027429,-0.01103 -0.060956,-0.01407 -0.1807324,-0.0165 -0.5554885,-0.08146 -0.8092492,-0.140262 -0.2491531,-0.05774 -0.5075653,-0.137012 -0.521839,-0.16011 -0.00817,-0.01324 0.067387,-0.11083 0.1333351,-0.172262 0.071307,-0.06642 0.1647236,-0.119515 0.2581817,-0.146738 0.098602,-0.0287 0.2936221,-0.03262 0.4201192,-0.0084 0.3187276,0.06097 0.6733557,0.252896 0.9735717,0.52688 0.080355,0.07333 0.080984,0.0649 -0.010936,0.146207 -0.1870605,0.16548 -0.4940761,0.292055 -0.8051568,0.331954 -0.1205561,0.01547 -0.3446591,0.01537 -0.4430809,-1.75e-4 z M 1.3015679,86.09751 c -0.016193,-0.002 -0.067263,-0.0075 -0.113506,-0.01257 -0.1546515,-0.01672 -0.34710467,-0.06121 -0.51497775,-0.119115 -0.0610185,-0.02106 -0.0777715,-0.03021 -0.0777715,-0.04264 0,-0.0235 0.0597825,-0.146715 0.10537283,-0.217205 0.21148174,-0.326956 0.62607672,-0.609296 1.01706892,-0.692624 0.093601,-0.01995 0.2598547,-0.02019 0.3321074,-6.68e-4 0.128149,0.03497 0.2254135,0.109245 0.2806103,0.214283 0.016765,0.03192 0.030436,0.06313 0.030386,0.06939 -6.42e-5,0.0079 -0.074971,0.02981 -0.2459281,0.07191 -0.5492196,0.13521 -1.0733978,0.292593 -1.11582441,0.335019 -0.011126,0.01114 -0.007622,0.0111 0.0293037,-3.34e-4 0.3657238,-0.112727 0.8342523,-0.213395 1.1727899,-0.251973 0.1330019,-0.01513 0.1902867,-0.01634 0.1978383,-0.0041 0.003,0.0048 -8.689e-4,0.03698 -0.00847,0.07138 -0.034649,0.155741 -0.11487,0.285681 -0.2338448,0.37877 -0.1109096,0.08678 -0.2809143,0.15621 -0.4515892,0.184428 -0.076606,0.01266 -0.3422951,0.0231 -0.4035735,0.01584 z M 7.6606764,85.392189 C 7.4287509,85.350109 7.2907768,85.234065 7.274462,85.067367 c -0.00335,-0.03431 -0.0022,-0.05762 0.00304,-0.06085 0.00467,-0.003 0.083639,0.0099 0.1755066,0.02844 0.2096386,0.04227 0.5932981,0.10577 0.7081217,0.11719 0.1051349,0.01047 0.1021046,0.01043 0.1021046,0.0013 0,-0.004 -0.023646,-0.01001 -0.052548,-0.01324 -0.2556631,-0.02881 -0.9143482,-0.201603 -0.9143482,-0.239847 0,-0.0132 0.049749,-0.07371 0.091422,-0.111177 0.1263771,-0.113627 0.3251145,-0.145669 0.5391616,-0.08693 0.098393,0.027 0.2607675,0.104366 0.3687195,0.175687 0.08351,0.05517 0.2161872,0.163098 0.2731527,0.222195 l 0.032305,0.03351 -0.051173,0.04259 c -0.1320143,0.109862 -0.3122575,0.185028 -0.5163718,0.215338 -0.1047272,0.01554 -0.2887954,0.01584 -0.3728727,6.68e-4 z M 2.3825399,85.004997 c -0.2215451,-0.0608 -0.3882798,-0.29332 -0.4579985,-0.638722 -0.028954,-0.143437 -0.043045,-0.358726 -0.02903,-0.44351 0.00505,-0.03058 0.00629,-0.03152 0.040345,-0.03152 0.048386,0 0.1633103,0.03019 0.2430455,0.06379 0.2371426,0.100013 0.4691305,0.310905 0.5726275,0.520549 0.092642,0.18766 0.083875,0.333737 -0.026667,0.444385 -0.037341,0.03738 -0.040986,0.03916 -0.051084,0.02494 -0.00599,-0.0084 -0.06035,-0.09854 -0.120818,-0.200276 C 2.4338757,84.544277 2.4312986,84.540157 2.3003725,84.341053 2.2052605,84.196414 2.1437056,84.11409 2.1362462,84.121549 c -0.00254,0.0027 0.00472,0.01705 0.016194,0.03222 0.029421,0.03891 0.1528276,0.243984 0.2198632,0.365375 0.1133151,0.205192 0.2319862,0.470741 0.2194414,0.491042 -0.00718,0.01164 -0.1618876,0.0078 -0.209198,-0.0052 z M 1.4472102,84.932977 C 1.238708,84.898177 0.97273932,84.69354 0.79408775,84.430496 c -0.0168346,-0.0248 -0.0306176,-0.04791 -0.0306176,-0.05138 0,-0.0093 0.0933156,-0.05736 0.14902484,-0.0767 0.087282,-0.03029 0.16427201,-0.04288 0.28818121,-0.04713 0.3044244,-0.01043 0.5683231,0.0933 0.6604134,0.259552 0.022156,0.03999 0.024823,0.05266 0.024823,0.117955 0,0.04023 -0.00391,0.07705 -0.00868,0.08183 -0.00597,0.006 -0.049254,-0.0086 -0.1387294,-0.04677 -0.2410029,-0.102774 -0.5775635,-0.228975 -0.6681423,-0.250531 -0.048413,-0.01153 -0.00838,0.009 0.088283,0.04537 0.2495625,0.09377 0.6810325,0.312145 0.6810325,0.344681 0,0.01364 -0.085086,0.07706 -0.1303206,0.09715 -0.080603,0.03579 -0.16393,0.04484 -0.2621367,0.02844 z m 6.792418,-0.20157 c -0.2072556,-0.0269 -0.3285649,-0.123849 -0.3441679,-0.275028 -0.0047,-0.04562 -0.00448,-0.04626 0.015447,-0.04137 0.087854,0.02159 0.6489934,0.0736 0.7784164,0.07217 l 0.090992,-9.86e-4 -0.1387272,-0.01477 c -0.1782352,-0.01902 -0.3021181,-0.03742 -0.4540222,-0.0675 -0.1272588,-0.02521 -0.2680744,-0.06296 -0.2804839,-0.07519 -0.010378,-0.01023 0.036463,-0.07476 0.089246,-0.122976 0.1698223,-0.155089 0.45632,-0.143435 0.7755802,0.03156 0.111894,0.06132 0.2816625,0.186502 0.2816625,0.207679 0,0.01527 -0.110047,0.110215 -0.1668595,0.143964 -0.1262215,0.07499 -0.282034,0.125475 -0.4402734,0.14266 -0.091266,0.0099 -0.1295149,0.0099 -0.2068027,-1.57e-4 z M 7.3257594,84.566551 c -0.031955,-0.0072 -0.09669,-0.02927 -0.09669,-0.03302 0,-0.002 0.03413,-0.06704 0.075845,-0.144358 0.1732673,-0.321174 0.4129232,-0.809521 0.491922,-1.002387 0.060231,-0.147049 0.055829,-0.173416 -0.00701,-0.04204 -0.200768,0.41969 -0.5392903,0.980285 -0.6644905,1.100399 l -0.029608,0.02841 -0.027914,-0.03922 c -0.057415,-0.08067 -0.089511,-0.141107 -0.1130164,-0.212819 -0.022593,-0.06893 -0.024161,-0.08246 -0.02364,-0.204143 5.347e-4,-0.117157 0.00287,-0.137925 0.023576,-0.205577 0.09204,-0.30097 0.3573861,-0.618421 0.721626,-0.86334 0.083535,-0.05616 0.2489273,-0.150215 0.2641693,-0.150215 0.014248,0 0.074727,0.143078 0.09962,0.235642 0.1227186,0.456363 -0.00607,1.080256 -0.2843471,1.377491 -0.060471,0.0646 -0.1759334,0.13489 -0.2493161,0.151795 -0.037357,0.0086 -0.1481709,0.0107 -0.1807187,0.0034 z M 5.0808753,83.273065 c -0.023121,-0.0064 -0.04393,-0.01197 -0.046242,-0.0123 -0.0023,-3.33e-4 -0.011002,-0.0058 -0.019324,-0.0121 -0.014093,-0.0107 -0.010969,-0.01741 0.045834,-0.09853 0.1520188,-0.2171 0.3959651,-0.601269 0.4520975,-0.711962 0.037594,-0.07413 0.01128,-0.04753 -0.051132,0.05171 -0.082729,0.13153 -0.2229507,0.328228 -0.3217127,0.451289 -0.080215,0.09995 -0.2120045,0.243829 -0.2233431,0.243829 -0.012965,0 -0.06747,-0.116993 -0.080749,-0.173312 -0.05869,-0.248915 0.1162309,-0.539353 0.4591317,-0.762349 0.073113,-0.04755 0.2267502,-0.127487 0.3020853,-0.157181 l 0.041896,-0.0165 0.020617,0.06527 c 0.037213,0.117799 0.047011,0.241143 0.030193,0.380087 -0.044828,0.370397 -0.2308304,0.681943 -0.4473732,0.749339 -0.058402,0.01818 -0.103639,0.01895 -0.1619775,0.0027 z M 4.116759,83.227377 C 3.9717089,83.20084 3.8394045,83.131474 3.7242343,83.021567 3.5178878,82.824653 3.353274,82.489284 3.2727407,82.101728 3.2477076,81.981267 3.221682,81.774921 3.2304253,81.766239 c 0.014301,-0.0142 0.2349003,-0.0047 0.3244342,0.01397 0.3095079,0.06451 0.6010633,0.220628 0.8377721,0.44862 0.2862548,0.275712 0.3725345,0.568265 0.2313406,0.784404 -0.017907,0.02741 -0.042161,0.05864 -0.053895,0.0694 l -0.021337,0.01955 -0.065435,-0.08262 c -0.2582087,-0.325986 -0.6431888,-0.769481 -0.7924376,-0.91288 -0.080171,-0.07703 -0.125348,-0.102635 -0.059332,-0.03363 0.098753,0.103225 0.2961091,0.343976 0.4359408,0.531796 0.1844482,0.247744 0.3702033,0.5402 0.3702033,0.58285 0,0.02874 -0.2271575,0.05684 -0.3209197,0.03969 z m 0.7195471,-0.800045 c 0.018629,-0.113933 0.047258,-0.570979 0.045729,-0.730059 -0.0014,-0.146869 -0.00157,-0.1465 -0.028205,0.150862 -0.022192,0.246959 -0.078242,0.565087 -0.1041199,0.590965 -0.011611,0.0116 -0.09199,-0.04369 -0.1389359,-0.09558 -0.1465671,-0.162052 -0.1418811,-0.440793 0.0126,-0.749214 0.067039,-0.133848 0.1810031,-0.30108 0.20518,-0.30108 0.016975,0 0.1093669,0.102298 0.153598,0.170058 0.1276288,0.195505 0.1908425,0.494249 0.1486694,0.702606 -0.034049,0.168221 -0.1229079,0.267491 -0.2544292,0.284242 l -0.04474,0.0056 z"
           id="path32840-1"
           sodipodi:nodetypes="sssscsssssssscsssssssssssscsssssssssssscsscssssssssssssssssssssccssssssscsscssssccsssssssssssssscccsssssssssscsssssccsssssssssssscssssssssssssssssssssssssssssssssscssscssssssssccsssssscssssssssssssssssssssscssssssssssssscsssssssssssssssscs" /><path
           style="opacity:1;fill:#ff9315;fill-opacity:1;stroke:none;stroke-width:0.132292;stroke-linecap:round;stroke-linejoin:round;stroke-dasharray:none;stroke-opacity:1;paint-order:stroke fill markers"
           d="m 2.7968863,83.243609 c 0.367261,0.274687 -0.3366704,1.399379 0.5674328,1.637255 l -0.2989947,0.205452 0.1305189,0.243361 c -0.7539088,0.356971 -1.0981222,0.934272 -1.184811,1.650066 0.4468092,-0.357516 1.2794566,0.619945 1.8424077,-0.09398 l 0.080663,0.226486 0.2341579,-0.02228 c 0.089571,0.96637 0.5654118,1.383742 1.1390438,1.662125 -0.3049526,-0.451707 1.0750356,-0.84235 0.568711,-1.72943 l 0.3644485,0.037 0.029781,-0.177384 C 7.3527038,87.000683 7.8190649,86.72537 8.1496501,86.36329 7.3110681,85.881485 7.731939,85.069884 6.7327138,85.286023 L 6.8688509,84.962636 6.5612006,84.752962 c 0.4899063,-0.89769 0.1985469,-1.409875 -0.029438,-1.953331 -0.1453127,0.365505 -1.4998543,0.350887 -1.4106101,1.094462 L 4.79393,83.663477 4.6750583,83.836313 c -1.1573227,-1.00345 -1.650101,-0.642355 -1.878172,-0.592704 z"
           id="path32932"
           sodipodi:nodetypes="ccccccccccccccccccccc" /><path
           style="fill:#663300;fill-opacity:1;stroke-width:0.00840779"
           d="M 5.2856614,88.831756 C 4.8690811,88.638628 4.5580959,88.343124 4.3421518,87.935213 4.224201,87.712403 4.1289448,87.417821 4.1126962,87.225617 c -0.00297,-0.03537 -0.0077,-0.0656 -0.010484,-0.06715 -0.00277,-0.0017 -0.058017,0.0055 -0.1227585,0.0158 -0.064739,0.01023 -0.1200442,0.01638 -0.122899,0.01364 -0.00283,-0.0027 -0.011872,-0.04757 -0.02005,-0.09959 -0.00817,-0.05202 -0.015377,-0.09458 -0.016019,-0.09458 -7.018e-4,0 -0.035121,0.03342 -0.076639,0.07426 -0.1248879,0.122875 -0.2318403,0.164689 -0.420206,0.164288 -0.1838459,-3.34e-4 -0.3197499,-0.03502 -0.6305839,-0.160671 -0.1996385,-0.0807 -0.3077466,-0.111512 -0.3912927,-0.111512 -0.098649,0 -0.1473118,0.02165 -0.3209041,0.142777 l -0.017847,0.01247 0.00564,-0.105615 c 0.01142,-0.213622 0.037146,-0.354814 0.098294,-0.539482 0.067065,-0.202533 0.1694808,-0.397262 0.2993151,-0.569103 0.1848372,-0.244642 0.4562283,-0.482692 0.676435,-0.593335 0.025036,-0.01257 0.046864,-0.02407 0.048503,-0.02554 0.00156,-0.0013 -0.026303,-0.04493 -0.062098,-0.09658 -0.035792,-0.05165 -0.061447,-0.09634 -0.057009,-0.09931 0.00445,-0.003 0.063523,-0.04495 0.1313011,-0.09327 L 3.226628,84.905244 3.180294,84.886394 C 2.976833,84.803614 2.8534013,84.622029 2.8155359,84.34978 c -0.0126,-0.09063 -0.011176,-0.314428 0.003,-0.467664 0.021584,-0.233398 0.023321,-0.279021 0.013398,-0.351355 -0.018642,-0.135879 -0.054897,-0.19561 -0.1776172,-0.29263 -0.051077,-0.04038 -0.078742,-0.06744 -0.072411,-0.07083 0.013381,-0.0072 0.2212101,-0.05368 0.2936018,-0.06574 0.1431654,-0.02384 0.3441642,-0.02704 0.5153858,-0.0082 0.4205042,0.04619 0.8882741,0.264901 1.1990995,0.560642 l 0.073127,0.06959 0.057532,-0.0796 c 0.03164,-0.04378 0.061313,-0.07974 0.065937,-0.07991 0.00462,-1.6e-4 0.070837,0.0445 0.1471366,0.09925 l 0.1387293,0.09956 0.00614,-0.0514 c 0.026166,-0.218926 0.1417996,-0.367616 0.3816653,-0.490755 0.1082004,-0.05554 0.2380747,-0.09975 0.4495498,-0.153017 0.4202336,-0.105836 0.480936,-0.147818 0.5627189,-0.389196 l 0.02776,-0.08194 0.018519,0.02727 c 0.2034269,0.299665 0.3214141,0.607072 0.3573826,0.931119 0.013643,0.122908 0.011541,0.363279 -0.00429,0.49175 -0.028593,0.231966 -0.096225,0.474262 -0.1776863,0.636579 l -0.028271,0.05634 0.1643953,0.09802 c 0.092849,0.05535 0.1627152,0.1022 0.1605354,0.107618 -0.0021,0.0053 -0.032302,0.05878 -0.067068,0.118897 -0.034765,0.06011 -0.062365,0.110165 -0.061331,0.111221 0.00104,9.85e-4 0.024347,-0.0017 0.051808,-0.0063 0.1111699,-0.01822 0.2181136,-0.003 0.3211019,0.04604 0.079879,0.03793 0.1412511,0.08582 0.2314118,0.180564 0.091679,0.09634 0.1713391,0.216954 0.2900764,0.439207 0.1316774,0.246476 0.1817027,0.316625 0.2629785,0.368778 0.058955,0.03783 0.1260613,0.05634 0.2294072,0.06326 0.049296,0.0033 0.089629,0.0093 0.089629,0.0134 0,0.01403 -0.1970782,0.210296 -0.2729047,0.271798 -0.2774361,0.225028 -0.616725,0.372465 -0.9882652,0.429443 -0.1909341,0.02927 -0.5291367,0.0248 -0.6932124,-0.0092 -0.042442,-0.0088 -0.060008,-0.0095 -0.064221,-0.0027 -0.0032,0.0051 -0.010501,0.04493 -0.016246,0.08836 -0.00574,0.04344 -0.012791,0.0804 -0.015655,0.08214 -0.00287,0.0017 -0.026009,-1.74e-4 -0.051442,-0.0042 -0.069487,-0.0111 -0.2708426,-0.03391 -0.273762,-0.03098 -0.0014,0.0013 0.013883,0.0353 0.033995,0.07535 0.094837,0.188893 0.082696,0.378114 -0.038287,0.596692 -0.076838,0.138826 -0.1280937,0.203617 -0.3510654,0.443759 -0.1458904,0.157126 -0.203616,0.237313 -0.2282528,0.317082 -0.023074,0.0747 -0.02145,0.13235 0.00701,0.249051 0.013225,0.05424 0.021744,0.0985 0.018917,0.09835 -0.00283,-1.58e-4 -0.056758,-0.0242 -0.1198494,-0.05343 z m -0.074464,-0.2346 c 0,-0.0346 0.025186,-0.118276 0.053677,-0.178331 0.038046,-0.08019 0.1087158,-0.172006 0.2362071,-0.306885 0.1983904,-0.209885 0.2931727,-0.334735 0.3538892,-0.466143 0.080572,-0.174387 0.069957,-0.313074 -0.035808,-0.467903 -0.022243,-0.03255 -0.046113,-0.06839 -0.05305,-0.07964 -0.00893,-0.0145 -0.020153,-0.02046 -0.038513,-0.02046 -0.014251,-6e-6 -0.067214,-0.0075 -0.1177095,-0.01667 -0.050494,-0.0092 -0.094059,-0.01675 -0.096807,-0.01682 -0.00274,-9.7e-5 0.00241,0.02162 0.011454,0.04822 0.01274,0.03747 0.015498,0.06255 0.012236,0.111401 -0.00755,0.112996 -0.060781,0.210728 -0.2289697,0.420391 -0.050079,0.06243 -0.1042519,0.134124 -0.1203822,0.159325 -0.042859,0.06695 -0.092279,0.176427 -0.1051266,0.232873 l -0.011193,0.04921 -0.018044,-0.05465 c -0.059782,-0.181062 -0.088455,-0.378386 -0.088574,-0.609564 -9.56e-5,-0.217352 0.020975,-0.379814 0.06925,-0.533537 0.00937,-0.02985 0.015968,-0.05536 0.014648,-0.05669 -0.0014,-0.0013 -0.016367,0.02546 -0.033438,0.05955 -0.1420963,0.283669 -0.1612606,0.709706 -0.047265,1.050661 0.018532,0.05542 0.046787,0.125431 0.062796,0.155574 0.016002,0.03015 0.027766,0.05615 0.026136,0.05778 -0.00157,0.0017 -0.049921,-0.04352 -0.1073117,-0.100339 -0.2190457,-0.216873 -0.3527609,-0.428977 -0.3990526,-0.633 -0.020484,-0.09028 -0.019033,-0.223637 0.00327,-0.300582 0.00904,-0.03122 0.01515,-0.05675 0.013556,-0.05675 -0.00156,0 -0.032298,0.0099 -0.068236,0.02196 -0.035935,0.01207 -0.103172,0.03046 -0.1494153,0.0408 l -0.084078,0.01885 -0.0025,0.04658 c -0.00649,0.121158 0.084807,0.43357 0.1873553,0.641128 0.1596468,0.323125 0.3658959,0.559242 0.6512723,0.745588 0.048312,0.03156 0.092767,0.05736 0.098792,0.05736 0.00602,0 0.010952,-0.0087 0.010952,-0.01925 z M 3.4812823,87.060401 c 0.1002982,-0.03351 0.1711486,-0.09408 0.2476725,-0.211734 0.020303,-0.03122 0.040025,-0.05676 0.043828,-0.05676 0.0038,0 1.737e-4,-0.03312 -0.00793,-0.07357 -0.00817,-0.04046 -0.019395,-0.101146 -0.024949,-0.134847 l -0.0101,-0.06128 -0.035839,0.03302 C 3.6362478,86.60843 3.5897807,86.62519 3.48661,86.63002 3.3822471,86.63492 3.3058481,86.62112 3.1056583,86.561 2.9329718,86.50918 2.8362648,86.49407 2.7153424,86.50003 l -0.096667,0.0047 0.024584,-0.02048 c 0.2764227,-0.230482 0.6552278,-0.404429 0.9788704,-0.449495 0.1574686,-0.02192 0.1556915,-0.02122 0.073365,-0.02864 -0.1860675,-0.01672 -0.4520263,0.04263 -0.6748955,0.150585 -0.1448262,0.07016 -0.2626764,0.153318 -0.3758773,0.265244 -0.054336,0.05372 -0.098791,0.09633 -0.098791,0.09469 0,-0.0158 0.071582,-0.187395 0.1114285,-0.267096 0.1684964,-0.337047 0.3813131,-0.533687 0.6242543,-0.576801 0.032368,-0.0057 0.060026,-0.0113 0.061456,-0.0123 0.0014,-9.86e-4 -0.019645,-0.03347 -0.046833,-0.07212 -0.027188,-0.03865 -0.064302,-0.09388 -0.082476,-0.122741 -0.018175,-0.02884 -0.035985,-0.0525 -0.039586,-0.05255 -0.013729,-1.57e-4 -0.1058034,0.05066 -0.1784258,0.09845 -0.2325139,0.153048 -0.4617388,0.387387 -0.607664,0.621219 -0.1110779,0.177996 -0.1946813,0.390425 -0.2329337,0.591874 -0.00746,0.0393 -0.01498,0.07827 -0.016714,0.08659 -0.0028,0.01357 8.69e-4,0.01444 0.036123,0.0084 0.021591,-0.0037 0.084661,-0.0065 0.1401508,-0.0063 0.1268423,6.68e-4 0.1660597,0.01116 0.4456137,0.121204 0.254198,0.100042 0.3498311,0.128499 0.4918578,0.146354 0.059469,0.0075 0.1768015,-0.003 0.2291034,-0.02048 z m 0.6538549,-0.0544 c 0.3329231,-0.0584 0.4975336,-0.125331 0.6372991,-0.259145 0.1540773,-0.147517 0.2353896,-0.359972 0.2161905,-0.564864 l -0.0058,-0.06187 -0.039258,-0.0053 c -0.021594,-0.003 -0.064703,-0.012 -0.0958,-0.02019 l -0.056542,-0.0149 -0.1751991,0.198443 c -0.2705198,0.30641 -0.404511,0.471887 -0.4465228,0.551447 -0.050964,0.09651 0.013225,-0.0954 0.086106,-0.257454 0.029877,-0.06642 0.1130011,-0.239955 0.1847243,-0.38562 0.1268162,-0.257556 0.1299907,-0.265307 0.1153961,-0.281661 -0.011366,-0.01274 -0.055737,-0.07856 -0.063758,-0.09459 -0.0027,-0.0054 -0.1969397,0.06088 -0.2521279,0.08603 -0.2084794,0.09501 -0.3465458,0.245767 -0.3739679,0.408343 -0.014214,0.08424 -0.0023,0.186018 0.056339,0.480938 0.04802,0.241565 0.048066,0.241725 0.069672,0.241725 0.011888,0 0.076352,-0.0096 0.143247,-0.02132 z M 6.1922045,86.84648 c 0.024729,-0.181517 0.032509,-0.357807 0.020224,-0.458135 -0.032977,-0.26929 -0.191304,-0.48402 -0.4321504,-0.586103 -0.071074,-0.03011 -0.1580187,-0.05249 -0.205048,-0.05274 -0.022971,-1.27e-4 -0.029083,0.0045 -0.041577,0.03139 -0.00805,0.01735 -0.023911,0.04577 -0.035226,0.06319 l -0.020581,0.03165 0.087285,0.144909 c 0.2281798,0.378826 0.391159,0.626858 0.4612282,0.701926 0.018342,0.01965 0.029883,0.03573 0.025641,0.03573 -0.013138,0 -0.1679136,-0.120555 -0.2606651,-0.20303 -0.076568,-0.06808 -0.1856375,-0.170256 -0.4638476,-0.434504 l -0.064854,-0.0616 -0.050514,0.01955 -0.050516,0.01955 -0.0058,0.04573 c -0.00733,0.05776 0.0014,0.205033 0.017684,0.298376 0.034896,0.200112 0.1363675,0.361976 0.2655511,0.423609 0.077631,0.03704 0.1718512,0.05774 0.3522939,0.07739 0.085549,0.0093 0.2009469,0.02212 0.2564389,0.02847 0.055493,0.0064 0.1065687,0.011 0.1135041,0.01029 0.00977,-9.85e-4 0.01673,-0.03148 0.030928,-0.135682 z m 0.8241369,-0.0086 c 0.3525161,-0.04592 0.6803087,-0.182169 0.9377526,-0.389794 0.035756,-0.02884 0.06693,-0.05554 0.069271,-0.05932 0.00233,-0.0038 -0.017112,-0.01772 -0.043244,-0.03092 C 7.8661324,86.300179 7.7633248,86.17234 7.6327836,85.925951 7.4891739,85.654901 7.3963215,85.522288 7.2840026,85.427818 7.1431004,85.309308 7.0155309,85.286973 6.8197282,85.346529 l -0.060416,0.01838 -0.065701,0.110018 c -0.036136,0.06051 -0.066812,0.112518 -0.068172,0.115579 -0.0014,0.003 0.014422,0.0037 0.035074,0.0013 0.055643,-0.0063 0.1417825,0.0228 0.2034723,0.06864 0.06887,0.05119 0.1286801,0.124036 0.2455741,0.299117 0.1088026,0.162969 0.2218364,0.287668 0.304482,0.335915 l 0.046241,0.027 -0.1303204,-0.0044 c -0.2697075,-0.0091 -0.5508978,-0.0806 -0.8113529,-0.206383 -0.064739,-0.03125 -0.1492848,-0.07844 -0.1878793,-0.104824 -0.061661,-0.04215 -0.067967,-0.04488 -0.05201,-0.02246 0.027523,0.03866 0.1511074,0.133397 0.2425038,0.185912 0.1575015,0.0905 0.3294186,0.152182 0.5186693,0.186095 0.1155976,0.02072 0.3348983,0.025 0.4197131,0.0082 0.027373,-0.0054 0.051214,-0.0084 0.052983,-0.0066 0.004,0.0039 -0.08577,0.05446 -0.1765703,0.0993 -0.3251442,0.160557 -0.6375819,0.200941 -0.8589011,0.11101 -0.028011,-0.0114 -0.064778,-0.02985 -0.081706,-0.04106 l -0.030782,-0.02035 -0.00581,0.08999 c -0.0032,0.04949 -0.00897,0.116397 -0.012844,0.148682 -0.00387,0.03229 -0.00594,0.0598 -0.00459,0.06116 0.00465,0.0046 0.1210802,0.02721 0.1785698,0.03458 0.099048,0.01274 0.3877261,0.01073 0.4963811,-0.0034 z M 5.1058053,85.92986 c 0.07206,-0.01878 0.128111,-0.05172 0.1853423,-0.108948 0.105824,-0.105826 0.1424762,-0.233914 0.1090211,-0.381006 -0.029581,-0.130061 -0.1262956,-0.237314 -0.2579092,-0.28602 -0.2921295,-0.108099 -0.5992373,0.157206 -0.535541,0.462647 0.04694,0.225095 0.2788559,0.370689 0.4990868,0.313327 z M 4.0721092,85.77453 c 0.081841,-0.02296 0.1812011,-0.06481 0.2772871,-0.116754 l 0.075671,-0.04092 -0.00277,-0.04516 c -0.00157,-0.02484 -0.00531,-0.04777 -0.0084,-0.05097 -0.00307,-0.0033 -0.098327,-0.0379 -0.2116224,-0.0771 -0.4038758,-0.139744 -0.585297,-0.209364 -0.7132918,-0.273718 -0.037052,-0.01865 -0.070004,-0.03814 -0.073222,-0.04334 -0.0042,-0.0068 -0.0014,-0.0071 0.00988,-0.0013 0.05711,0.03025 0.332104,0.06244 0.8396934,0.09829 0.1017332,0.0072 0.1964534,0.0149 0.2104854,0.01718 0.023238,0.0038 0.028325,-6.3e-5 0.057012,-0.04266 l 0.0315,-0.04677 -0.021947,-0.04032 c -0.094857,-0.174283 -0.3069056,-0.311193 -0.5223014,-0.337227 -0.2329752,-0.02817 -0.4413487,0.05327 -0.8141365,0.318174 -0.023121,0.01645 -0.043201,0.03065 -0.044618,0.03158 -0.0014,9.85e-4 0.00864,0.01818 0.022369,0.03835 0.013729,0.02015 0.083338,0.125572 0.1547019,0.234243 0.1782091,0.271367 0.2510397,0.345727 0.3785049,0.386458 0.083745,0.02677 0.2438924,0.02308 0.3552167,-0.0081 z m 2.1988755,-0.08207 c 0.1603025,-0.05742 0.2128701,-0.120558 0.4272938,-0.513207 0.056327,-0.103142 0.100352,-0.190867 0.097835,-0.194941 -0.00798,-0.01293 -0.2392286,-0.143797 -0.3358696,-0.190082 -0.1765791,-0.08457 -0.2832331,-0.108948 -0.4461026,-0.101974 -0.1441602,0.0062 -0.2501978,0.04289 -0.3699434,0.12806 -0.094027,0.06688 -0.1945773,0.186826 -0.2229263,0.265919 -0.010778,0.03005 -0.010361,0.03122 0.026116,0.0737 0.030558,0.03559 0.04075,0.04241 0.058082,0.03885 0.011561,-0.0023 0.1118227,-0.01772 0.2228067,-0.03406 0.3000301,-0.04423 0.4485812,-0.06876 0.5853875,-0.09671 0.1067874,-0.02179 0.1511318,-0.03394 0.2301688,-0.06302 0.033258,-0.01223 -0.055839,0.04851 -0.1322052,0.09014 -0.094951,0.05176 -0.3444455,0.166688 -0.6179869,0.28468 l -0.2036873,0.08786 -1.737e-4,0.0524 -1.735e-4,0.05241 0.044044,0.02232 c 0.024225,0.01226 0.076246,0.03292 0.115606,0.04586 0.039362,0.01293 0.093245,0.03139 0.1197455,0.04093 0.074456,0.02687 0.1275245,0.03342 0.2460913,0.03038 0.082331,-0.002 0.120813,-0.0069 0.1559499,-0.01952 z m -1.512912,-0.680876 c 0.030551,-0.01453 0.065086,-0.02881 0.076744,-0.03175 l 0.021196,-0.0054 0.00443,-0.384002 c 0.00403,-0.349674 0.012061,-0.499289 0.030558,-0.568978 0.00602,-0.02269 0.00731,-0.02015 0.012773,0.02523 0.012132,0.100686 0.064785,0.341566 0.1268217,0.580141 0.098116,0.377327 0.083325,0.337334 0.1289508,0.348658 0.021473,0.0053 0.059486,0.01899 0.084469,0.03031 0.024979,0.01137 0.046282,0.01962 0.047333,0.01842 0.00104,-0.0013 0.01154,-0.02115 0.023291,-0.04427 0.011751,-0.02312 0.038352,-0.06593 0.059094,-0.09513 0.05354,-0.07537 0.068833,-0.14082 0.068153,-0.291629 -5.348e-4,-0.105551 -0.00297,-0.125089 -0.024114,-0.189173 C 5.3706212,84.261134 5.30986,84.165518 5.1933881,84.050908 5.0820117,83.941315 4.8203276,83.744636 4.8092562,83.762198 c -0.0032,0.0051 -0.073935,0.09674 -0.1571718,0.203673 -0.2411585,0.309808 -0.2791543,0.385155 -0.2711842,0.537797 0.00487,0.093 0.035561,0.18886 0.087923,0.274489 0.042566,0.06961 0.2174058,0.26953 0.2294196,0.262334 0.00237,-0.0013 0.029284,-0.01447 0.059836,-0.02897 z M 3.4430059,84.770823 c 0.026838,-0.01563 0.081889,-0.04277 0.1223384,-0.06026 l 0.073544,-0.03181 -0.04097,-0.0234 C 3.4743506,84.584783 3.428816,84.431529 3.4286926,84.085808 c -2.44e-5,-0.07897 -0.00535,-0.175059 -0.012203,-0.220547 -0.011664,-0.07732 -0.052349,-0.207014 -0.072616,-0.231434 -0.018044,-0.02172 0.00291,-0.0118 0.071318,0.03384 0.2870631,0.191517 0.5821659,0.54696 0.7045652,0.848634 l 0.024408,0.06015 -0.00522,-0.04204 C 4.1268657,84.437097 4.0493271,84.2531 3.965158,84.122045 3.8159541,83.889731 3.5786294,83.677452 3.3627166,83.58318 l -0.064302,-0.02807 0.050698,-9.4e-5 c 0.027884,-6.4e-5 0.097795,0.0057 0.1553564,0.01287 0.4656905,0.05765 0.7647139,0.23819 0.8607527,0.51968 0.00434,0.0127 0.01248,0.0057 0.044322,-0.03783 0.02146,-0.02937 0.065505,-0.08678 0.09788,-0.127593 l 0.058863,-0.0742 -0.058002,-0.05897 C 4.4278007,83.707153 4.3438556,83.639501 4.2208715,83.55737 3.8743799,83.325982 3.4360941,83.204671 3.0561815,83.235008 c -0.062995,0.005 -0.1257156,0.0114 -0.1393764,0.01411 l -0.024839,0.0049 0.028736,0.05228 c 0.015812,0.02874 0.036788,0.08225 0.046628,0.118894 0.023492,0.08746 0.024896,0.261124 0.00384,0.474394 -0.019786,0.20031 -0.015067,0.414329 0.01147,0.520449 0.048294,0.193124 0.1426642,0.29259 0.3368074,0.354995 0.039308,0.01264 0.072209,0.02323 0.073118,0.02357 8.69e-4,3.35e-4 0.023609,-0.0122 0.050446,-0.02783 z m 3.1216686,-0.167038 c 0.1297528,-0.28975 0.1930809,-0.644665 0.1695239,-0.950082 -0.018693,-0.242364 -0.071548,-0.441868 -0.17484,-0.659948 l -0.028843,-0.06089 -0.056888,0.0567 c -0.040367,0.04022 -0.078719,0.068 -0.13207,0.09564 -0.096902,0.0502 -0.1436914,0.06572 -0.3778641,0.125315 -0.3619442,0.09211 -0.5139125,0.160988 -0.6286977,0.284973 -0.077724,0.08395 -0.1069851,0.168017 -0.1069851,0.307372 v 0.08466 l 0.055548,0.05441 c 0.03055,0.02992 0.07397,0.07625 0.096483,0.102939 l 0.040933,0.04853 0.00521,-0.0233 c 0.020517,-0.09181 0.075903,-0.163024 0.1745625,-0.22445 0.062357,-0.03883 0.1924962,-0.0943 0.3167038,-0.134996 0.088259,-0.02891 0.228461,-0.09394 0.2829256,-0.131217 0.022426,-0.01534 0.060371,-0.04635 0.084323,-0.06891 l 0.04355,-0.04099 -0.01222,0.05321 c -0.032616,0.141951 -0.1143633,0.342949 -0.2016167,0.495713 -0.1013342,0.177415 -0.255132,0.3744 -0.3663106,0.469171 -0.075609,0.06445 -0.076087,0.06532 -0.018335,0.03344 0.1120775,-0.06188 0.2444044,-0.184407 0.3487288,-0.32294 0.1592754,-0.211503 0.2743035,-0.494594 0.2902794,-0.714399 l 0.00548,-0.07541 0.015186,0.04466 c 0.044066,0.129644 0.082967,0.374005 0.082884,0.520674 -1.266e-4,0.240288 -0.062256,0.42649 -0.1878031,0.56289 -0.020064,0.02179 -0.028121,0.03572 -0.020661,0.03572 0.018342,0 0.1606691,0.04851 0.210817,0.07187 0.024167,0.01127 0.048163,0.02048 0.053325,0.02055 0.00515,3.4e-5 0.021667,-0.02734 0.03668,-0.06087 z"
           id="path32840"
           sodipodi:nodetypes="ssssssssssssscsssssssscssssssssscscscsssscsssscssssssssssssssssscsssssscsssssssssscssssscscsscssssssssscssssssssscscsssscsssssssssssssssssssssssscsscssssssssssssssssscssssscccsssssssssssssscsssssscssssssssssscsssssssssssssscssssscssccssssssssscssssssssssssscccssssccsscsssssssssssssssssscscsssssscsssccsssscsssscssssssccssscssssscsscssssscsssssscssssscs" /></g><path
         style="fill:#999999;fill-opacity:1;stroke:#000000;stroke-width:0.132292;stroke-linecap:round;stroke-linejoin:bevel;stroke-dasharray:none;stroke-opacity:1;paint-order:stroke fill markers"
         d="M 9.2713786,91.264161 10.29399,92.304844"
         id="path5834-74"
         sodipodi:nodetypes="cc" /></g></g><style
     type="text/css"
     id="style22731">
	.st0{fill:#FFFFFF;}
	.st1{fill:none;}
</style></svg>
