<?xml version="1.0" encoding="UTF-8" standalone="no"?>
<!-- Created with Inkscape (http://www.inkscape.org/) -->

<svg
   width="40.011776"
   height="50.003822"
   viewBox="0 0 10.586449 13.230177"
   version="1.1"
   id="svg5"
   xml:space="preserve"
   inkscape:version="1.2.2 (b0a8486541, 2022-12-01)"
   sodipodi:docname="tilemap.svg"
   inkscape:export-filename="pokus-tile.png"
   inkscape:export-xdpi="96"
   inkscape:export-ydpi="96"
   xmlns:inkscape="http://www.inkscape.org/namespaces/inkscape"
   xmlns:sodipodi="http://sodipodi.sourceforge.net/DTD/sodipodi-0.dtd"
   xmlns:xlink="http://www.w3.org/1999/xlink"
   xmlns="http://www.w3.org/2000/svg"
   xmlns:svg="http://www.w3.org/2000/svg"><sodipodi:namedview
     id="namedview7"
     pagecolor="#ffffff"
     bordercolor="#000000"
     borderopacity="0.25"
     inkscape:showpageshadow="2"
     inkscape:pageopacity="0.0"
     inkscape:pagecheckerboard="0"
     inkscape:deskcolor="#d1d1d1"
     inkscape:document-units="px"
     showgrid="false"
     showguides="true"
     inkscape:zoom="1.4142136"
     inkscape:cx="31.112698"
     inkscape:cy="183.84776"
     inkscape:window-width="2560"
     inkscape:window-height="1011"
     inkscape:window-x="0"
     inkscape:window-y="0"
     inkscape:window-maximized="1"
     inkscape:current-layer="layer1"><sodipodi:guide
       position="-16.404164,50.205694"
       orientation="-1,0"
       id="guide26882"
       inkscape:locked="false"
       inkscape:label=""
       inkscape:color="rgb(0,134,229)" /><sodipodi:guide
       position="-5.8208315,47.984526"
       orientation="-1,0"
       id="guide26884"
       inkscape:locked="false"
       inkscape:label=""
       inkscape:color="rgb(0,134,229)" /><sodipodi:guide
       position="4.7625006,48.311931"
       orientation="-1,0"
       id="guide26886"
       inkscape:locked="false"
       inkscape:label=""
       inkscape:color="rgb(0,134,229)" /><sodipodi:guide
       position="15.345834,47.984526"
       orientation="-1,0"
       id="guide26888"
       inkscape:locked="false"
       inkscape:label=""
       inkscape:color="rgb(0,134,229)" /><sodipodi:guide
       position="-29.368747,49.200602"
       orientation="-1,0"
       id="guide26892"
       inkscape:locked="false"
       inkscape:label=""
       inkscape:color="rgb(0,134,229)" /><sodipodi:guide
       position="-18.785414,49.528007"
       orientation="-1,0"
       id="guide26894"
       inkscape:locked="false"
       inkscape:label=""
       inkscape:color="rgb(0,134,229)" /><sodipodi:guide
       position="-8.2020815,45.552373"
       orientation="-1,0"
       id="guide26896"
       inkscape:locked="false"
       inkscape:label=""
       inkscape:color="rgb(0,134,229)" /><sodipodi:guide
       position="2.3812515,48.873197"
       orientation="-1,0"
       id="guide26898"
       inkscape:locked="false"
       inkscape:label=""
       inkscape:color="rgb(0,134,229)" /><sodipodi:guide
       position="12.964584,48.452247"
       orientation="-1,0"
       id="guide26900"
       inkscape:locked="false"
       inkscape:label=""
       inkscape:color="rgb(0,134,229)" /><sodipodi:guide
       position="-24.606247,47.049082"
       orientation="-1,0"
       id="guide26902"
       inkscape:locked="false"
       inkscape:label=""
       inkscape:color="rgb(0,134,229)" /><sodipodi:guide
       position="-14.022914,46.581361"
       orientation="-1,0"
       id="guide26904"
       inkscape:locked="false"
       inkscape:label=""
       inkscape:color="rgb(0,134,229)" /><sodipodi:guide
       position="-3.4255005,37.914197"
       orientation="-1,0"
       id="guide26906"
       inkscape:locked="false"
       inkscape:label=""
       inkscape:color="rgb(0,134,229)" /><sodipodi:guide
       position="7.1437506,47.189399"
       orientation="-1,0"
       id="guide26908"
       inkscape:locked="false"
       inkscape:label=""
       inkscape:color="rgb(0,134,229)" /><sodipodi:guide
       position="17.727084,49.528007"
       orientation="-1,0"
       id="guide26910"
       inkscape:locked="false"
       inkscape:label=""
       inkscape:color="rgb(0,134,229)" /><sodipodi:guide
       position="-37.570831,47.00231"
       orientation="-1,0"
       id="guide26912"
       inkscape:locked="false"
       inkscape:label=""
       inkscape:color="rgb(0,134,229)" /><sodipodi:guide
       position="-32.698264,46.832257"
       orientation="0,1"
       id="guide26914"
       inkscape:locked="false"
       inkscape:label=""
       inkscape:color="rgb(0,134,229)" /><sodipodi:guide
       position="-34.476886,49.874965"
       orientation="0,1"
       id="guide26916"
       inkscape:locked="false"
       inkscape:label=""
       inkscape:color="rgb(0,134,229)" /><sodipodi:guide
       position="-34.896556,43.789549"
       orientation="0,1"
       id="guide27644"
       inkscape:locked="false"
       inkscape:label=""
       inkscape:color="rgb(0,134,229)" /><sodipodi:guide
       position="-39.952081,51.85934"
       orientation="-1,0"
       id="guide28435"
       inkscape:locked="false"
       inkscape:label=""
       inkscape:color="rgb(0,134,229)" /><sodipodi:guide
       position="-35.189581,50.801007"
       orientation="-1,0"
       id="guide28437"
       inkscape:locked="false"
       inkscape:label=""
       inkscape:color="rgb(0,134,229)" /><sodipodi:guide
       position="-44.671939,33.603091"
       orientation="0,1"
       id="guide28619"
       inkscape:locked="false"
       inkscape:label=""
       inkscape:color="rgb(0,134,229)" /><sodipodi:guide
       position="-43.548128,36.645799"
       orientation="0,1"
       id="guide28621"
       inkscape:locked="false"
       inkscape:label=""
       inkscape:color="rgb(0,134,229)" /><sodipodi:guide
       position="-44.765483,30.560383"
       orientation="0,1"
       id="guide28623"
       inkscape:locked="false"
       inkscape:label=""
       inkscape:color="rgb(0,134,229)" /><sodipodi:guide
       position="-43.828523,20.370695"
       orientation="0,-1"
       id="guide30297"
       inkscape:locked="false" /><sodipodi:guide
       position="-47.340784,7.1397282"
       orientation="0,-1"
       id="guide31859"
       inkscape:locked="false" /><sodipodi:guide
       position="-1.7676125,73.293018"
       orientation="0,-1"
       id="guide33317"
       inkscape:locked="false" /><sodipodi:guide
       position="-40.754085,76.359609"
       orientation="0,1"
       id="guide36845"
       inkscape:locked="false"
       inkscape:label=""
       inkscape:color="rgb(0,134,229)" /><sodipodi:guide
       position="7.2451656,89.518208"
       orientation="0,-1"
       id="guide36847"
       inkscape:locked="false" /></sodipodi:namedview><defs
     id="defs2"><linearGradient
       inkscape:collect="always"
       id="linearGradient5767"><stop
         style="stop-color:#cccccc;stop-opacity:1;"
         offset="0"
         id="stop5763" /><stop
         style="stop-color:#e5e5e5;stop-opacity:1;"
         offset="1"
         id="stop5765" /></linearGradient><linearGradient
       inkscape:collect="always"
       id="linearGradient5759"><stop
         style="stop-color:#999999;stop-opacity:1;"
         offset="0"
         id="stop5755" /><stop
         style="stop-color:#666666;stop-opacity:1;"
         offset="1"
         id="stop5757" /></linearGradient><linearGradient
       inkscape:collect="always"
       xlink:href="#linearGradient5759"
       id="linearGradient8945"
       gradientUnits="userSpaceOnUse"
       gradientTransform="translate(39.130731,77.922147)"
       x1="12.900038"
       y1="13.800077"
       x2="12.94384"
       y2="13.756275" /><linearGradient
       inkscape:collect="always"
       xlink:href="#linearGradient5767"
       id="linearGradient8947"
       gradientUnits="userSpaceOnUse"
       gradientTransform="translate(39.130731,77.922147)"
       x1="12.435538"
       y1="13.368127"
       x2="3.4919937"
       y2="1.6133311" /><filter
       inkscape:collect="always"
       style="color-interpolation-filters:sRGB"
       id="filter31935"
       x="-0.057720929"
       y="-0.04108138"
       width="1.1154419"
       height="1.0821629"><feGaussianBlur
         inkscape:collect="always"
         stdDeviation="0.17346845"
         id="feGaussianBlur31937" /></filter></defs><g
     inkscape:label="tilemap"
     inkscape:groupmode="layer"
     id="layer1"
     transform="translate(-42.33333,-79.374995)"><g
       id="g2312"
       inkscape:label="dragonG"><g
         id="g46227"><path
           style="fill:#999999;fill-opacity:1;stroke:#000000;stroke-width:0.132292;stroke-linecap:round;stroke-linejoin:bevel;stroke-dasharray:none;stroke-opacity:1;paint-order:stroke fill markers"
           d="m 51.604711,91.264161 1.022612,1.040683"
           id="path5834-1-33"
           sodipodi:nodetypes="cc" /><path
           style="fill:url(#linearGradient8945);fill-opacity:1;stroke:#000000;stroke-width:0.264583;stroke-linecap:round;stroke-linejoin:bevel;stroke-dasharray:none;stroke-opacity:1;paint-order:stroke fill markers"
           d="m 51.535756,79.705791 1.002942,1.000246 c 0.151069,0.151069 0.24879,0.326524 0.24879,0.479573 l -4.96e-4,10.61911 c 0,0.277758 -0.19657,0.668161 -0.695831,0.668161 l -7.949339,-0.0015 c -0.23838,0 -0.375639,-0.154451 -0.501405,-0.280218 L 42.59819,91.153417 Z"
           id="path2981-97-96"
           sodipodi:nodetypes="ccccccccc" /><rect
           style="fill:url(#linearGradient8947);fill-opacity:1;stroke:#000000;stroke-width:0.264583;stroke-linecap:round;stroke-linejoin:round;stroke-dasharray:none;stroke-opacity:1;paint-order:stroke fill markers"
           id="rect2763-36-43"
           width="9.260416"
           height="11.90625"
           x="42.465622"
           y="79.507286"
           ry="0.66145831" /><path
           fill-rule="nonzero"
           fill="#000000"
           fill-opacity="1"
           d="m 44.270776,82.659673 c -0.119425,0.06255 -0.22875,0.128963 -0.327941,0.199241 -0.06768,0.04996 -0.132862,0.10432 -0.195552,0.163145 -0.03134,0.0294 -0.06204,0.0599 -0.09215,0.0915 -0.01583,0.01444 -0.05954,0.06436 -0.131176,0.149743 l 0.05579,-0.03601 c 0.03689,-0.02339 0.07316,-0.04556 0.108834,-0.06655 0.04546,-0.02666 0.08992,-0.0514 0.133389,-0.0742 0.02479,-0.01296 0.04926,-0.02527 0.07341,-0.03701 0.102827,-0.04947 0.201191,-0.08855 0.295041,-0.117318 0.09851,-0.03395 0.215718,-0.0661 0.351636,-0.09645 0.02598,-0.0073 0.147143,-0.02222 0.363528,-0.04484 0.04583,-0.0073 0.07723,-0.0151 0.09418,-0.02329 0.01907,-0.0083 0.03747,-0.01703 0.05514,-0.02629 0.02167,-0.01139 0.04237,-0.02349 0.06201,-0.03629 0.168906,-0.121375 0.265672,-0.189352 0.290316,-0.203931 0.03107,-0.0187 0.0678,-0.03917 0.110256,-0.06137 0.03624,-0.01899 0.07657,-0.03922 0.121094,-0.06075 -0.04655,-0.01812 -0.100683,-0.02874 -0.162425,-0.0318 -0.0317,-0.0018 -0.06615,-0.0019 -0.103283,-3.13e-4 -0.01516,-0.0013 -0.07699,0.0048 -0.185488,0.01822 -0.05306,0.0071 -0.104951,0.01539 -0.155731,0.02482 -0.02679,0.0033 -0.100297,0.02006 -0.220478,0.05036 -0.0933,0.02537 -0.184433,0.05643 -0.273366,0.09318 l -0.07479,0.03286 c -0.06675,0.03009 -0.130825,0.0612 -0.192233,0.09336 z m 0.193234,0.582635 c 0,0 1.7e-5,5.1e-5 1.7e-5,5.1e-5 0,0 0,0 1.7e-5,0 -1.7e-5,0 -3.4e-5,-5.1e-5 -3.4e-5,-5.1e-5 z m -1.7e-5,0 c 1.7e-5,0 1.7e-5,5.1e-5 3.4e-5,5.1e-5 l -1.7e-5,-5.1e-5 z m 0.452846,0.169837 -0.02615,0.123746 c -0.07249,0.320476 -0.16685,0.5637 -0.283079,0.729585 -0.141048,0.230683 -0.398078,0.474031 -0.771074,0.730076 -0.02925,0.03413 -0.0032,0.04177 0.07818,0.02294 0.172683,-0.0322 0.35861,-0.100456 0.55778,-0.204739 0.201858,-0.106972 0.397815,-0.235583 0.587887,-0.38573 0.09376,-0.07904 0.184592,-0.176811 0.272505,-0.293268 0.03413,-0.04295 0.146282,-0.229294 0.33653,-0.559114 0.04384,-0.06372 0.07783,-0.109537 0.101983,-0.137519 l 0.08089,-0.07409 c -0.133144,-0.01714 -0.322637,-0.02074 -0.568372,-0.01075 -0.135357,0.0096 -0.257698,0.02923 -0.367076,0.05886 z m 2.93724,-1.041435 0.02716,0.0048 c 0.178654,0.03246 0.406194,0.09622 0.682546,0.191337 0.05442,0.06246 0.137833,0.189581 0.250197,0.381269 z m -3.433841,2.58014 -0.0025,0.0014 c -0.0066,0.0039 -0.01154,0.0084 -0.01474,0.01349 -0.01848,0.159104 -0.05431,0.37013 -0.107516,0.633098 -0.0072,0.04221 -0.0317,0.136323 -0.0736,0.282378 -0.06015,0.230015 -0.186594,0.47958 -0.379301,0.748747 -0.0059,0.02312 0.01481,0.02234 0.06201,-0.0024 0.0048,-0.0025 0.0099,-0.0052 0.01521,-0.0083 0.277739,-0.171946 0.493895,-0.374576 0.648486,-0.607859 0.05341,-0.08148 0.104618,-0.177566 0.153589,-0.288279 l 0.379952,-0.951414 0.04756,-0.186559 h -5e-5 c -0.109625,0.08786 -0.195325,0.147986 -0.257066,0.18027 -0.0051,0.0027 -0.01,0.0051 -0.01474,0.0074 -0.0018,0.0014 -0.0047,0.003 -0.0086,0.0052 -0.03959,0.02073 -0.189124,0.07832 -0.448613,0.172754 z m 5.802055,-0.926403 z m 0,0 z m -5.220772,-3.591117 0.190388,0.334809 0.204476,0.301821 0.21858,0.268676 0.232616,0.235583 0.246684,0.202491 0.260753,0.169433 0.274843,0.136288 0.05113,0.0183 c -0.03845,0.0064 -0.07681,0.01358 -0.115034,0.02136 -0.02266,0.0056 -0.0452,0.01147 -0.06763,0.01749 -0.259366,-0.04393 -0.439092,-0.07924 -0.539196,-0.105952 -0.136164,-0.03578 -0.24867,-0.07091 -0.337654,-0.105268 -0.02306,-0.0069 -0.109185,-0.042 -0.258243,-0.105303 l -0.193269,-0.08832 -0.0072,0.0016 -0.0037,0.0039 c 0.0277,0.07671 0.133723,0.193585 0.318139,0.350652 0.158649,0.116281 0.295113,0.208639 0.409425,0.276985 -0.02955,0.01438 -0.05886,0.02923 -0.088,0.04448 -0.01643,0.0086 -0.03278,0.01735 -0.04911,0.02626 l -0.05336,0.02833 c -0.0018,9.19e-4 -0.0036,0.0018 -0.0054,0.0028 -0.232069,0.121533 -0.64095,0.379107 -1.226659,0.772654 0.615517,-0.253289 1.056682,-0.399307 1.323427,-0.437969 0.328343,-0.06629 0.705202,-0.07001 1.130648,-0.01124 0.226625,0.03107 0.504927,0.08206 0.834887,0.15301 l 0.962779,0.540689 c 0.323181,-0.144034 0.592928,-0.219985 0.809365,-0.227889 v 5.1e-5 c -0.0013,0.0697 -0.0089,0.14781 -0.02289,0.234371 -0.0073,0.0447 -0.01641,0.08733 -0.0273,0.127803 -0.0102,0.03768 -0.02589,0.0817 -0.04713,0.131967 -0.0017,0.005 -0.0011,0.0079 0.0021,0.0088 0.0013,-6.27e-4 0.0025,-0.0013 0.0037,-0.0019 0.04087,-0.02141 0.07564,-0.04565 0.104231,-0.07272 0.06036,-0.05742 0.105496,-0.106111 0.135533,-0.146141 0.0219,-0.02926 0.04226,-0.05795 0.06102,-0.08605 0.01139,-0.01481 0.03606,-0.05563 0.07414,-0.122534 0.0052,-0.0098 0.01025,-0.01948 0.0151,-0.02911 v 0 c 0.01677,0.0067 0.03292,0.01417 0.04851,0.0224 0.07419,0.0264 0.177706,0.07613 0.310498,0.149163 l 0.03981,0.549489 c 0.240431,-0.309725 0.384411,-0.524863 0.43189,-0.645412 0.05617,-0.100086 0.08356,-0.308918 0.0822,-0.626513 l -1.596128,-0.13926 -0.934763,-0.474609 -0.397866,-0.04219 c -0.06206,-0.05679 -0.135497,-0.10908 -0.22039,-0.156699 -0.160984,-0.09434 -0.596037,-0.281762 -1.305246,-0.562277 -0.144614,-0.06843 -0.2711,-0.1375 -0.379477,-0.207286 -0.180993,-0.116656 -0.481321,-0.362269 -0.901092,-0.736914 z m -0.504278,2.868594 c -0.12264,0.06422 -0.228628,0.131352 -0.332104,0.198978 -1.7e-5,0 -1.7e-5,0 -3.4e-5,5.1e-5 h -1.7e-5 c -6.8e-5,5.1e-5 -6.8e-5,1.72e-4 -1.7e-5,2.67e-4 6.8e-5,5e-5 1.73e-4,8.4e-5 2.67e-4,5e-5 0.762273,-0.231578 1.525617,-0.455744 2.248633,-0.383885 0.07223,0.0071 0.143998,0.01727 0.215172,0.03009 0.662363,0.119021 1.274895,0.469446 1.705539,0.829671 0.473185,0.395795 0.727071,0.803745 0.978481,1.210588 0,1.02e-4 1.57e-4,1.36e-4 3.14e-4,1.02e-4 0,-5.1e-5 0,-5.1e-5 0,-5.1e-5 0.09893,-0.09448 0.196816,-0.189756 0.285046,-0.338955 0.09109,-0.15401 0.17163,-0.364827 0.176811,-0.550315 0.005,-0.177073 -0.05874,-0.33198 -0.126364,-0.487835 l -3.13e-4,-8.5e-5 v 0 l -1.57e-4,1.35e-4 c -0.02721,0.0942 -0.05575,0.187912 -0.09757,0.257962 -0.0456,0.07644 -0.106673,0.124431 -0.166289,0.171278 l -4.71e-4,3.76e-4 c -4.7e-4,3.45e-4 -9.19e-4,6.74e-4 -0.0014,9.19e-4 -0.0033,0.0018 -0.0075,0.0014 -0.01052,-0.0011 l -7.78e-4,-6.74e-4 c -0.100912,-0.08296 -0.201825,-0.165885 -0.30321,-0.247511 v 5.1e-5 c 0.0023,-0.0049 0.0049,-0.0099 0.0073,-0.01488 0.01776,-0.03813 0.03255,-0.07532 0.04439,-0.111608 0.01399,-0.04568 0.0237,-0.08639 0.02909,-0.122096 0.0027,-0.01047 0.0043,-0.03439 0.005,-0.07172 -4.7e-4,-0.01407 -0.0021,-0.02689 -0.0047,-0.03845 -0.0021,-0.0022 -0.0045,-0.0025 -0.0073,-0.0011 -3.13e-4,1.89e-4 -6.27e-4,3.77e-4 -0.0011,5.96e-4 -0.04358,0.0366 -0.08667,0.06884 -0.129244,0.09668 -0.01732,0.01083 -0.0339,0.02041 -0.04981,0.02874 -0.01507,0.0079 -0.02951,0.01465 -0.04335,0.02032 -0.02245,0.0098 -0.04745,0.01718 -0.07488,0.02199 -0.005,8.49e-4 -0.01011,0.0016 -0.01533,0.0024 v 0 c -0.44099,-0.33841 -0.899332,-0.633135 -1.419102,-0.780928 -0.09584,-0.02726 -0.193725,-0.04952 -0.292828,-0.06733 -0.662224,-0.119021 -1.377562,-0.03943 -1.874303,0.07816 -0.323725,0.07662 -0.55432,0.169293 -0.744761,0.269027 z m 0.423284,2.42843 -0.0037,0.0088 c -0.04392,0.102247 -0.09104,0.191513 -0.141417,0.267779 -0.05614,0.08839 -0.131229,0.173421 -0.22529,0.255046 0.139203,0.36639 0.218492,0.645711 0.237832,0.837909 0.01626,0.100402 0.02826,0.233668 0.03601,0.399888 0.0021,0.0796 0.0024,0.160457 7.07e-4,0.242556 l -0.01199,0.364387 c 0.002,0.0076 0.0042,0.01078 0.0068,0.0095 2.51e-4,-1.18e-4 4.86e-4,-3.14e-4 7.07e-4,-4.71e-4 0.03853,-0.07095 0.06454,-0.123587 0.07795,-0.157909 0.126644,-0.305493 0.189281,-0.673429 0.187894,-1.103756 0.0028,-0.251779 -0.0033,-0.416434 -0.01839,-0.49409 -0.04713,-0.32903 -0.09613,-0.538933 -0.147037,-0.629586 z m 1.152237,-2.23026 -0.11124,0.06731 c -0.197274,0.132248 -0.372557,0.339903 -0.525935,0.622895 -0.06318,0.123517 -0.13822,0.29093 -0.225097,0.502133 -0.013,0.03696 -0.0317,0.139941 -0.05626,0.309005 -0.03041,0.267464 -0.02415,0.611144 0.0188,1.031091 0.03683,0.234863 0.143665,0.70436 0.320528,1.408529 0.03364,0.183468 0.05256,0.330206 0.05679,0.440234 0.03194,0.332333 -0.02519,0.728863 -0.171224,1.189598 0.158366,-0.166464 0.304966,-0.410972 0.439724,-0.733537 0.07636,-0.171612 0.149831,-0.424672 0.220426,-0.759218 0.02029,-0.221829 0.02306,-0.405526 0.0083,-0.551123 -0.168801,-0.903057 -0.246332,-1.358222 -0.232648,-1.365406 3.6e-4,-1.36e-4 7.07e-4,-5.2e-5 0.0011,3.13e-4 -0.0085,-0.308917 0.02208,-0.597423 0.0916,-0.865556 0.125767,-0.321336 0.208376,-0.503099 0.247897,-0.545361 0.06404,-0.107376 0.13404,-0.205635 0.210078,-0.294672 0.125329,-0.162776 0.319722,-0.313187 0.583233,-0.451143 0.0056,-0.0029 0.0111,-0.0057 0.01673,-0.0087 -0.238096,-0.07613 -0.395934,-0.112294 -0.473643,-0.108411 -0.143471,0.0055 -0.283237,0.04289 -0.419175,0.112048 z m 0.757864,0.25905 -0.153326,0.09483 c -0.154731,0.11556 -0.277406,0.252499 -0.367971,0.410778 -0.04967,0.07627 -0.10994,0.210799 -0.180799,0.403664 -0.03377,0.08422 -0.07555,0.318139 -0.125327,0.701795 -0.0067,0.01026 0,0.123028 0.02015,0.338323 0.03156,0.252938 0.113945,0.543974 0.247088,0.873075 l 0.145684,0.320211 c 0.3597,0.662328 0.558309,1.041471 0.595773,1.137446 0.119252,0.248161 0.235357,0.557781 0.348353,0.928879 0.147231,0.643235 0.16413,1.176353 0.05073,1.599321 0.09029,-0.131562 0.169522,-0.2685 0.237638,-0.410777 0.151008,-0.365056 0.22826,-0.590523 0.231898,-0.67638 0.06984,-0.316664 0.09543,-0.65474 0.07667,-1.014228 -0.01042,-0.215067 -0.07005,-0.469058 -0.178742,-0.761974 -0.0768,-0.1779 -0.163267,-0.367058 -0.25942,-0.567512 l -0.44854,-0.915933 c -0.08337,-0.268764 -0.120287,-0.46985 -0.11075,-0.603273 0.02972,-0.577735 0.295164,-1.151323 0.796226,-1.720872 -0.05018,-0.06647 -0.215118,-0.160264 -0.494809,-0.281358 -0.1023,0.01366 -0.24579,0.06165 -0.430521,0.143981 z m 0,0"
           id="path20708-4"
           style="fill:#1efc00;fill-opacity:1;stroke-width:0.00449666;filter:url(#filter31935)" /><path
           fill-rule="nonzero"
           fill="#000000"
           fill-opacity="1"
           d="m 44.270776,82.659673 c -0.119425,0.06255 -0.22875,0.128963 -0.327941,0.199241 -0.06768,0.04996 -0.132862,0.10432 -0.195552,0.163145 -0.03134,0.0294 -0.06204,0.0599 -0.09215,0.0915 -0.01583,0.01444 -0.05954,0.06436 -0.131176,0.149743 l 0.05579,-0.03601 c 0.03689,-0.02339 0.07316,-0.04556 0.108834,-0.06655 0.04546,-0.02666 0.08992,-0.0514 0.133389,-0.0742 0.02479,-0.01296 0.04926,-0.02527 0.07341,-0.03701 0.102827,-0.04947 0.201191,-0.08855 0.295041,-0.117318 0.09851,-0.03395 0.215718,-0.0661 0.351636,-0.09645 0.02598,-0.0073 0.147143,-0.02222 0.363528,-0.04484 0.04583,-0.0073 0.07723,-0.0151 0.09418,-0.02329 0.01907,-0.0083 0.03747,-0.01703 0.05514,-0.02629 0.02167,-0.01139 0.04237,-0.02349 0.06201,-0.03629 0.168906,-0.121375 0.265672,-0.189352 0.290316,-0.203931 0.03107,-0.0187 0.0678,-0.03917 0.110256,-0.06137 0.03624,-0.01899 0.07657,-0.03922 0.121094,-0.06075 -0.04655,-0.01812 -0.100683,-0.02874 -0.162425,-0.0318 -0.0317,-0.0018 -0.06615,-0.0019 -0.103283,-3.13e-4 -0.01516,-0.0013 -0.07699,0.0048 -0.185488,0.01822 -0.05306,0.0071 -0.104951,0.01539 -0.155731,0.02482 -0.02679,0.0033 -0.100297,0.02006 -0.220478,0.05036 -0.0933,0.02537 -0.184433,0.05643 -0.273366,0.09318 l -0.07479,0.03286 c -0.06675,0.03009 -0.130825,0.0612 -0.192233,0.09336 z m 0.193234,0.582635 c 0,0 1.7e-5,5.1e-5 1.7e-5,5.1e-5 0,0 0,0 1.7e-5,0 -1.7e-5,0 -3.4e-5,-5.1e-5 -3.4e-5,-5.1e-5 z m -1.7e-5,0 c 1.7e-5,0 1.7e-5,5.1e-5 3.4e-5,5.1e-5 l -1.7e-5,-5.1e-5 z m 0.452846,0.169837 -0.02615,0.123746 c -0.07249,0.320476 -0.16685,0.5637 -0.283079,0.729585 -0.141048,0.230683 -0.398078,0.474031 -0.771074,0.730076 -0.02925,0.03413 -0.0032,0.04177 0.07818,0.02294 0.172683,-0.0322 0.35861,-0.100456 0.55778,-0.204739 0.201858,-0.106972 0.397815,-0.235583 0.587887,-0.38573 0.09376,-0.07904 0.184592,-0.176811 0.272505,-0.293268 0.03413,-0.04295 0.146282,-0.229294 0.33653,-0.559114 0.04384,-0.06372 0.07783,-0.109537 0.101983,-0.137519 l 0.08089,-0.07409 c -0.133144,-0.01714 -0.322637,-0.02074 -0.568372,-0.01075 -0.135357,0.0096 -0.257698,0.02923 -0.367076,0.05886 z m 2.93724,-1.041435 0.02716,0.0048 c 0.178654,0.03246 0.406194,0.09622 0.682546,0.191337 0.05442,0.06246 0.137833,0.189581 0.250197,0.381269 z m -3.433841,2.58014 -0.0025,0.0014 c -0.0066,0.0039 -0.01154,0.0084 -0.01474,0.01349 -0.01848,0.159104 -0.05431,0.37013 -0.107516,0.633098 -0.0072,0.04221 -0.0317,0.136323 -0.0736,0.282378 -0.06015,0.230015 -0.186594,0.47958 -0.379301,0.748747 -0.0059,0.02312 0.01481,0.02234 0.06201,-0.0024 0.0048,-0.0025 0.0099,-0.0052 0.01521,-0.0083 0.277739,-0.171946 0.493895,-0.374576 0.648486,-0.607859 0.05341,-0.08148 0.104618,-0.177566 0.153589,-0.288279 l 0.379952,-0.951414 0.04756,-0.186559 h -5e-5 c -0.109625,0.08786 -0.195325,0.147986 -0.257066,0.18027 -0.0051,0.0027 -0.01,0.0051 -0.01474,0.0074 -0.0018,0.0014 -0.0047,0.003 -0.0086,0.0052 -0.03959,0.02073 -0.189124,0.07832 -0.448613,0.172754 z m 5.802055,-0.926403 z m 0,0 z m -5.220772,-3.591117 0.190388,0.334809 0.204476,0.301821 0.21858,0.268676 0.232616,0.235583 0.246684,0.202491 0.260753,0.169433 0.274843,0.136288 0.05113,0.0183 c -0.03845,0.0064 -0.07681,0.01358 -0.115034,0.02136 -0.02266,0.0056 -0.0452,0.01147 -0.06763,0.01749 -0.259366,-0.04393 -0.439092,-0.07924 -0.539196,-0.105952 -0.136164,-0.03578 -0.24867,-0.07091 -0.337654,-0.105268 -0.02306,-0.0069 -0.109185,-0.042 -0.258243,-0.105303 l -0.193269,-0.08832 -0.0072,0.0016 -0.0037,0.0039 c 0.0277,0.07671 0.133723,0.193585 0.318139,0.350652 0.158649,0.116281 0.295113,0.208639 0.409425,0.276985 -0.02955,0.01438 -0.05886,0.02923 -0.088,0.04448 -0.01643,0.0086 -0.03278,0.01735 -0.04911,0.02626 l -0.05336,0.02833 c -0.0018,9.19e-4 -0.0036,0.0018 -0.0054,0.0028 -0.232069,0.121533 -0.64095,0.379107 -1.226659,0.772654 0.615517,-0.253289 1.056682,-0.399307 1.323427,-0.437969 0.328343,-0.06629 0.705202,-0.07001 1.130648,-0.01124 0.226625,0.03107 0.504927,0.08206 0.834887,0.15301 l 0.962779,0.540689 c 0.323181,-0.144034 0.592928,-0.219985 0.809365,-0.227889 v 5.1e-5 c -0.0013,0.0697 -0.0089,0.14781 -0.02289,0.234371 -0.0073,0.0447 -0.01641,0.08733 -0.0273,0.127803 -0.0102,0.03768 -0.02589,0.0817 -0.04713,0.131967 -0.0017,0.005 -0.0011,0.0079 0.0021,0.0088 0.0013,-6.27e-4 0.0025,-0.0013 0.0037,-0.0019 0.04087,-0.02141 0.07564,-0.04565 0.104231,-0.07272 0.06036,-0.05742 0.105496,-0.106111 0.135533,-0.146141 0.0219,-0.02926 0.04226,-0.05795 0.06102,-0.08605 0.01139,-0.01481 0.03606,-0.05563 0.07414,-0.122534 0.0052,-0.0098 0.01025,-0.01948 0.0151,-0.02911 v 0 c 0.01677,0.0067 0.03292,0.01417 0.04851,0.0224 0.07419,0.0264 0.177706,0.07613 0.310498,0.149163 l 0.03981,0.549489 c 0.240431,-0.309725 0.384411,-0.524863 0.43189,-0.645412 0.05617,-0.100086 0.08356,-0.308918 0.0822,-0.626513 l -1.596128,-0.13926 -0.934763,-0.474609 -0.397866,-0.04219 c -0.06206,-0.05679 -0.135497,-0.10908 -0.22039,-0.156699 -0.160984,-0.09434 -0.596037,-0.281762 -1.305246,-0.562277 -0.144614,-0.06843 -0.2711,-0.1375 -0.379477,-0.207286 -0.180993,-0.116656 -0.481321,-0.362269 -0.901092,-0.736914 z m -0.504278,2.868594 c -0.12264,0.06422 -0.228628,0.131352 -0.332104,0.198978 -1.7e-5,0 -1.7e-5,0 -3.4e-5,5.1e-5 h -1.7e-5 c -6.8e-5,5.1e-5 -6.8e-5,1.72e-4 -1.7e-5,2.67e-4 6.8e-5,5e-5 1.73e-4,8.4e-5 2.67e-4,5e-5 0.762273,-0.231578 1.525617,-0.455744 2.248633,-0.383885 0.07223,0.0071 0.143998,0.01727 0.215172,0.03009 0.662363,0.119021 1.274895,0.469446 1.705539,0.829671 0.473185,0.395795 0.727071,0.803745 0.978481,1.210588 0,1.02e-4 1.57e-4,1.36e-4 3.14e-4,1.02e-4 0,-5.1e-5 0,-5.1e-5 0,-5.1e-5 0.09893,-0.09448 0.196816,-0.189756 0.285046,-0.338955 0.09109,-0.15401 0.17163,-0.364827 0.176811,-0.550315 0.005,-0.177073 -0.05874,-0.33198 -0.126364,-0.487835 l -3.13e-4,-8.5e-5 v 0 l -1.57e-4,1.35e-4 c -0.02721,0.0942 -0.05575,0.187912 -0.09757,0.257962 -0.0456,0.07644 -0.106673,0.124431 -0.166289,0.171278 l -4.71e-4,3.76e-4 c -4.7e-4,3.45e-4 -9.19e-4,6.74e-4 -0.0014,9.19e-4 -0.0033,0.0018 -0.0075,0.0014 -0.01052,-0.0011 l -7.78e-4,-6.74e-4 c -0.100912,-0.08296 -0.201825,-0.165885 -0.30321,-0.247511 v 5.1e-5 c 0.0023,-0.0049 0.0049,-0.0099 0.0073,-0.01488 0.01776,-0.03813 0.03255,-0.07532 0.04439,-0.111608 0.01399,-0.04568 0.0237,-0.08639 0.02909,-0.122096 0.0027,-0.01047 0.0043,-0.03439 0.005,-0.07172 -4.7e-4,-0.01407 -0.0021,-0.02689 -0.0047,-0.03845 -0.0021,-0.0022 -0.0045,-0.0025 -0.0073,-0.0011 -3.13e-4,1.89e-4 -6.27e-4,3.77e-4 -0.0011,5.96e-4 -0.04358,0.0366 -0.08667,0.06884 -0.129244,0.09668 -0.01732,0.01083 -0.0339,0.02041 -0.04981,0.02874 -0.01507,0.0079 -0.02951,0.01465 -0.04335,0.02032 -0.02245,0.0098 -0.04745,0.01718 -0.07488,0.02199 -0.005,8.49e-4 -0.01011,0.0016 -0.01533,0.0024 v 0 c -0.44099,-0.33841 -0.899332,-0.633135 -1.419102,-0.780928 -0.09584,-0.02726 -0.193725,-0.04952 -0.292828,-0.06733 -0.662224,-0.119021 -1.377562,-0.03943 -1.874303,0.07816 -0.323725,0.07662 -0.55432,0.169293 -0.744761,0.269027 z m 0.423284,2.42843 -0.0037,0.0088 c -0.04392,0.102247 -0.09104,0.191513 -0.141417,0.267779 -0.05614,0.08839 -0.131229,0.173421 -0.22529,0.255046 0.139203,0.36639 0.218492,0.645711 0.237832,0.837909 0.01626,0.100402 0.02826,0.233668 0.03601,0.399888 0.0021,0.0796 0.0024,0.160457 7.07e-4,0.242556 l -0.01199,0.364387 c 0.002,0.0076 0.0042,0.01078 0.0068,0.0095 2.51e-4,-1.18e-4 4.86e-4,-3.14e-4 7.07e-4,-4.71e-4 0.03853,-0.07095 0.06454,-0.123587 0.07795,-0.157909 0.126644,-0.305493 0.189281,-0.673429 0.187894,-1.103756 0.0028,-0.251779 -0.0033,-0.416434 -0.01839,-0.49409 -0.04713,-0.32903 -0.09613,-0.538933 -0.147037,-0.629586 z m 1.152237,-2.23026 -0.11124,0.06731 c -0.197274,0.132248 -0.372557,0.339903 -0.525935,0.622895 -0.06318,0.123517 -0.13822,0.29093 -0.225097,0.502133 -0.013,0.03696 -0.0317,0.139941 -0.05626,0.309005 -0.03041,0.267464 -0.02415,0.611144 0.0188,1.031091 0.03683,0.234863 0.143665,0.70436 0.320528,1.408529 0.03364,0.183468 0.05256,0.330206 0.05679,0.440234 0.03194,0.332333 -0.02519,0.728863 -0.171224,1.189598 0.158366,-0.166464 0.304966,-0.410972 0.439724,-0.733537 0.07636,-0.171612 0.149831,-0.424672 0.220426,-0.759218 0.02029,-0.221829 0.02306,-0.405526 0.0083,-0.551123 -0.168801,-0.903057 -0.246332,-1.358222 -0.232648,-1.365406 3.6e-4,-1.36e-4 7.07e-4,-5.2e-5 0.0011,3.13e-4 -0.0085,-0.308917 0.02208,-0.597423 0.0916,-0.865556 0.125767,-0.321336 0.208376,-0.503099 0.247897,-0.545361 0.06404,-0.107376 0.13404,-0.205635 0.210078,-0.294672 0.125329,-0.162776 0.319722,-0.313187 0.583233,-0.451143 0.0056,-0.0029 0.0111,-0.0057 0.01673,-0.0087 -0.238096,-0.07613 -0.395934,-0.112294 -0.473643,-0.108411 -0.143471,0.0055 -0.283237,0.04289 -0.419175,0.112048 z m 0.757864,0.25905 -0.153326,0.09483 c -0.154731,0.11556 -0.277406,0.252499 -0.367971,0.410778 -0.04967,0.07627 -0.10994,0.210799 -0.180799,0.403664 -0.03377,0.08422 -0.07555,0.318139 -0.125327,0.701795 -0.0067,0.01026 0,0.123028 0.02015,0.338323 0.03156,0.252938 0.113945,0.543974 0.247088,0.873075 l 0.145684,0.320211 c 0.3597,0.662328 0.558309,1.041471 0.595773,1.137446 0.119252,0.248161 0.235357,0.557781 0.348353,0.928879 0.147231,0.643235 0.16413,1.176353 0.05073,1.599321 0.09029,-0.131562 0.169522,-0.2685 0.237638,-0.410777 0.151008,-0.365056 0.22826,-0.590523 0.231898,-0.67638 0.06984,-0.316664 0.09543,-0.65474 0.07667,-1.014228 -0.01042,-0.215067 -0.07005,-0.469058 -0.178742,-0.761974 -0.0768,-0.1779 -0.163267,-0.367058 -0.25942,-0.567512 l -0.44854,-0.915933 c -0.08337,-0.268764 -0.120287,-0.46985 -0.11075,-0.603273 0.02972,-0.577735 0.295164,-1.151323 0.796226,-1.720872 -0.05018,-0.06647 -0.215118,-0.160264 -0.494809,-0.281358 -0.1023,0.01366 -0.24579,0.06165 -0.430521,0.143981 z m 0,0"
           id="path20708-4-0"
           style="fill:#0c6500;fill-opacity:1;stroke-width:0.00449666" /></g><path
         style="fill:#999999;fill-opacity:1;stroke:#000000;stroke-width:0.132292;stroke-linecap:round;stroke-linejoin:bevel;stroke-dasharray:none;stroke-opacity:1;paint-order:stroke fill markers"
         d="m 51.626916,91.244529 1.022612,1.040683"
         id="path5834-4-9-9"
         sodipodi:nodetypes="cc" /></g></g><style
     type="text/css"
     id="style22731">
	.st0{fill:#FFFFFF;}
	.st1{fill:none;}
</style></svg>
