<?xml version="1.0" encoding="UTF-8" standalone="no"?>
<!-- Created with Inkscape (http://www.inkscape.org/) -->

<svg
   width="40.011768"
   height="50.003822"
   viewBox="0 0 10.586447 13.230177"
   version="1.1"
   id="svg5"
   xml:space="preserve"
   inkscape:version="1.2.2 (b0a8486541, 2022-12-01)"
   sodipodi:docname="tilemap-hover.svg"
   inkscape:export-filename="pokus-tile.png"
   inkscape:export-xdpi="96"
   inkscape:export-ydpi="96"
   xmlns:inkscape="http://www.inkscape.org/namespaces/inkscape"
   xmlns:sodipodi="http://sodipodi.sourceforge.net/DTD/sodipodi-0.dtd"
   xmlns:xlink="http://www.w3.org/1999/xlink"
   xmlns="http://www.w3.org/2000/svg"
   xmlns:svg="http://www.w3.org/2000/svg"><sodipodi:namedview
     id="namedview7"
     pagecolor="#ffffff"
     bordercolor="#000000"
     borderopacity="0.25"
     inkscape:showpageshadow="2"
     inkscape:pageopacity="0.0"
     inkscape:pagecheckerboard="0"
     inkscape:deskcolor="#d1d1d1"
     inkscape:document-units="px"
     showgrid="false"
     showguides="true"
     inkscape:zoom="5.6568544"
     inkscape:cx="72.831997"
     inkscape:cy="70.180346"
     inkscape:window-width="2560"
     inkscape:window-height="1011"
     inkscape:window-x="0"
     inkscape:window-y="0"
     inkscape:window-maximized="1"
     inkscape:current-layer="layer1"><sodipodi:guide
       position="25.929166,36.97653"
       orientation="-1,0"
       id="guide26882"
       inkscape:locked="false"
       inkscape:label=""
       inkscape:color="rgb(0,134,229)" /><sodipodi:guide
       position="36.512499,34.755362"
       orientation="-1,0"
       id="guide26884"
       inkscape:locked="false"
       inkscape:label=""
       inkscape:color="rgb(0,134,229)" /><sodipodi:guide
       position="47.095831,35.082767"
       orientation="-1,0"
       id="guide26886"
       inkscape:locked="false"
       inkscape:label=""
       inkscape:color="rgb(0,134,229)" /><sodipodi:guide
       position="57.679164,34.755362"
       orientation="-1,0"
       id="guide26888"
       inkscape:locked="false"
       inkscape:label=""
       inkscape:color="rgb(0,134,229)" /><sodipodi:guide
       position="12.964583,35.971438"
       orientation="-1,0"
       id="guide26892"
       inkscape:locked="false"
       inkscape:label=""
       inkscape:color="rgb(0,134,229)" /><sodipodi:guide
       position="23.547916,36.298843"
       orientation="-1,0"
       id="guide26894"
       inkscape:locked="false"
       inkscape:label=""
       inkscape:color="rgb(0,134,229)" /><sodipodi:guide
       position="34.131249,32.323209"
       orientation="-1,0"
       id="guide26896"
       inkscape:locked="false"
       inkscape:label=""
       inkscape:color="rgb(0,134,229)" /><sodipodi:guide
       position="44.714582,35.644033"
       orientation="-1,0"
       id="guide26898"
       inkscape:locked="false"
       inkscape:label=""
       inkscape:color="rgb(0,134,229)" /><sodipodi:guide
       position="55.297914,35.223083"
       orientation="-1,0"
       id="guide26900"
       inkscape:locked="false"
       inkscape:label=""
       inkscape:color="rgb(0,134,229)" /><sodipodi:guide
       position="17.727083,33.819918"
       orientation="-1,0"
       id="guide26902"
       inkscape:locked="false"
       inkscape:label=""
       inkscape:color="rgb(0,134,229)" /><sodipodi:guide
       position="28.310416,33.352197"
       orientation="-1,0"
       id="guide26904"
       inkscape:locked="false"
       inkscape:label=""
       inkscape:color="rgb(0,134,229)" /><sodipodi:guide
       position="38.90783,24.685033"
       orientation="-1,0"
       id="guide26906"
       inkscape:locked="false"
       inkscape:label=""
       inkscape:color="rgb(0,134,229)" /><sodipodi:guide
       position="49.477081,33.960235"
       orientation="-1,0"
       id="guide26908"
       inkscape:locked="false"
       inkscape:label=""
       inkscape:color="rgb(0,134,229)" /><sodipodi:guide
       position="60.060414,36.298843"
       orientation="-1,0"
       id="guide26910"
       inkscape:locked="false"
       inkscape:label=""
       inkscape:color="rgb(0,134,229)" /><sodipodi:guide
       position="4.7624998,33.773146"
       orientation="-1,0"
       id="guide26912"
       inkscape:locked="false"
       inkscape:label=""
       inkscape:color="rgb(0,134,229)" /><sodipodi:guide
       position="9.6350661,33.603093"
       orientation="0,1"
       id="guide26914"
       inkscape:locked="false"
       inkscape:label=""
       inkscape:color="rgb(0,134,229)" /><sodipodi:guide
       position="7.8564448,36.645801"
       orientation="0,1"
       id="guide26916"
       inkscape:locked="false"
       inkscape:label=""
       inkscape:color="rgb(0,134,229)" /><sodipodi:guide
       position="7.4367743,30.560385"
       orientation="0,1"
       id="guide27644"
       inkscape:locked="false"
       inkscape:label=""
       inkscape:color="rgb(0,134,229)" /><sodipodi:guide
       position="2.3812499,38.630176"
       orientation="-1,0"
       id="guide28435"
       inkscape:locked="false"
       inkscape:label=""
       inkscape:color="rgb(0,134,229)" /><sodipodi:guide
       position="7.1437497,37.571843"
       orientation="-1,0"
       id="guide28437"
       inkscape:locked="false"
       inkscape:label=""
       inkscape:color="rgb(0,134,229)" /><sodipodi:guide
       position="-2.3386083,20.373927"
       orientation="0,1"
       id="guide28619"
       inkscape:locked="false"
       inkscape:label=""
       inkscape:color="rgb(0,134,229)" /><sodipodi:guide
       position="-1.2147974,23.416635"
       orientation="0,1"
       id="guide28621"
       inkscape:locked="false"
       inkscape:label=""
       inkscape:color="rgb(0,134,229)" /><sodipodi:guide
       position="-2.4321526,17.331219"
       orientation="0,1"
       id="guide28623"
       inkscape:locked="false"
       inkscape:label=""
       inkscape:color="rgb(0,134,229)" /><sodipodi:guide
       position="-1.4951929,7.141531"
       orientation="0,-1"
       id="guide30297"
       inkscape:locked="false" /><sodipodi:guide
       position="-5.0074536,-6.089436"
       orientation="0,-1"
       id="guide31859"
       inkscape:locked="false" /><sodipodi:guide
       position="40.565718,60.063854"
       orientation="0,-1"
       id="guide33317"
       inkscape:locked="false" /><sodipodi:guide
       position="1.5792457,63.130445"
       orientation="0,1"
       id="guide36845"
       inkscape:locked="false"
       inkscape:label=""
       inkscape:color="rgb(0,134,229)" /><sodipodi:guide
       position="49.578496,76.289044"
       orientation="0,-1"
       id="guide36847"
       inkscape:locked="false" /></sodipodi:namedview><defs
     id="defs2"><linearGradient
       inkscape:collect="always"
       id="linearGradient5767"><stop
         style="stop-color:#fff699;stop-opacity:1;"
         offset="0"
         id="stop5763" /><stop
         style="stop-color:#fffbcb;stop-opacity:1;"
         offset="1"
         id="stop5765" /></linearGradient><linearGradient
       inkscape:collect="always"
       id="linearGradient5759"><stop
         style="stop-color:#ffee33;stop-opacity:1;"
         offset="0"
         id="stop5755" /><stop
         style="stop-color:#ccbb00;stop-opacity:1;"
         offset="1"
         id="stop5757" /></linearGradient><linearGradient
       inkscape:collect="always"
       xlink:href="#linearGradient5759"
       id="linearGradient8728"
       gradientUnits="userSpaceOnUse"
       gradientTransform="translate(-3.2026015,64.692982)"
       x1="12.900038"
       y1="13.800077"
       x2="12.94384"
       y2="13.756275" /><linearGradient
       inkscape:collect="always"
       xlink:href="#linearGradient5767"
       id="linearGradient8730"
       gradientUnits="userSpaceOnUse"
       gradientTransform="translate(-3.2026015,64.692982)"
       x1="12.435538"
       y1="13.368127"
       x2="3.4919937"
       y2="1.6133311" /><filter
       inkscape:collect="always"
       style="color-interpolation-filters:sRGB"
       id="filter37812"
       x="-0.047209088"
       y="-0.048817858"
       width="1.0944182"
       height="1.0976357"><feGaussianBlur
         inkscape:collect="always"
         stdDeviation="0.091598805"
         id="feGaussianBlur37814" /></filter><filter
       inkscape:collect="always"
       style="color-interpolation-filters:sRGB"
       id="filter37816"
       x="-0.013401629"
       y="-0.010863794"
       width="1.0268033"
       height="1.0217276"><feGaussianBlur
         inkscape:collect="always"
         stdDeviation="0.048180721"
         id="feGaussianBlur37818" /></filter></defs><g
     inkscape:label="tilemap"
     inkscape:groupmode="layer"
     id="layer1"
     transform="translate(0,-66.14583)"><g
       id="g46274"
       inkscape:label="windW"><path
         style="fill:url(#linearGradient8728);fill-opacity:1;stroke:#000000;stroke-width:0.264583;stroke-linecap:round;stroke-linejoin:bevel;stroke-dasharray:none;stroke-opacity:1;paint-order:stroke fill markers"
         d="m 9.2024235,66.476626 1.0029415,1.000246 c 0.151069,0.151069 0.24879,0.326524 0.24879,0.479573 l -4.96e-4,10.61911 c 0,0.277758 -0.19657,0.668161 -0.6958305,0.668161 l -7.9493392,-0.0015 c -0.2383799,0 -0.3756387,-0.154451 -0.5014053,-0.280218 L 0.26485695,77.924252 Z"
         id="path2981-8"
         sodipodi:nodetypes="ccccccccc" /><rect
         style="fill:url(#linearGradient8730);fill-opacity:1;stroke:#000000;stroke-width:0.264583;stroke-linecap:round;stroke-linejoin:round;stroke-dasharray:none;stroke-opacity:1;paint-order:stroke fill markers"
         id="rect2763-56"
         width="9.260416"
         height="11.90625"
         x="0.1322915"
         y="66.278122"
         ry="0.66145831" /><path
         style="fill:#0062cb;fill-opacity:0.677164;stroke-width:0.0079065;filter:url(#filter37816)"
         d="m 5.956733,77.310772 c -0.0065,-0.01517 0.0104,-0.03208 0.08097,-0.08132 0.05209,-0.03635 0.06068,-0.04566 0.06068,-0.06568 0,-0.01278 0.0027,-0.03079 0.0061,-0.03992 0.0035,-0.0091 0.01935,-0.05729 0.03561,-0.107088 0.06397,-0.195875 0.188245,-0.367561 0.348616,-0.481609 0.08262,-0.05875 0.145614,-0.08629 0.228938,-0.100105 0.06342,-0.01051 0.158027,0.0018 0.172607,0.02244 0.0099,0.01395 3.91e-4,0.165496 -0.01497,0.243341 -0.07783,0.391072 -0.365649,0.626801 -0.669132,0.548043 l -0.06029,-0.01562 -0.04832,0.02902 c -0.04977,0.02993 -0.113275,0.05944 -0.127836,0.05944 -0.0045,0 -0.01036,-0.0051 -0.01294,-0.01087 z m 0.540208,-0.177519 c 0.02979,-0.01619 0.0726,-0.04554 0.09511,-0.06527 0.05321,-0.04662 0.145767,-0.183079 0.177164,-0.261242 0.02584,-0.06433 0.059,-0.181397 0.06714,-0.236985 l 0.0048,-0.03249 -0.07783,0.0061 c -0.134505,0.01063 -0.238477,0.06025 -0.349844,0.167204 -0.06985,0.06707 -0.154343,0.211606 -0.219901,0.376136 l -0.01837,0.04611 0.0387,-0.02851 c 0.02126,-0.01568 0.0724,-0.0614 0.113603,-0.101582 0.115836,-0.112959 0.157939,-0.138702 0.157939,-0.09658 0,0.0384 -0.07445,0.122909 -0.182069,0.206664 -0.06658,0.05179 -0.06103,0.0569 0.05744,0.05275 0.07278,-0.0024 0.08808,-0.0063 0.136182,-0.03231 z M 1.341402,76.749734 c -0.17442,-0.0397 -0.367368,-0.233351 -0.463967,-0.465628 -0.05657,-0.136015 -0.09886,-0.341771 -0.09886,-0.480926 0,-0.06027 -0.0012,-0.06459 -0.03616,-0.135463 -0.03858,-0.07818 -0.04862,-0.11355 -0.03698,-0.130494 0.01012,-0.0147 0.03135,0.0033 0.0906,0.07676 l 0.04868,0.06035 0.03416,-0.01732 c 0.02631,-0.01336 0.05376,-0.01726 0.119432,-0.01715 0.0809,1.47e-4 0.08871,0.0018 0.152158,0.0343 0.127933,0.06532 0.243491,0.199412 0.309725,0.359394 0.0704,0.170056 0.100806,0.397791 0.07591,0.568551 -0.01247,0.08549 -0.02646,0.127646 -0.04591,0.138398 -0.02435,0.01351 -0.107638,0.01863 -0.148796,0.0093 z m 0.08367,-0.177984 c 0.0063,-0.08595 -3.91e-4,-0.2216 -0.01544,-0.303307 -0.03581,-0.196753 -0.128094,-0.353413 -0.26555,-0.450781 -0.06541,-0.04635 -0.130478,-0.06837 -0.201868,-0.06837 h -0.05352 l 0.04825,0.07755 c 0.150106,0.241241 0.254879,0.423529 0.254879,0.443458 0,0.02418 -0.02201,0.04605 -0.03471,0.03453 -0.0046,-0.0039 -0.07611,-0.109179 -0.158983,-0.233396 -0.08287,-0.124217 -0.15147,-0.22257 -0.152451,-0.218578 -0.0045,0.01851 0.03444,0.186543 0.0617,0.265977 0.03506,0.102208 0.06066,0.154665 0.116488,0.238826 0.08725,0.131496 0.201431,0.221837 0.332699,0.263216 0.06633,0.02089 0.06319,0.02317 0.06852,-0.04913 z m 2.04948,0.06687 C 3.279825,76.63142 3.08316,76.59789 2.943362,76.54828 2.805754,76.49944 2.661168,76.416914 2.661168,76.387231 c 0,-0.03028 0.01212,-0.03028 0.06688,1.43e-4 0.118063,0.06549 0.276444,0.114058 0.457888,0.140388 0.09305,0.01352 0.211602,0.01585 0.845063,0.01647 0.72148,5.69e-4 0.737022,0.0011 0.74615,0.0193 0.01958,0.03885 0.0039,0.05991 -0.05327,0.07154 -0.04061,0.0083 -1.046634,0.01122 -1.249328,0.0033 z m 0.46573,-0.347809 c -0.250739,-0.0045 -0.462528,-0.01016 -0.470647,-0.01278 -0.01829,-0.0059 -0.0208,-0.04839 -0.0031,-0.0556 0.0063,-0.003 0.08675,-0.0072 0.178746,-0.01028 0.092,-0.003 0.21745,-0.0076 0.278782,-0.01004 0.326171,-0.01293 0.711254,-0.02278 1.111845,-0.02851 0.342209,-0.0051 0.570229,-0.01181 0.633,-0.01908 0.01806,-0.0024 0.05641,-0.0065 0.08527,-0.0099 0.0781,-0.009 0.238097,-0.04061 0.317274,-0.06278 0.164667,-0.04605 0.275847,-0.09982 0.474537,-0.229397 0.105719,-0.06895 0.129595,-0.07576 0.139141,-0.03959 0.0057,0.02151 -0.0247,0.06591 -0.08734,0.127444 -0.210222,0.206528 -0.553604,0.324734 -1.020722,0.351363 -0.171394,0.0097 -1.05928,0.0095 -1.636611,-5.68e-4 z M 2.421745,76.000044 C 2.057247,75.953534 1.913892,75.921054 1.729712,75.843175 1.4199,75.712186 1.171022,75.433667 1.04217,75.073747 0.874009,74.604012 0.923606,74.144029 1.183425,73.763753 c 0.173908,-0.25454 0.437468,-0.470676 0.838188,-0.687376 0.414346,-0.224071 0.955992,-0.374779 1.508697,-0.419775 0.03968,-0.0033 0.08396,-0.0076 0.09839,-0.0095 0.01442,-0.0024 0.138034,-0.0086 0.274673,-0.01476 0.369999,-0.01658 0.688774,-0.0039 0.743699,0.02942 0.01923,0.01181 0.02025,0.05321 0.0016,0.06186 -0.04082,0.0188 -0.19694,0.03447 -0.42297,0.04243 -0.340622,0.01191 -0.509194,0.01942 -0.560843,0.02469 -0.02345,0.0024 -0.109054,0.01087 -0.190228,0.0188 -0.546814,0.05355 -1.01625,0.188145 -1.426417,0.409 -0.374541,0.201672 -0.604577,0.384155 -0.770464,0.61119 -0.250844,0.343316 -0.307552,0.732304 -0.167993,1.152413 0.141623,0.426341 0.42682,0.709742 0.847327,0.842008 0.143944,0.04526 0.444421,0.106237 0.523692,0.106237 0.02795,0 0.04992,0.02772 0.04475,0.05646 -0.0031,0.01732 -0.0081,0.0196 -0.04051,0.01817 -0.02033,-0.0011 -0.04876,-0.003 -0.06319,-0.0051 z m 1.416864,-0.06086 c -0.09858,-0.0095 -0.152986,-0.02107 -0.268884,-0.05787 -0.412716,-0.131061 -0.641913,-0.405241 -0.624201,-0.746717 0.0088,-0.169926 0.05934,-0.306403 0.174459,-0.471193 0.05707,-0.08171 0.179016,-0.215996 0.27703,-0.305101 0.149054,-0.135506 0.392702,-0.296969 0.559667,-0.370888 0.278411,-0.123274 0.640036,-0.184211 0.68422,-0.115311 0.01094,0.01704 0.01216,0.01544 0.03268,-0.04207 0.044,-0.123302 0.117637,-0.229456 0.212243,-0.305993 l 0.04712,-0.0381 0.01806,-0.07825 c 0.01982,-0.08598 0.05557,-0.197033 0.06835,-0.212446 0.0045,-0.0057 0.01313,-0.007 0.01927,-0.0033 0.01349,0.0076 0.01008,0.04844 -0.01294,0.154535 l -0.01513,0.06985 0.02635,0.03828 c 0.04345,0.06312 0.07754,0.191184 0.07754,0.291289 0,0.02954 0.0016,0.03255 0.01478,0.02782 0.02693,-0.0096 0.164459,-0.03424 0.244344,-0.04384 0.151043,-0.01812 0.323106,-0.02136 0.557564,-0.01063 0.226479,0.01052 0.650645,0.01394 0.698592,0.0058 0.01263,-0.0024 0.05248,-0.0067 0.08855,-0.01016 0.119284,-0.01146 0.260978,-0.04322 0.36335,-0.08141 0.133442,-0.0498 0.204054,-0.05015 0.204054,-0.0011 0,0.03265 -0.05221,0.08294 -0.109253,0.105268 -0.04212,0.01647 -0.194144,0.05566 -0.277761,0.07154 -0.219484,0.04174 -0.401796,0.04805 -0.839627,0.02897 -0.35136,-0.01528 -0.871117,-0.01454 -0.928829,0.0011 -0.01818,0.0051 -0.02115,0.01075 -0.02807,0.05435 -0.02537,0.159574 -0.132351,0.311524 -0.339817,0.482585 -0.03315,0.02732 -0.06493,0.06008 -0.07067,0.07278 -0.029,0.06428 -0.08303,-0.01466 -0.09226,-0.134837 -0.0059,-0.07645 0.0065,-0.225515 0.02611,-0.315404 0.0089,-0.04061 0.01517,-0.07519 0.01403,-0.07687 -0.0012,-0.0018 -0.0098,0.0011 -0.01915,0.0064 -0.02795,0.01544 -0.118493,0.03719 -0.240587,0.05782 -0.578348,0.09771 -1.224259,0.607108 -1.331409,1.050013 -0.07229,0.298819 0.100364,0.555346 0.481945,0.71605 0.185185,0.07799 0.310503,0.103732 0.521484,0.107122 0.08839,0.0011 0.162923,0.003 0.165632,0.0033 0.0027,4.45e-4 0.0049,0.01158 0.0049,0.02487 0,0.03379 -0.01501,0.03968 -0.130983,0.05156 -0.108803,0.01099 -0.135196,0.01099 -0.252752,-1.09e-4 z m 0.949668,-1.687441 c 0.09367,-0.09869 0.103635,-0.110549 0.157665,-0.187536 0.04975,-0.0709 0.0945,-0.184186 0.08769,-0.222015 -0.002,-0.01158 -7.82e-4,-0.02879 0.0027,-0.03828 0.0093,-0.02522 -0.0084,-0.136857 -0.03283,-0.20713 -0.01118,-0.03214 -0.02248,-0.05845 -0.02513,-0.05844 -0.0027,4e-6 -0.02533,0.07613 -0.05036,0.169158 -0.09828,0.365072 -0.116586,0.418809 -0.13108,0.384734 -0.0031,-0.0072 0.02302,-0.125584 0.0906,-0.410949 l 0.01693,-0.07148 -0.04748,0.07148 c -0.05608,0.08442 -0.08981,0.15586 -0.116316,0.246345 -0.0215,0.07337 -0.03933,0.203739 -0.03933,0.287393 0,0.05401 0.0057,0.114294 0.01083,0.114294 0.0016,0 0.03577,-0.03492 0.07625,-0.07756 z m 2.741319,1.666474 c -0.0051,-0.0089 1.02e-4,-0.02817 0.01978,-0.07319 0.03854,-0.08809 0.05325,-0.153666 0.05351,-0.238683 3.91e-4,-0.13552 -0.04763,-0.246935 -0.13246,-0.307223 -0.04322,-0.03073 -0.04484,-0.03106 -0.135576,-0.03049 -0.09066,5.68e-4 -0.09691,0.0024 -0.488687,0.116929 -0.218272,0.06399 -0.507546,0.146379 -0.64284,0.183089 -0.135291,0.03668 -0.275499,0.07487 -0.311579,0.08477 -0.207458,0.05701 -0.311844,0.07883 -0.321503,0.06718 -0.01427,-0.0172 -0.01192,-0.03731 0.0054,-0.04686 0.01431,-0.0078 0.356489,-0.122954 0.524354,-0.17631 0.04239,-0.01352 0.11028,-0.0351 0.150867,-0.04805 0.166391,-0.05305 0.766545,-0.235856 0.910142,-0.277234 0.156895,-0.04521 0.285106,-0.03657 0.367911,0.02481 0.03596,0.02663 0.09188,0.105457 0.115612,0.162946 0.04409,0.106804 0.05322,0.264332 0.02213,0.381753 -0.01677,0.0633 -0.06372,0.143512 -0.09959,0.170097 -0.02971,0.02203 -0.02869,0.02187 -0.03749,0.0064 z m -3.033392,-0.003 c -0.0076,-0.01134 -0.0058,-0.03885 0.0031,-0.04969 0.0045,-0.0051 0.02294,-0.01235 0.04099,-0.0155 0.01806,-0.003 0.09774,-0.01653 0.177109,-0.0297 0.07937,-0.01322 0.189532,-0.03254 0.244797,-0.04288 0.13972,-0.02618 0.214374,-0.02266 0.214374,0.01016 0,0.03237 -0.08581,0.06067 -0.229584,0.07573 -0.05412,0.0057 -0.154479,0.01863 -0.223028,0.02873 -0.186596,0.02754 -0.222547,0.03124 -0.227945,0.02323 z M 4.248581,75.648092 c -0.138015,-0.01693 -0.259374,-0.04822 -0.370612,-0.09559 -0.07917,-0.03373 -0.211516,-0.10424 -0.222219,-0.118407 -0.0031,-0.0039 -0.0039,-0.01908 -0.0012,-0.0331 0.0039,-0.02249 0.0069,-0.02493 0.02545,-0.02068 0.01157,0.003 0.05054,0.02011 0.08662,0.03873 0.260254,0.134591 0.54081,0.170585 0.825448,0.105894 0.05715,-0.01308 0.121031,-0.02363 0.141971,-0.02363 0.09823,0 0.0165,0.07892 -0.128504,0.124102 -0.0509,0.01585 -0.09316,0.02085 -0.196076,0.02323 -0.07216,0.0018 -0.144472,0.0011 -0.16071,-5.68e-4 z m 4.05709,-0.19538 C 8.217781,75.434302 8.093804,75.372092 8.017051,75.307864 7.845801,75.164569 7.715514,74.949009 7.666253,74.727483 l -0.0138,-0.06205 -0.06696,-0.01052 c -0.03682,-0.0057 -0.08615,-0.01308 -0.109604,-0.01613 -0.121425,-0.01607 -0.172055,-0.078 -0.08873,-0.108481 0.04487,-0.01642 0.105395,-0.01264 0.209261,0.01292 l 0.09533,0.02345 0.03803,-0.01919 c 0.216117,-0.108978 0.468822,-0.07032 0.664678,0.101688 0.176676,0.155166 0.357494,0.516576 0.33207,0.663738 -0.006,0.03481 -0.111715,0.108494 -0.188785,0.131599 -0.06533,0.0196 -0.16127,0.02294 -0.232058,0.0082 z m 0.257392,-0.16439 c 0.04416,-0.0069 0.08239,-0.01532 0.08496,-0.01908 0.0063,-0.0091 -0.03784,-0.137613 -0.07568,-0.220544 -0.04036,-0.08849 -0.129818,-0.218131 -0.193311,-0.280141 -0.150126,-0.146613 -0.332684,-0.216138 -0.503014,-0.19157 -0.03428,0.0051 -0.06601,0.0091 -0.07052,0.0093 -0.02009,5.68e-4 -0.0052,0.01681 0.02623,0.02845 0.116836,0.04316 0.304237,0.148249 0.41057,0.230221 0.07386,0.05693 0.177476,0.156818 0.182526,0.17594 0.0048,0.01805 -0.0093,0.04213 -0.02466,0.04213 -0.0066,0 -0.06312,-0.03686 -0.125471,-0.08186 C 8.15195,74.892508 8.03633,74.819346 7.95154,74.776661 c -0.04997,-0.02517 -0.150317,-0.06623 -0.161798,-0.06623 -0.01032,0 0.07943,0.196027 0.118216,0.258189 0.08172,0.130989 0.203249,0.239072 0.325534,0.289513 0.107009,0.04413 0.189094,0.05168 0.329548,0.03022 z m -2.888685,0.122533 c -0.0075,-0.02845 0.0035,-0.03964 0.05109,-0.05191 0.165875,-0.04271 0.59855,-0.218454 0.85765,-0.348376 0.05309,-0.02663 0.07635,-0.03357 0.104953,-0.03142 0.03459,0.003 0.03686,0.0045 0.03882,0.02885 0.002,0.02255 -0.0031,0.03088 -0.03686,0.06257 -0.02142,0.02011 -0.06219,0.04623 -0.09062,0.05801 -0.02842,0.01182 -0.08564,0.03606 -0.127125,0.0539 -0.114522,0.04923 -0.293284,0.113869 -0.406692,0.147112 -0.08614,0.02528 -0.366289,0.0952 -0.3823,0.09546 -0.0027,0 -0.0068,-0.0064 -0.0089,-0.01424 z M 2.706237,74.976009 c -0.01294,-0.0188 -0.01294,-0.01902 0.0039,-0.0625 0.0092,-0.02403 0.03882,-0.08916 0.06575,-0.144805 0.245763,-0.507858 0.561156,-0.870722 0.957787,-1.101948 0.163822,-0.09551 0.292217,-0.142479 0.340911,-0.124725 0.01435,0.0051 0.01712,0.01099 0.01544,0.03215 -0.0027,0.03588 -0.03909,0.06268 -0.137949,0.102078 -0.262989,0.104784 -0.524126,0.30141 -0.749425,0.564281 -0.153393,0.178967 -0.32877,0.457047 -0.42963,0.681231 -0.03166,0.07033 -0.04701,0.08284 -0.06668,0.05429 z m -1.972806,-0.05373 c -0.05616,-0.159913 -0.08001,-0.427548 -0.05671,-0.636235 0.06924,-0.620254 0.427848,-1.132769 0.989259,-1.413836 0.09366,-0.04692 0.309913,-0.126861 0.332593,-0.122996 0.02232,0.0039 0.02439,0.0313 0.0039,0.05087 -0.0092,0.0089 -0.10165,0.06004 -0.205391,0.113928 -0.225232,0.116965 -0.280799,0.149748 -0.388679,0.229246 -0.27388,0.201824 -0.477187,0.477944 -0.587382,0.79775 -0.06257,0.18159 -0.09481,0.372063 -0.09481,0.560122 0,0.120658 0.01161,0.218676 0.04027,0.339954 0.01712,0.07249 0.01931,0.09038 0.01239,0.102444 -0.01442,0.02528 -0.03186,0.01709 -0.04533,-0.0213 z M 2.986766,74.01946 c -0.0077,-0.02913 0.140114,-0.218597 0.259299,-0.332434 0.214542,-0.204923 0.582945,-0.404788 0.662931,-0.359651 0.04267,0.02409 -0.01732,0.0744 -0.149921,0.125772 -0.218889,0.08481 -0.418994,0.233221 -0.677606,0.502577 -0.04122,0.04293 -0.07854,0.07806 -0.08293,0.07806 -0.0044,0 -0.0097,-0.0064 -0.01177,-0.01438 z m 5.090413,-0.49712 c -0.0023,-0.0033 -0.0044,-0.01601 -0.0044,-0.02776 0,-0.01886 0.0088,-0.02561 0.07379,-0.05656 0.244793,-0.116503 0.46847,-0.293271 0.670706,-0.530053 0.09737,-0.113998 0.156848,-0.196946 0.222457,-0.310211 0.09155,-0.15804 0.168892,-0.228336 0.14658,-0.133211 -0.02025,0.08638 -0.09203,0.203266 -0.254027,0.413755 -0.211668,0.275029 -0.490274,0.499968 -0.770463,0.622047 -0.06863,0.02987 -0.07763,0.03225 -0.08468,0.02205 z M 6.478624,73.315989 c -0.002,-0.003 -0.03585,-0.0063 -0.07544,-0.007 -0.07955,-0.0018 -0.09674,-0.0091 -0.09366,-0.04055 0.002,-0.02068 0.0031,-0.02079 0.159468,-0.02199 0.246779,-0.0018 0.400889,-0.01847 0.611509,-0.06582 0.341365,-0.07676 0.740228,-0.25287 1.015265,-0.448279 C 8.260972,72.614973 8.365362,72.5123 8.463259,72.370879 8.665792,72.078317 8.728703,71.725402 8.646118,71.345116 8.579798,71.039725 8.394116,70.712447 8.154866,70.479239 7.770236,70.104324 7.297107,69.955148 6.842889,70.065598 c -0.141073,0.0343 -0.305802,0.105031 -0.43621,0.187275 -0.108667,0.06853 -0.192186,0.135972 -0.380072,0.306907 -0.06232,0.05673 -0.08402,0.07203 -0.09183,0.06489 -0.02021,-0.01851 -0.01317,-0.03845 0.04035,-0.114684 0.216871,-0.308765 0.521277,-0.505171 0.913949,-0.589694 0.05904,-0.01278 0.120616,-0.01699 0.248991,-0.0172 0.146806,-2.91e-4 0.184704,0.003 0.272223,0.02215 0.211746,0.0468 0.394734,0.12984 0.581073,0.263717 0.430935,0.309628 0.709358,0.777663 0.767313,1.289883 0.01478,0.13061 0.01024,0.324564 -0.01016,0.434613 -0.06948,0.374637 -0.268708,0.676599 -0.60027,0.909795 -0.329943,0.232063 -0.777769,0.4092 -1.167602,0.461847 -0.06133,0.0083 -0.126268,0.01704 -0.144308,0.01948 -0.05705,0.0077 -0.354063,0.01726 -0.357706,0.01146 z m 1.459289,-0.01981 c -0.0069,-0.03974 3.91e-4,-0.05105 0.041,-0.06278 0.142268,-0.04112 0.269256,-0.103247 0.395634,-0.193653 0.216992,-0.155221 0.399859,-0.387545 0.526683,-0.669135 0.112243,-0.249211 0.187905,-0.550985 0.211348,-0.842922 0.0213,-0.265438 0.031,-0.318469 0.05718,-0.313073 0.0222,0.0045 0.03911,0.08613 0.0392,0.188912 2.5e-4,0.289374 -0.07866,0.660581 -0.206626,0.972054 -0.212626,0.517535 -0.606571,0.881626 -1.016152,0.939132 -0.04335,0.0061 -0.04406,0.0058 -0.04826,-0.01851 z M 2.28727,72.715099 c 0,-0.01699 0.0045,-0.02402 0.01806,-0.02828 0.0099,-0.003 0.09774,-0.02954 0.195145,-0.05877 0.09741,-0.02924 0.209581,-0.06402 0.249265,-0.07733 0.115135,-0.03856 0.232863,-0.0427 0.232863,-0.0082 0,0.03624 -0.102037,0.08056 -0.252193,0.109532 -0.05431,0.01051 -0.167239,0.03401 -0.250954,0.0523 -0.18556,0.04055 -0.192166,0.04094 -0.192166,0.01063 z m 2.921402,-0.20123 c -0.01005,-0.03805 0.0042,-0.04605 0.122762,-0.06896 0.357986,-0.06922 0.663174,-0.20232 0.892198,-0.389078 0.176487,-0.143904 0.27648,-0.328692 0.286201,-0.528877 0.0079,-0.162594 -0.04413,-0.290376 -0.142029,-0.348893 -0.04769,-0.02851 -0.07681,-0.02794 -0.145955,0.003 -0.03131,0.0138 -0.06156,0.02266 -0.06723,0.01948 -0.02897,-0.01613 0.004,-0.09992 0.05172,-0.131381 0.05263,-0.03476 0.147853,-0.01845 0.225572,0.03856 0.150164,0.110124 0.193218,0.387459 0.101325,0.652717 -0.05953,0.171821 -0.151802,0.289584 -0.317403,0.405059 -0.239019,0.16667 -0.664244,0.328305 -0.945438,0.359382 -0.05121,0.0057 -0.05771,0.0045 -0.06172,-0.01063 z m 2.435186,-0.01052 c -0.0023,-0.0083 -0.004,-0.01653 -0.004,-0.01835 0,-0.0018 0.03878,-0.03373 0.08616,-0.07103 0.16306,-0.128257 0.261261,-0.227797 0.344081,-0.34874 0.169667,-0.24777 0.223853,-0.561947 0.139739,-0.810187 -0.01466,-0.04328 -0.04347,-0.09689 -0.09582,-0.178337 -0.109284,-0.170012 -0.138312,-0.237201 -0.09577,-0.221686 0.09706,0.03537 0.237663,0.289613 0.274095,0.495592 0.01255,0.07097 0.01282,0.217976 3.91e-4,0.302022 -0.04543,0.311433 -0.204183,0.553893 -0.516922,0.789509 -0.10321,0.07775 -0.125088,0.0879 -0.13214,0.06119 z m -1.465582,-0.03385 c 0.0016,-0.0155 0.02384,-0.03641 0.09393,-0.08822 0.147409,-0.108978 0.225952,-0.194216 0.357498,-0.387966 0.08336,-0.122779 0.105206,-0.147572 0.121863,-0.138281 0.01329,0.0074 0.01149,0.03215 -0.0063,0.08679 -0.02912,0.08931 -0.09283,0.175497 -0.230306,0.311682 -0.08455,0.08375 -0.158991,0.143149 -0.247291,0.197284 -0.07335,0.04498 -0.09247,0.04895 -0.08935,0.01868 z m -2.721672,-0.02481 c -0.04341,-0.003 -0.05525,-0.0065 -0.06022,-0.02011 -0.0035,-0.0093 -0.004,-0.02193 -0.0012,-0.02822 0.0064,-0.01511 0.135459,-0.02743 0.427172,-0.04084 0.291326,-0.01336 0.37807,-0.0063 0.394981,0.03237 0.0086,0.01975 0.0057,0.02618 -0.01943,0.04276 -0.02209,0.01454 -0.05866,0.01625 -0.355856,0.01669 -0.18219,2.89e-4 -0.35557,-0.0011 -0.385286,-0.003 z m 2.194184,-0.267302 c -0.04991,-0.0064 -0.05408,-0.07855 -0.0056,-0.09664 0.214866,-0.08014 0.258713,-0.102681 0.321241,-0.165195 0.04495,-0.04492 0.05146,-0.05293 0.112071,-0.137396 0.08021,-0.111801 0.111868,-0.130624 0.111555,-0.06634 -3.91e-4,0.103012 -0.09735,0.243238 -0.24955,0.361296 -0.09639,0.07476 -0.207509,0.114755 -0.289727,0.104276 z M 1.300056,71.798269 c -0.0531,-0.01528 -0.13574,-0.06116 -0.183398,-0.101877 -0.109519,-0.09356 -0.203292,-0.258197 -0.246095,-0.432054 -0.01384,-0.05617 -0.01556,-0.05885 -0.05151,-0.08013 -0.104566,-0.06185 -0.191349,-0.148333 -0.191349,-0.190678 0,-0.05593 0.07428,-0.05015 0.158951,0.0125 l 0.05727,0.04237 0.04112,-0.01409 c 0.06369,-0.02169 0.195321,-0.01181 0.269365,0.02029 0.183684,0.07956 0.327941,0.269868 0.381467,0.503247 0.0206,0.08988 0.0299,0.216501 0.01603,0.218749 -0.005,5.68e-4 -0.01654,0.003 -0.02557,0.0045 -0.009,0.0018 -0.03557,0.0095 -0.05903,0.01738 -0.05159,0.01766 -0.10584,0.01766 -0.16727,0 z m 0.19031,-0.127618 c -0.01661,-0.06842 -0.06179,-0.192818 -0.08915,-0.245448 -0.0529,-0.101782 -0.140184,-0.186173 -0.238914,-0.23097 -0.04279,-0.01942 -0.193507,-0.04016 -0.193507,-0.02663 0,0.003 0.02877,0.03209 0.06395,0.06497 0.09637,0.09007 0.237784,0.245175 0.237784,0.260805 0,0.0076 -0.0031,0.01658 -0.0069,0.01999 -0.0039,0.0033 -0.05324,-0.03215 -0.10987,-0.079 -0.152142,-0.125903 -0.217758,-0.176366 -0.217754,-0.167485 0,0.0045 0.01489,0.04168 0.03311,0.08299 0.07482,0.169663 0.182953,0.282292 0.313146,0.326176 0.03604,0.0122 0.210218,0.04174 0.2163,0.03674 7.82e-4,-5.68e-4 -0.0027,-0.01975 -0.0082,-0.04213 z m 1.378848,0.0706 C 2.45078,71.694161 2.105689,71.524489 1.798583,71.214862 1.695471,71.110894 1.539482,70.917842 1.539482,70.894188 c 0,-0.007 0.0045,-0.01789 0.0099,-0.02448 0.0082,-0.0099 0.01568,-0.0051 0.04428,0.02776 0.293781,0.339199 0.681339,0.589632 1.054398,0.681335 0.151173,0.03715 0.161665,0.03816 0.406692,0.03862 0.128075,2.56e-4 0.236553,0.0039 0.241064,0.0082 0.0045,0.0039 0.0082,0.01839 0.0082,0.03151 0,0.01886 -0.0058,0.02749 -0.02787,0.04156 -0.07661,0.04884 -0.218935,0.06373 -0.406911,0.04259 z m 5.131716,-0.07522 c -0.0059,-0.01052 -0.0046,-0.02782 0.0059,-0.07704 0.02341,-0.11023 0.01618,-0.221867 -0.02228,-0.342766 -0.04529,-0.142319 -0.108971,-0.23389 -0.251865,-0.362136 -0.07714,-0.06923 -0.142221,-0.140461 -0.154382,-0.168976 -0.0054,-0.01264 -0.0045,-0.02023 0.0039,-0.03215 0.01001,-0.01454 0.01423,-0.0141 0.05869,0.0057 0.09309,0.04106 0.173716,0.112581 0.256485,0.227467 0.111919,0.155348 0.163209,0.296822 0.171582,0.473277 0.0068,0.142146 -0.03874,0.327796 -0.06783,0.276859 z m -1.237719,-0.02924 c -0.002,-0.008 -0.002,-0.04334 1.01e-4,-0.07863 0.01212,-0.198345 0.01235,-0.238365 0.0016,-0.308692 -0.02408,-0.1573 -0.09632,-0.310598 -0.18273,-0.387811 -0.02443,-0.02181 -0.02826,-0.03357 -0.0206,-0.06253 0.0068,-0.02596 0.03471,-0.01663 0.08133,0.0272 0.08788,0.08258 0.160211,0.215807 0.189197,0.348455 0.03893,0.178149 0.0276,0.370927 -0.0267,0.45494 -0.01603,0.02475 -0.03655,0.02822 -0.04214,0.007 z M 3.579229,71.38123 c -0.002,-0.003 -0.05066,-0.0063 -0.108236,-0.0072 C 3.273663,71.37073 3.000881,71.34246 2.828436,71.30724 2.272322,71.193631 1.845119,70.923761 1.555677,70.503248 1.230285,70.030504 1.098399,69.396301 1.186011,68.725611 c 0.09545,-0.73073 0.406661,-1.315251 0.88814,-1.668143 0.264378,-0.193772 0.529431,-0.292168 0.859237,-0.318986 0.144352,-0.01181 0.386944,0.02436 0.537883,0.08003 0.298444,0.1101 0.514721,0.283304 0.698979,0.559799 0.17555,0.263427 0.272856,0.558153 0.294372,0.89161 0.0069,0.106804 0.0031,0.223405 -0.0079,0.243635 -0.0094,0.01726 -0.02971,0.0146 -0.03635,-0.0045 -0.0031,-0.0091 -0.0063,-0.03594 -0.007,-0.05957 -0.0041,-0.135725 -0.04013,-0.343781 -0.08564,-0.494019 C 4.172623,67.44338 3.873835,67.099756 3.448282,66.944068 3.298208,66.889158 3.162733,66.866728 2.980707,66.866638 2.667092,66.866497 2.384006,66.960248 2.113413,67.153895 1.935644,67.28112 1.79818,67.425593 1.663855,67.626394 1.398841,68.022567 1.25687,68.525542 1.256682,69.068933 c -2.23e-4,0.612872 0.180549,1.139534 0.519049,1.512262 0.38726,0.426429 0.886467,0.615989 1.71191,0.65004 0.289607,0.01191 0.87924,-2.49e-4 1.095447,-0.02266 0.02345,-0.0024 0.07363,-0.0069 0.111512,-0.0099 0.03788,-0.003 0.08216,-0.0072 0.09839,-0.0095 0.01622,-0.0024 0.07527,-0.0087 0.13119,-0.01438 0.10842,-0.01099 0.441396,-0.05768 0.577242,-0.08089 0.103487,-0.01766 0.103201,-0.01772 0.111027,0.0033 0.01349,0.03657 -0.0035,0.0468 -0.127425,0.0768 -0.318392,0.077 -0.656392,0.135956 -0.931456,0.162474 -0.05772,0.0057 -0.122665,0.01206 -0.144313,0.01438 -0.02165,0.0024 -0.08216,0.0067 -0.134469,0.0096 -0.05231,0.003 -0.124635,0.0072 -0.160711,0.0096 -0.126624,0.0082 -0.531362,0.01664 -0.53488,0.01122 z m 0.351212,-0.354965 c -0.341314,-0.02089 -0.436631,-0.04647 -0.419252,-0.11225 0.0086,-0.03249 0.06137,-0.03589 0.373951,-0.02409 0.481854,0.01823 0.902861,-0.0093 1.4273,-0.0931 0.08545,-0.01366 0.15998,-0.02226 0.165629,-0.01913 0.01259,0.007 0.01345,0.03828 0.0016,0.05275 -0.0095,0.01146 -0.02775,0.0171 -0.171538,0.05367 -0.249414,0.06338 -0.50516,0.105882 -0.770749,0.128097 -0.122165,0.01016 -0.5191,0.01936 -0.606759,0.0141 z m -3.104925,-0.44729 c -0.06002,-0.0954 -0.105504,-0.234071 -0.158518,-0.48329 -0.0597,-0.280647 -0.08673,-0.539411 -0.08637,-0.826901 3.91e-4,-0.318441 0.03592,-0.595476 0.117395,-0.915541 0.02095,-0.0823 0.02607,-0.09463 0.0392,-0.09463 0.0083,0 0.01509,0.0045 0.01509,0.0097 0,0.0051 -0.0087,0.05572 -0.01935,0.111966 -0.05061,0.267438 -0.06831,0.470205 -0.06802,0.778924 3.84e-4,0.400108 0.04149,0.727119 0.127571,1.014944 0.08677,0.290125 0.113259,0.405559 0.10007,0.436131 -0.01415,0.03282 -0.03198,0.02454 -0.06709,-0.0313 z m 0.959225,-0.28637 C 1.742371,70.251935 1.708531,70.184584 1.63426,69.99307 1.508578,69.668977 1.439052,69.357986 1.420336,69.036188 c -0.02126,-0.365288 0.04794,-0.720394 0.19606,-1.0063 0.02701,-0.05213 0.12105,-0.193198 0.150696,-0.226047 0.02037,-0.0226 0.04133,-0.02418 0.04133,-0.0033 0,0.0051 -0.01681,0.03436 -0.03737,0.06463 -0.102033,0.150275 -0.176398,0.346138 -0.21446,0.564865 -0.0328,0.188367 -0.0391,0.275268 -0.0351,0.483002 0.0023,0.130377 0.0073,0.206646 0.01763,0.279397 0.03604,0.253999 0.102537,0.505909 0.203796,0.771925 0.02294,0.06028 0.05298,0.140229 0.06675,0.177679 0.02811,0.07645 0.03922,0.15248 0.02431,0.1662 -0.01419,0.01308 -0.02177,0.01063 -0.04926,-0.01574 z M 8.397162,69.928837 C 8.331842,69.812558 8.195868,69.612612 8.134399,69.542497 7.92078,69.298809 7.633746,69.117469 7.340782,69.041107 7.007204,68.954157 6.649607,68.972527 6.22301,69.098527 6.01357,69.160387 5.826372,69.23306 5.219394,69.488185 4.747488,69.686535 4.426286,69.779036 4.005877,69.837657 3.833944,69.861627 3.352965,69.861507 3.18265,69.8374 2.985796,69.80958 2.758777,69.75785 2.608551,69.706617 c -0.05435,-0.01851 -0.0589,-0.02187 -0.0589,-0.04344 0,-0.01278 0.0042,-0.02567 0.0094,-0.02857 0.0052,-0.003 0.05608,0.0057 0.113154,0.01919 0.455496,0.107134 0.962564,0.130044 1.387327,0.0627 0.337566,-0.0535 0.611849,-0.141856 1.209081,-0.389436 0.676882,-0.280601 0.872332,-0.349233 1.180721,-0.414607 0.201458,-0.04271 0.260457,-0.04872 0.47557,-0.04844 0.216121,2.91e-4 0.303608,0.01051 0.459171,0.05356 0.459467,0.127269 0.863619,0.477418 1.066296,0.923846 0.04861,0.107075 0.0553,0.134968 0.03874,0.161548 -0.02228,0.03579 -0.03674,0.02414 -0.09194,-0.07415 z m -0.239798,-0.02954 c -0.08404,-0.06432 -0.23074,-0.182522 -0.239262,-0.192796 -0.0122,-0.0147 -0.01177,-0.03249 0.0012,-0.05141 0.01302,-0.01891 0.01661,-0.01726 0.116648,0.05214 0.04369,0.03032 0.100051,0.06861 0.125229,0.08511 0.06516,0.04271 0.0983,0.09145 0.08178,0.120339 -0.01231,0.02151 -0.04713,0.01607 -0.08564,-0.01336 z M 0.86561,69.69139 C 0.85482,69.68499 0.82687,69.55427 0.81323,69.446384 0.80533,69.383934 0.80228,69.30816 0.80248,69.178254 0.803262,68.728141 0.88831,68.266933 1.04716,67.853581 1.0871,67.74966 1.174351,67.569357 1.239287,67.456558 c 0.18221,-0.31651 0.441162,-0.588746 0.709562,-0.745945 0.06709,-0.0393 0.08613,-0.04231 0.09113,-0.01454 0.0045,0.02499 0.0043,0.02522 -0.100954,0.102822 C 1.345522,67.236627 0.957139,68.064352 0.9164,68.978331 0.9129,69.056841 0.91,69.24252 0.9099,69.39094 c -7.4e-5,0.167403 -0.0027,0.276847 -0.0069,0.288284 -0.0065,0.01772 -0.02029,0.0222 -0.03737,0.0122 z M 7.702192,69.59296 C 7.673342,69.58336 7.608392,69.55831 7.55788,69.53707 7.340571,69.44581 7.174407,69.411602 6.946497,69.411224 c -0.170977,-2.84e-4 -0.314058,0.02345 -0.469253,0.07779 -0.06172,0.02163 -0.07713,0.01966 -0.07713,-0.0097 0,-0.02465 0.0023,-0.0263 0.08059,-0.05886 0.0847,-0.03522 0.200219,-0.06908 0.309706,-0.09083 0.102789,-0.02038 0.384272,-0.02323 0.482126,-0.0045 0.208213,0.03918 0.314154,0.08022 0.42775,0.165616 0.06842,0.05146 0.09447,0.08293 0.08821,0.106603 -0.0049,0.01845 -0.02009,0.01772 -0.08631,-0.0039 z M 2.123854,69.369849 c -0.0042,-0.0072 -0.01044,-0.0384 -0.01388,-0.06909 -0.02013,-0.178531 0.01161,-0.410518 0.08608,-0.629682 0.139481,-0.410359 0.371218,-0.675899 0.676292,-0.774961 0.06239,-0.02026 0.0792,-0.01738 0.07615,0.01308 -0.0016,0.01607 -0.0131,0.02454 -0.06102,0.04486 -0.26811,0.113786 -0.484876,0.365447 -0.605785,0.703296 -0.05693,0.159084 -0.08087,0.279482 -0.102678,0.516501 -0.0091,0.09892 -0.01829,0.186497 -0.02044,0.194602 -0.0048,0.01835 -0.02459,0.01914 -0.03471,0.0018 z m 0.239649,-0.07743 c -0.0179,-0.026 -0.0147,-0.20759 0.0058,-0.324978 0.04854,-0.278528 0.177851,-0.509635 0.430048,-0.768577 0.0429,-0.04407 0.120132,-0.102231 0.135705,-0.102255 0.02881,-2.8e-5 -0.01915,0.08554 -0.08713,0.155388 -0.227476,0.233743 -0.322641,0.376977 -0.393882,0.592818 -0.03947,0.119569 -0.04951,0.180341 -0.05433,0.328578 -0.0035,0.108163 -0.0059,0.129028 -0.01485,0.131512 -0.0059,0.0018 -0.01548,-0.0039 -0.02131,-0.0125 z m 2.608268,-0.04895 c -0.0045,-0.003 -0.0082,-0.01544 -0.0082,-0.02851 0,-0.02107 0.01,-0.03055 0.09002,-0.08583 0.460018,-0.317572 0.990642,-0.522907 1.510511,-0.584525 0.04871,-0.0058 0.09889,-0.0125 0.111512,-0.01511 0.04283,-0.0086 0.475054,-0.01191 0.567404,-0.0045 0.05051,0.0039 0.105117,0.01249 0.121351,0.01857 0.04313,0.01624 0.07743,0.03941 0.08158,0.05515 0.01509,0.05713 -0.05604,0.07785 -0.211825,0.06166 -0.132105,-0.0138 -0.452757,-0.01438 -0.588032,-0.0011 -0.504781,0.04913 -1.037628,0.22917 -1.535103,0.518768 -0.0678,0.03947 -0.12501,0.07142 -0.127144,0.07099 -0.002,-4.13e-4 -0.0076,-0.003 -0.01208,-0.0057 z M 1.901569,68.580774 c -0.01313,-0.01908 -0.0093,-0.03822 0.0258,-0.127153 0.04928,-0.124973 0.08671,-0.197497 0.156208,-0.302733 0.106219,-0.160833 0.210234,-0.27094 0.361129,-0.382285 0.134626,-0.09935 0.268759,-0.163559 0.42309,-0.202558 0.10097,-0.0255 0.334321,-0.02284 0.439133,0.0051 0.212759,0.05656 0.399676,0.171055 0.556282,0.340799 0.05634,0.06106 0.06623,0.08237 0.04952,0.106651 -0.01317,0.01913 -0.02435,0.01366 -0.09471,-0.04605 -0.434848,-0.36927 -0.915898,-0.411199 -1.326288,-0.115605 -0.190122,0.136931 -0.32372,0.296485 -0.497698,0.594345 -0.0453,0.07756 -0.08287,0.141043 -0.08348,0.141043 -7.82e-4,0 -0.0047,-0.0051 -0.009,-0.01146 z m 3.724142,-0.279796 c -0.0079,-0.0138 -0.007,-0.01817 0.0062,-0.03373 0.0265,-0.03118 0.165722,-0.156625 0.227058,-0.204586 0.03248,-0.02538 0.0882,-0.07761 0.123849,-0.116067 0.285435,-0.307814 0.606606,-0.431257 0.931875,-0.358173 0.187331,0.04208 0.377613,0.150787 0.425103,0.242829 0.0267,0.05174 0.02865,0.07363 0.0091,0.102385 -0.0093,0.01366 -0.02963,0.04827 -0.04509,0.07679 -0.105429,0.194319 -0.322105,0.271572 -0.762631,0.271896 -0.174513,1.41e-4 -0.205695,-0.0024 -0.275502,-0.02074 -0.09868,-0.02618 -0.181667,-0.06089 -0.249262,-0.104193 -0.02885,-0.01851 -0.05747,-0.03582 -0.06357,-0.03856 -0.0061,-0.003 -0.07632,0.03844 -0.157427,0.0924 -0.08049,0.05356 -0.149558,0.0992 -0.153491,0.101464 -0.0039,0.0024 -0.01122,-0.003 -0.01618,-0.01181 z m 1.209837,-0.189172 c 0.15686,-0.02312 0.234544,-0.04868 0.306117,-0.100637 0.0391,-0.0284 0.104507,-0.08915 0.104582,-0.09714 0,-0.0033 -0.03315,-0.03026 -0.07374,-0.05945 -0.25641,-0.184294 -0.5528,-0.222053 -0.815027,-0.103839 -0.05862,0.02642 -0.175975,0.09825 -0.171398,0.104914 0.0016,0.0024 0.02463,-0.0045 0.0511,-0.01488 0.108628,-0.04322 0.261231,-0.06686 0.323216,-0.05003 0.09163,0.02481 0.12988,0.08503 0.0737,0.115984 -0.01239,0.0069 -0.06793,0.01278 -0.137471,0.0146 -0.06795,0.0018 -0.143179,0.0096 -0.180127,0.0188 -0.06622,0.01642 -0.178884,0.05958 -0.217833,0.08353 l -0.02267,0.01395 0.04563,0.01948 c 0.07833,0.03345 0.150586,0.05821 0.197385,0.06766 0.06319,0.01278 0.399456,0.0045 0.51654,-0.01293 z"
         id="path37587-8-72" /><text
         xml:space="preserve"
         style="font-style:normal;font-variant:normal;font-weight:normal;font-stretch:normal;font-size:5.29167px;font-family:'Noto Sans CJK TC';-inkscape-font-specification:'Noto Sans CJK TC';fill:#6f5dff;fill-opacity:1;stroke:none;stroke-width:0.132292;stroke-linecap:round;stroke-linejoin:bevel;stroke-dasharray:none;stroke-opacity:1;paint-order:stroke fill markers;filter:url(#filter37812)"
         x="2.121958"
         y="74.083336"
         id="text9025-4-7-8-34"><tspan
           sodipodi:role="line"
           id="tspan9023-8-6-0-9"
           style="font-style:normal;font-variant:normal;font-weight:normal;font-stretch:normal;font-size:5.29167px;font-family:'Noto Sans CJK TC';-inkscape-font-specification:'Noto Sans CJK TC';fill:#6f5dff;fill-opacity:1;stroke:none;stroke-width:0.132292"
           x="2.121958"
           y="74.083336">西</tspan></text><text
         xml:space="preserve"
         style="font-style:normal;font-variant:normal;font-weight:normal;font-stretch:normal;font-size:5.29167px;font-family:'Noto Sans CJK TC';-inkscape-font-specification:'Noto Sans CJK TC';fill:#000563;fill-opacity:1;stroke:none;stroke-width:0.132292;stroke-linecap:round;stroke-linejoin:bevel;stroke-dasharray:none;stroke-opacity:1;paint-order:stroke fill markers"
         x="2.121958"
         y="74.083336"
         id="text9025-4-7-8-34-3"><tspan
           sodipodi:role="line"
           id="tspan9023-8-6-0-9-7"
           style="font-style:normal;font-variant:normal;font-weight:normal;font-stretch:normal;font-size:5.29167px;font-family:'Noto Sans CJK TC';-inkscape-font-specification:'Noto Sans CJK TC';fill:#000563;fill-opacity:1;stroke:none;stroke-width:0.132292"
           x="2.121958"
           y="74.083336">西</tspan></text><path
         style="fill:#999999;fill-opacity:1;stroke:#000000;stroke-width:0.132292;stroke-linecap:round;stroke-linejoin:bevel;stroke-dasharray:none;stroke-opacity:1;paint-order:stroke fill markers"
         d="M 9.2713785,78.034996 10.29399,79.075679"
         id="path5834-11"
         sodipodi:nodetypes="cc" /></g></g><style
     type="text/css"
     id="style22731">
	.st0{fill:#FFFFFF;}
	.st1{fill:none;}
</style></svg>
