<?xml version="1.0" encoding="UTF-8" standalone="no"?>
<!-- Created with Inkscape (http://www.inkscape.org/) -->

<svg
   width="40.011768"
   height="50.003822"
   viewBox="0 0 10.586447 13.230177"
   version="1.1"
   id="svg5"
   xml:space="preserve"
   inkscape:version="1.2.2 (b0a8486541, 2022-12-01)"
   sodipodi:docname="tilemap-select.svg"
   inkscape:export-filename="pokus-tile.png"
   inkscape:export-xdpi="96"
   inkscape:export-ydpi="96"
   xmlns:inkscape="http://www.inkscape.org/namespaces/inkscape"
   xmlns:sodipodi="http://sodipodi.sourceforge.net/DTD/sodipodi-0.dtd"
   xmlns:xlink="http://www.w3.org/1999/xlink"
   xmlns="http://www.w3.org/2000/svg"
   xmlns:svg="http://www.w3.org/2000/svg"><sodipodi:namedview
     id="namedview7"
     pagecolor="#ffffff"
     bordercolor="#000000"
     borderopacity="0.25"
     inkscape:showpageshadow="2"
     inkscape:pageopacity="0.0"
     inkscape:pagecheckerboard="0"
     inkscape:deskcolor="#d1d1d1"
     inkscape:document-units="px"
     showgrid="false"
     showguides="true"
     inkscape:zoom="5.6568544"
     inkscape:cx="72.831997"
     inkscape:cy="353.02305"
     inkscape:window-width="2560"
     inkscape:window-height="1011"
     inkscape:window-x="0"
     inkscape:window-y="0"
     inkscape:window-maximized="1"
     inkscape:current-layer="layer1"><sodipodi:guide
       position="-5.8208324,36.97653"
       orientation="-1,0"
       id="guide26882"
       inkscape:locked="false"
       inkscape:label=""
       inkscape:color="rgb(0,134,229)" /><sodipodi:guide
       position="4.7625006,34.755362"
       orientation="-1,0"
       id="guide26884"
       inkscape:locked="false"
       inkscape:label=""
       inkscape:color="rgb(0,134,229)" /><sodipodi:guide
       position="15.345833,35.082767"
       orientation="-1,0"
       id="guide26886"
       inkscape:locked="false"
       inkscape:label=""
       inkscape:color="rgb(0,134,229)" /><sodipodi:guide
       position="25.929166,34.755362"
       orientation="-1,0"
       id="guide26888"
       inkscape:locked="false"
       inkscape:label=""
       inkscape:color="rgb(0,134,229)" /><sodipodi:guide
       position="-18.785415,35.971438"
       orientation="-1,0"
       id="guide26892"
       inkscape:locked="false"
       inkscape:label=""
       inkscape:color="rgb(0,134,229)" /><sodipodi:guide
       position="-8.2020824,36.298843"
       orientation="-1,0"
       id="guide26894"
       inkscape:locked="false"
       inkscape:label=""
       inkscape:color="rgb(0,134,229)" /><sodipodi:guide
       position="2.3812506,32.323209"
       orientation="-1,0"
       id="guide26896"
       inkscape:locked="false"
       inkscape:label=""
       inkscape:color="rgb(0,134,229)" /><sodipodi:guide
       position="12.964584,35.644033"
       orientation="-1,0"
       id="guide26898"
       inkscape:locked="false"
       inkscape:label=""
       inkscape:color="rgb(0,134,229)" /><sodipodi:guide
       position="23.547916,35.223083"
       orientation="-1,0"
       id="guide26900"
       inkscape:locked="false"
       inkscape:label=""
       inkscape:color="rgb(0,134,229)" /><sodipodi:guide
       position="-14.022915,33.819918"
       orientation="-1,0"
       id="guide26902"
       inkscape:locked="false"
       inkscape:label=""
       inkscape:color="rgb(0,134,229)" /><sodipodi:guide
       position="-3.4395824,33.352197"
       orientation="-1,0"
       id="guide26904"
       inkscape:locked="false"
       inkscape:label=""
       inkscape:color="rgb(0,134,229)" /><sodipodi:guide
       position="7.1578316,24.685033"
       orientation="-1,0"
       id="guide26906"
       inkscape:locked="false"
       inkscape:label=""
       inkscape:color="rgb(0,134,229)" /><sodipodi:guide
       position="17.727083,33.960235"
       orientation="-1,0"
       id="guide26908"
       inkscape:locked="false"
       inkscape:label=""
       inkscape:color="rgb(0,134,229)" /><sodipodi:guide
       position="28.310416,36.298843"
       orientation="-1,0"
       id="guide26910"
       inkscape:locked="false"
       inkscape:label=""
       inkscape:color="rgb(0,134,229)" /><sodipodi:guide
       position="-26.987499,33.773146"
       orientation="-1,0"
       id="guide26912"
       inkscape:locked="false"
       inkscape:label=""
       inkscape:color="rgb(0,134,229)" /><sodipodi:guide
       position="-22.114932,33.603093"
       orientation="0,1"
       id="guide26914"
       inkscape:locked="false"
       inkscape:label=""
       inkscape:color="rgb(0,134,229)" /><sodipodi:guide
       position="-23.893554,36.645801"
       orientation="0,1"
       id="guide26916"
       inkscape:locked="false"
       inkscape:label=""
       inkscape:color="rgb(0,134,229)" /><sodipodi:guide
       position="-24.313224,30.560385"
       orientation="0,1"
       id="guide27644"
       inkscape:locked="false"
       inkscape:label=""
       inkscape:color="rgb(0,134,229)" /><sodipodi:guide
       position="-29.368749,38.630176"
       orientation="-1,0"
       id="guide28435"
       inkscape:locked="false"
       inkscape:label=""
       inkscape:color="rgb(0,134,229)" /><sodipodi:guide
       position="-24.606249,37.571843"
       orientation="-1,0"
       id="guide28437"
       inkscape:locked="false"
       inkscape:label=""
       inkscape:color="rgb(0,134,229)" /><sodipodi:guide
       position="-34.088607,20.373927"
       orientation="0,1"
       id="guide28619"
       inkscape:locked="false"
       inkscape:label=""
       inkscape:color="rgb(0,134,229)" /><sodipodi:guide
       position="-32.964796,23.416635"
       orientation="0,1"
       id="guide28621"
       inkscape:locked="false"
       inkscape:label=""
       inkscape:color="rgb(0,134,229)" /><sodipodi:guide
       position="-34.182151,17.331219"
       orientation="0,1"
       id="guide28623"
       inkscape:locked="false"
       inkscape:label=""
       inkscape:color="rgb(0,134,229)" /><sodipodi:guide
       position="-33.245191,7.141531"
       orientation="0,-1"
       id="guide30297"
       inkscape:locked="false" /><sodipodi:guide
       position="-36.757452,-6.089436"
       orientation="0,-1"
       id="guide31859"
       inkscape:locked="false" /><sodipodi:guide
       position="8.8157196,60.063854"
       orientation="0,-1"
       id="guide33317"
       inkscape:locked="false" /><sodipodi:guide
       position="-30.170753,63.130445"
       orientation="0,1"
       id="guide36845"
       inkscape:locked="false"
       inkscape:label=""
       inkscape:color="rgb(0,134,229)" /><sodipodi:guide
       position="17.828498,76.289044"
       orientation="0,-1"
       id="guide36847"
       inkscape:locked="false" /></sodipodi:namedview><defs
     id="defs2"><linearGradient
       inkscape:collect="always"
       id="linearGradient5767"><stop
         style="stop-color:#ff9999;stop-opacity:1;"
         offset="0"
         id="stop5763" /><stop
         style="stop-color:#ffcbcb;stop-opacity:1;"
         offset="1"
         id="stop5765" /></linearGradient><linearGradient
       inkscape:collect="always"
       id="linearGradient5759"><stop
         style="stop-color:#ff3333;stop-opacity:1;"
         offset="0"
         id="stop5755" /><stop
         style="stop-color:#cc0000;stop-opacity:1;"
         offset="1"
         id="stop5757" /></linearGradient><linearGradient
       inkscape:collect="always"
       xlink:href="#linearGradient5759"
       id="linearGradient8740"
       gradientUnits="userSpaceOnUse"
       gradientTransform="translate(28.547396,64.692982)"
       x1="12.900038"
       y1="13.800077"
       x2="12.94384"
       y2="13.756275" /><linearGradient
       inkscape:collect="always"
       xlink:href="#linearGradient5767"
       id="linearGradient8742"
       gradientUnits="userSpaceOnUse"
       gradientTransform="translate(28.547396,64.692982)"
       x1="12.435538"
       y1="13.368127"
       x2="3.4919937"
       y2="1.6133311" /><filter
       inkscape:collect="always"
       style="color-interpolation-filters:sRGB"
       id="filter32067"
       x="-0.044179715"
       y="-0.052543517"
       width="1.0883594"
       height="1.105087"><feGaussianBlur
         inkscape:collect="always"
         stdDeviation="0.1542544"
         id="feGaussianBlur32069" /></filter></defs><g
     inkscape:label="tilemap"
     inkscape:groupmode="layer"
     id="layer1"
     transform="translate(-31.749998,-66.14583)"><g
       id="g46298"
       inkscape:label="seasonO"><path
         style="fill:url(#linearGradient8740);fill-opacity:1;stroke:#000000;stroke-width:0.264583;stroke-linecap:round;stroke-linejoin:bevel;stroke-dasharray:none;stroke-opacity:1;paint-order:stroke fill markers"
         d="m 40.952421,66.476626 1.002942,1.000246 c 0.151069,0.151069 0.24879,0.326524 0.24879,0.479573 l -4.96e-4,10.61911 c 0,0.277758 -0.19657,0.668161 -0.695831,0.668161 l -7.949339,-0.0015 c -0.23838,0 -0.375639,-0.154451 -0.501405,-0.280218 l -1.042227,-1.037746 z"
         id="path2981-3-3"
         sodipodi:nodetypes="ccccccccc" /><rect
         style="fill:url(#linearGradient8742);fill-opacity:1;stroke:#000000;stroke-width:0.264583;stroke-linecap:round;stroke-linejoin:round;stroke-dasharray:none;stroke-opacity:1;paint-order:stroke fill markers"
         id="rect2763-7-0"
         width="9.260416"
         height="11.90625"
         x="31.88229"
         y="66.278122"
         ry="0.66145831" /><path
         style="fill:#999999;fill-opacity:1;stroke:#000000;stroke-width:0.132292;stroke-linecap:round;stroke-linejoin:bevel;stroke-dasharray:none;stroke-opacity:1;paint-order:stroke fill markers"
         d="m 41.021376,78.034996 1.022612,1.040683"
         id="path5834-5-44"
         sodipodi:nodetypes="cc" /><path
         style="fill:#ffa40d;fill-opacity:1;stroke-width:0.00930914;filter:url(#filter32067)"
         d="m 35.357951,74.7176 c -0.04064,-0.08951 -0.05705,-0.143222 -0.06851,-0.224443 -0.03308,-0.234215 0.07913,-0.512633 0.246002,-0.610437 0.04153,-0.02432 0.140999,-0.05168 0.18808,-0.05157 l 0.02793,3.3e-5 -0.03901,0.03276 c -0.05575,0.04672 -0.120973,0.136636 -0.161769,0.222935 -0.04588,0.09705 -0.0567,0.139225 -0.0149,0.05809 0.05296,-0.102793 0.143992,-0.204864 0.255304,-0.286242 0.01838,-0.0134 0.0334,-0.01869 0.03817,-0.0134 0.01872,0.02083 0.0407,0.0975 0.04526,0.157735 0.01234,0.16306 -0.07309,0.3229 -0.243825,0.456226 -0.135106,0.105495 -0.228316,0.226841 -0.228316,0.297231 0,0.03963 -0.01438,0.02713 -0.0444,-0.03896 z m -0.704988,-0.08376 c -0.02048,-9.23e-4 -0.05145,-0.0056 -0.06885,-0.0079 l -0.03161,-0.0056 0.02695,-0.01655 c 0.06016,-0.0367 0.12336,-0.127662 0.152634,-0.219567 0.03574,-0.11225 0.119272,-0.222529 0.203004,-0.268094 0.05515,-0.02995 0.132683,-0.04661 0.180627,-0.03862 l 0.03454,0.0056 -0.02333,0.06192 c -0.02898,0.0769 -0.05814,0.127202 -0.112909,0.194461 l -0.04259,0.05224 0.03876,-0.03119 c 0.04999,-0.04019 0.105528,-0.112475 0.134546,-0.175073 0.01262,-0.02725 0.02549,-0.04537 0.02862,-0.04031 0.01317,0.02128 0.01666,0.122743 0.0057,0.16806 -0.02343,0.09773 -0.121565,0.204627 -0.243949,0.265852 -0.08243,0.04121 -0.18298,0.06046 -0.282253,0.05393 z m -0.55855,-0.155213 c -0.06524,-0.0152 -0.141917,-0.04897 -0.197997,-0.08703 l -0.03974,-0.02702 0.04904,-0.01126 c 0.06691,-0.01498 0.134944,-0.05573 0.209698,-0.125637 0.126073,-0.117811 0.218174,-0.160054 0.333248,-0.152837 0.06569,0.0045 0.171711,0.04211 0.171711,0.06159 0,0.01126 -0.09363,0.09221 -0.145845,0.126425 -0.02134,0.01385 -0.06322,0.0358 -0.09309,0.04852 -0.0508,0.02162 -0.0519,0.02274 -0.01707,0.01711 0.0507,-0.0079 0.157979,-0.05922 0.211985,-0.100653 l 0.04443,-0.03423 -0.006,0.02567 c -0.03839,0.16502 -0.169797,0.257566 -0.380494,0.268015 -0.05369,0.0023 -0.104211,-5.75e-4 -0.139898,-0.0079 z m 3.942431,-0.05269 c -0.119804,-0.02308 -0.283838,-0.140419 -0.330957,-0.236737 -0.02558,-0.05224 -0.03925,-0.142277 -0.02827,-0.18604 0.0061,-0.02432 0.0071,-0.02342 0.04174,0.0295 0.03807,0.05843 0.110325,0.133225 0.157216,0.162903 0.01942,0.01227 0.01002,-9.23e-4 -0.02878,-0.04087 -0.05264,-0.05404 -0.126232,-0.168014 -0.141013,-0.21842 -0.0052,-0.01768 -0.0016,-0.02128 0.02797,-0.0268 0.0542,-0.01013 0.132464,0.0023 0.189148,0.02972 0.08476,0.04132 0.149326,0.113825 0.210967,0.236883 0.06166,0.123126 0.109693,0.185105 0.164391,0.212171 0.02466,0.01216 0.03396,0.02083 0.02551,0.02387 -0.06558,0.02342 -0.203502,0.03006 -0.287919,0.01374 z m -0.864026,-0.141736 c -0.101463,-0.220007 -0.09817,-0.436704 0.0099,-0.652838 0.03421,-0.06845 0.112947,-0.152297 0.174275,-0.18569 0.04242,-0.02308 0.147051,-0.05168 0.190492,-0.05213 0.0134,-1.13e-4 0.0021,0.01599 -0.04385,0.0626 -0.07305,0.0742 -0.101408,0.114547 -0.142412,0.202477 -0.04445,0.09536 -0.04791,0.122327 -0.0056,0.04436 0.03898,-0.07194 0.08056,-0.126683 0.143865,-0.189305 0.04032,-0.03985 0.129819,-0.111011 0.139632,-0.111011 0.003,0 0.01448,0.02409 0.02549,0.05348 0.02826,0.07555 0.03364,0.160831 0.01481,0.235083 -0.03359,0.132403 -0.100012,0.225659 -0.240606,0.337807 -0.132513,0.10572 -0.192257,0.179735 -0.213597,0.264738 -0.0061,0.02443 -0.01348,0.04729 -0.01631,0.05089 -0.0029,0.0023 -0.01904,-0.02376 -0.03602,-0.06057 z m 1.290834,-0.268352 c -0.351857,-0.02894 -0.585378,-0.183968 -0.680826,-0.451903 -0.0438,-0.122923 -0.044,-0.122405 0.02583,-0.06902 0.03355,0.02567 0.08025,0.05798 0.103783,0.07172 0.11969,0.07014 0.326843,0.136568 0.459538,0.147343 l 0.0605,0.0056 -0.07448,-0.01756 c -0.1408,-0.03344 -0.251797,-0.0832 -0.390984,-0.17549 -0.102072,-0.06767 -0.230463,-0.176605 -0.225536,-0.191388 0.006,-0.01779 0.118228,-0.08861 0.173718,-0.109547 0.192422,-0.07251 0.417989,-0.05461 0.617056,0.04897 0.08393,0.04368 0.164903,0.101892 0.291709,0.209649 0.1667,0.14168 0.301993,0.206711 0.449609,0.216078 l 0.08705,0.0056 -0.05912,0.04774 c -0.249042,0.200855 -0.528022,0.288381 -0.837857,0.26288 z m -3.736216,-0.07037 c -0.125668,-0.01137 -0.289237,-0.05415 -0.400792,-0.104706 -0.154957,-0.07026 -0.353761,-0.240814 -0.457939,-0.392897 -0.06953,-0.101553 -0.06982,-0.103693 -0.01013,-0.08005 0.04023,0.01599 0.06993,0.01959 0.156692,0.0197 0.131578,1.46e-4 0.234239,-0.02533 0.413539,-0.102342 0.187467,-0.08061 0.270165,-0.09953 0.43825,-0.100428 0.161432,-8.67e-4 0.217663,0.01126 0.335129,0.06868 0.09077,0.04481 0.173584,0.110786 0.22602,0.180286 0.02161,0.0286 0.03929,0.05382 0.03929,0.05584 0,0.0079 -0.149212,0.07149 -0.232917,0.09896 -0.140931,0.04639 -0.282596,0.06823 -0.416032,0.06384 -0.06252,-0.0023 -0.112193,-0.0023 -0.110392,-2.93e-4 0.0018,0.0023 0.04039,0.009 0.08575,0.01666 0.177212,0.02882 0.392769,0.01126 0.547581,-0.04582 0.03566,-0.01295 0.06644,-0.02207 0.06841,-0.02004 0.0081,0.0079 -0.072,0.115842 -0.124888,0.167778 -0.13897,0.136479 -0.328162,0.195846 -0.557585,0.175017 z m 4.47082,-0.46413 c -0.06524,-0.01588 -0.114836,-0.04019 -0.190359,-0.09367 -0.113419,-0.08039 -0.165082,-0.169095 -0.164712,-0.282921 3.45e-4,-0.10358 0.01141,-0.114479 0.04532,-0.04503 0.02773,0.05674 0.120421,0.167035 0.156735,0.186467 0.01081,0.0056 -0.0025,-0.0143 -0.02954,-0.04436 -0.05064,-0.05652 -0.117896,-0.179802 -0.128538,-0.235432 l -0.0061,-0.03152 0.07052,0.0045 c 0.07995,0.0056 0.145628,0.0322 0.208438,0.08602 0.05162,0.04425 0.09023,0.106846 0.138041,0.224229 0.04786,0.11744 0.07945,0.165695 0.133469,0.203907 0.03828,0.02713 0.0392,0.02882 0.01861,0.03468 -0.03863,0.01126 -0.197097,0.0068 -0.251961,-0.0068 z m -3.074445,-0.213522 c -0.0051,-0.0023 -0.02165,-0.0056 -0.03675,-0.009 -0.02666,-0.0068 -0.02567,-0.0079 0.03483,-0.03749 0.03425,-0.01723 0.08705,-0.05044 0.117338,-0.07363 0.06285,-0.0483 0.164866,-0.156947 0.19037,-0.202624 0.01297,-0.02331 0.0055,-0.01779 -0.03025,0.02184 -0.08203,0.09097 -0.226664,0.186355 -0.357083,0.235443 l -0.06247,0.02353 -0.0044,-0.02083 c -0.03192,-0.152882 0.02279,-0.322732 0.143407,-0.445238 0.07708,-0.07836 0.145326,-0.121786 0.27838,-0.177404 0.05823,-0.02432 0.129223,-0.05798 0.157762,-0.07487 0.06787,-0.04008 0.16393,-0.135701 0.17938,-0.178439 0.0068,-0.01858 0.01473,-0.03378 0.0178,-0.03378 0.003,0 0.01081,0.02545 0.01724,0.05641 0.05785,0.280083 -0.01851,0.549741 -0.214643,0.757983 -0.07829,0.08309 -0.144644,0.124961 -0.235875,0.148717 -0.04792,0.01238 -0.168739,0.01846 -0.195105,0.009 z m -1.956017,-0.06012 C 34.05828,73.181582 33.9276,73.067936 33.865452,72.94481 c -0.03397,-0.06721 -0.05108,-0.131997 -0.05995,-0.226627 l -0.0069,-0.07363 0.04828,0.04335 c 0.0556,0.0501 0.112385,0.07363 0.239086,0.09953 0.109874,0.02252 0.174078,0.05269 0.240755,0.113702 0.05894,0.05382 0.09608,0.122788 0.104503,0.193887 l 0.0059,0.04965 -0.04688,-0.0068 c -0.0702,-0.009 -0.177896,-0.04875 -0.232991,-0.08523 -0.05026,-0.03333 -0.06504,-0.03513 -0.02793,-0.0023 0.04083,0.0349 0.142706,0.09063 0.195615,0.106958 0.02951,0.009 0.05045,0.0197 0.04654,0.02364 -0.01126,0.01126 -0.115155,0.03603 -0.14637,0.03501 -0.01556,-5.63e-4 -0.04136,-0.0045 -0.05732,-0.0079 z m -1.046442,-0.139068 c -0.0627,-0.01689 -0.170902,-0.06699 -0.194907,-0.09029 -0.01184,-0.01148 -0.0093,-0.01317 0.01912,-0.01317 0.05669,0 0.127915,-0.04458 0.232432,-0.145249 0.108264,-0.104368 0.17816,-0.146836 0.263511,-0.160223 0.06514,-0.01013 0.140443,-1.8e-4 0.190642,0.02545 0.04636,0.02364 0.04448,0.0313 -0.02343,0.09457 -0.05411,0.05044 -0.11873,0.09559 -0.172681,0.120671 -0.0324,0.01509 -0.03461,0.01745 -0.01189,0.01295 0.04775,-0.009 0.143014,-0.05956 0.197275,-0.103806 l 0.05191,-0.04222 -0.0066,0.03592 c -0.02532,0.137492 -0.134063,0.233056 -0.304994,0.268026 -0.09141,0.01869 -0.16371,0.01779 -0.240357,-0.0023 z m 6.311867,-0.02522 c -0.142712,-0.03794 -0.233215,-0.122979 -0.26402,-0.248153 -0.0035,-0.01407 -0.0038,-0.02544 -7.18e-4,-0.02544 0.003,0 0.02392,0.01497 0.04633,0.03333 0.04299,0.03524 0.172894,0.09671 0.204434,0.09683 0.01025,2.2e-5 -0.015,-0.01644 -0.05608,-0.03648 -0.06678,-0.03265 -0.19992,-0.137829 -0.19992,-0.158016 0,-0.01295 0.08175,-0.04751 0.135849,-0.05764 0.115443,-0.02128 0.237999,0.02848 0.372638,0.151464 0.08986,0.08208 0.149089,0.116798 0.214553,0.125772 l 0.04336,0.0068 -0.02247,0.01813 c -0.03634,0.0295 -0.143952,0.0805 -0.201303,0.09525 -0.06679,0.01745 -0.20535,0.01689 -0.272658,-8.55e-4 z m -4.718772,-0.130241 c -0.112882,-0.0304 -0.232643,-0.125512 -0.317345,-0.25215 -0.102252,-0.152872 -0.142069,-0.279003 -0.143514,-0.454561 -8.61e-4,-0.103355 0.01749,-0.256339 0.03066,-0.255776 0.0032,1.35e-4 0.01357,0.01745 0.02324,0.03828 0.02307,0.04988 0.10081,0.126886 0.171908,0.170074 0.0313,0.01903 0.100541,0.05258 0.153864,0.07465 0.131563,0.05427 0.203111,0.09964 0.280416,0.177212 0.107566,0.108084 0.155764,0.219872 0.155319,0.360404 -3.74e-4,0.115503 -4.31e-4,0.11556 -0.09215,0.07791 -0.134867,-0.05528 -0.238552,-0.124803 -0.331758,-0.222686 -0.04203,-0.04413 -0.05052,-0.0501 -0.03723,-0.02612 0.0249,0.04492 0.135277,0.162035 0.191346,0.203186 0.0265,0.01937 0.07733,0.05066 0.11293,0.06947 l 0.06474,0.03411 -0.04837,0.01013 c -0.06486,0.01385 -0.152766,0.01216 -0.214043,-0.0045 z m 1.069616,-0.06114 c -0.164584,-0.190756 -0.254253,-0.35143 -0.303011,-0.542964 -0.02516,-0.09874 -0.02863,-0.08692 -0.0084,0.02882 0.03433,0.197061 0.110437,0.374297 0.22042,0.513229 0.02533,0.03198 0.04195,0.0581 0.03693,0.0581 -0.005,0 -0.03785,-0.0079 -0.07295,-0.0197 -0.252141,-0.0778 -0.401198,-0.246218 -0.468231,-0.529015 -0.06906,-0.291365 -0.03284,-0.558794 0.112272,-0.828924 0.03674,-0.06845 0.146505,-0.222969 0.158596,-0.223351 0.0034,-1.13e-4 0.0041,0.01554 0.0016,0.03479 -0.0073,0.05641 0.02118,0.167834 0.06639,0.259424 0.04439,0.08996 0.112497,0.184632 0.201974,0.280838 0.117869,0.126728 0.21229,0.290757 0.251086,0.43622 0.02589,0.09716 0.02829,0.261507 0.005,0.347737 -0.02816,0.104481 -0.106057,0.251284 -0.133381,0.251341 -0.006,0 -0.03667,-0.02995 -0.06828,-0.06654 z m 1.331175,0.017 c 0,-8.56e-4 0.02676,-0.02972 0.05948,-0.06395 0.03273,-0.03423 0.07964,-0.09457 0.104289,-0.134057 0.04886,-0.07847 0.111372,-0.224511 0.119957,-0.280399 0.0045,-0.02893 0.0015,-0.02511 -0.01651,0.02173 -0.04747,0.123238 -0.12831,0.236242 -0.258271,0.360989 -0.05126,0.0492 -0.09881,0.08939 -0.105663,0.08939 -0.01617,0 -0.05697,-0.09142 -0.07503,-0.167957 -0.02877,-0.122045 -0.01168,-0.249731 0.05082,-0.380084 0.05042,-0.105157 0.07062,-0.12987 0.255825,-0.313061 0.142045,-0.140486 0.16436,-0.166798 0.19889,-0.234452 0.02139,-0.04188 0.04411,-0.102004 0.05051,-0.133585 l 0.01161,-0.05742 0.03894,0.06845 c 0.05287,0.09288 0.09307,0.196825 0.115765,0.299381 0.01576,0.07104 0.01818,0.107408 0.01444,0.215886 -0.0055,0.160696 -0.02712,0.251048 -0.09229,0.386321 -0.03978,0.08253 -0.0581,0.108647 -0.117969,0.167812 -0.07608,0.07521 -0.139232,0.111799 -0.231064,0.13399 -0.05208,0.01261 -0.12375,0.02488 -0.12375,0.02105 z m 1.455634,-0.04785 c -0.02629,-0.0079 -0.06189,-0.01925 -0.07913,-0.02657 l -0.03133,-0.01317 0.04189,-0.01126 c 0.110921,-0.02894 0.222424,-0.09052 0.329894,-0.182425 0.06714,-0.05731 0.06756,-0.07363 4.88e-4,-0.01903 -0.08707,0.07093 -0.264072,0.144629 -0.402534,0.167609 l -0.03957,0.0068 1.04e-4,-0.04503 c 2.47e-4,-0.107409 0.05151,-0.221144 0.139686,-0.309818 0.10125,-0.101892 0.190505,-0.143797 0.425199,-0.199832 0.12771,-0.03051 0.207442,-0.07003 0.276385,-0.137075 0.03088,-0.03006 0.05738,-0.0546 0.05887,-0.0546 0.0077,0 9.28e-4,0.12728 -0.01081,0.204797 -0.01476,0.09694 -0.0355,0.164119 -0.07475,0.242243 -0.08219,0.163601 -0.245388,0.31708 -0.391102,0.367789 -0.06263,0.02184 -0.182647,0.02657 -0.243288,0.009 z m -0.684201,-0.09795 c 0.06345,-0.0465 0.118803,-0.105944 0.162703,-0.174566 0.03825,-0.05978 0.05638,-0.09559 0.04845,-0.09559 -0.002,0 -0.01324,0.01576 -0.02501,0.0349 -0.04583,0.07476 -0.151839,0.171369 -0.251392,0.229172 l -0.04321,0.02511 -0.01081,-0.03051 c -0.03097,-0.08782 -0.01876,-0.204976 0.03176,-0.30465 0.03603,-0.07116 0.127948,-0.162925 0.217848,-0.21762 0.129144,-0.07859 0.209478,-0.161563 0.239399,-0.247264 l 0.01176,-0.03366 0.01476,0.0349 c 0.02783,0.06575 0.04373,0.142085 0.04897,0.235206 0.0044,0.07679 0.0017,0.107071 -0.0147,0.172079 -0.04363,0.172495 -0.140467,0.311574 -0.25611,0.367812 -0.04377,0.02128 -0.07103,0.02747 -0.134985,0.03062 l -0.08013,0.0045 z m -4.324067,-0.222776 c -0.130937,-0.03558 -0.241252,-0.107184 -0.360417,-0.233811 -0.161541,-0.171729 -0.241797,-0.351261 -0.26798,-0.599527 -0.0057,-0.05382 -0.0073,-0.121494 -0.0037,-0.15044 l 0.0065,-0.05269 0.01643,0.02668 c 0.02639,0.0429 0.103107,0.109097 0.168264,0.145192 0.07242,0.03997 0.177536,0.07521 0.298157,0.09964 0.195953,0.03974 0.333334,0.109097 0.451542,0.227911 0.112887,0.113432 0.171784,0.242637 0.171784,0.376841 0,0.05584 -4.6e-4,0.05686 -0.02559,0.05686 -0.0425,-1.02e-4 -0.173808,-0.0349 -0.265275,-0.07003 -0.107229,-0.04132 -0.180251,-0.08185 -0.268707,-0.149065 l -0.06878,-0.05224 0.07335,0.07104 c 0.119383,0.115638 0.261398,0.199437 0.397323,0.234463 0.03553,0.009 0.0646,0.01925 0.0646,0.02274 0,0.0023 -0.03455,0.01745 -0.07681,0.0313 -0.104132,0.03434 -0.219136,0.03997 -0.310714,0.01509 z m 5.882192,-0.01576 c -0.04508,-0.01655 -0.04462,-0.0268 0.0016,-0.03547 0.04891,-0.009 0.154092,-0.06564 0.200902,-0.107746 l 0.04189,-0.03783 -0.05978,0.03749 c -0.05962,0.03749 -0.164133,0.07577 -0.241852,0.08849 l -0.04097,0.0068 0.0053,-0.051 c 0.0029,-0.02815 0.01572,-0.07149 0.02851,-0.09649 0.05873,-0.114907 0.150084,-0.174961 0.324481,-0.213274 0.118257,-0.0259 0.209155,-0.06598 0.243833,-0.107184 0.01279,-0.0152 0.02527,-0.02758 0.02773,-0.02758 0.0081,0 -0.0044,0.124442 -0.01806,0.181513 -0.02381,0.09874 -0.06536,0.170423 -0.143979,0.24839 -0.09698,0.09615 -0.148159,0.121786 -0.250853,0.125434 -0.05479,0.0023 -0.09132,-0.0023 -0.118751,-0.01171 z m -3.348331,-0.04774 c -0.0436,-0.08996 -0.05497,-0.220615 -0.02813,-0.323632 0.01896,-0.07284 0.07278,-0.171437 0.128208,-0.235004 0.02465,-0.02826 0.08612,-0.08635 0.1366,-0.12934 0.13411,-0.113894 0.223541,-0.243887 0.223541,-0.324916 0,-0.03805 0.01675,-0.02601 0.04667,0.03321 0.04347,0.08613 0.08152,0.209559 0.09353,0.303299 0.03284,0.25679 -0.09815,0.56788 -0.277386,0.658704 -0.05717,0.02905 -0.141742,0.05247 -0.188261,0.05235 l -0.03295,-1.01e-4 0.02955,-0.02342 c 0.04177,-0.03288 0.115971,-0.128643 0.155461,-0.200541 0.03149,-0.05731 0.07454,-0.166505 0.06816,-0.172867 -0.0016,-0.0023 -0.01662,0.02601 -0.03342,0.06113 -0.04017,0.0841 -0.132926,0.198864 -0.220027,0.272192 -0.03855,0.03254 -0.07334,0.06012 -0.07733,0.06158 -0.0039,9.23e-4 -0.01487,-0.01328 -0.02423,-0.03265 z M 34.801993,72.16217 c -0.04168,-0.139518 -0.05319,-0.320243 -0.02799,-0.439214 0.0075,-0.03547 0.01226,-0.06598 0.01058,-0.06766 -0.0055,-0.0056 -0.04234,0.130421 -0.05213,0.192682 -0.01278,0.08129 -0.01156,0.177415 0.0033,0.253738 l 0.01218,0.06294 -0.02881,-0.02184 c -0.04417,-0.03344 -0.113008,-0.129047 -0.136444,-0.189394 -0.031,-0.07982 -0.03554,-0.217868 -0.01047,-0.31708 0.066,-0.261 0.216277,-0.448537 0.456493,-0.569659 0.03252,-0.01632 0.06084,-0.02803 0.06295,-0.02589 0.0021,0.0023 -0.0055,0.02443 -0.01688,0.04954 -0.01661,0.03659 -0.02144,0.06721 -0.02435,0.154515 -0.0034,0.09953 -10e-4,0.118644 0.02656,0.223418 0.07364,0.279397 0.03655,0.493414 -0.111225,0.641489 -0.05038,0.05044 -0.122907,0.101442 -0.144386,0.101442 -0.0026,0 -0.01126,-0.02196 -0.01926,-0.04886 z m 3.842108,-0.09863 c 0.0867,-0.09142 0.154342,-0.207803 0.192391,-0.331086 0.02443,-0.07915 0.02001,-0.09063 -0.0068,-0.01745 -0.02778,0.07577 -0.07762,0.156305 -0.144375,0.233247 -0.05947,0.06857 -0.159091,0.160291 -0.174065,0.160291 -0.01183,0 -0.04112,-0.05956 -0.05912,-0.12039 -0.02165,-0.07307 -0.01965,-0.197444 0.0045,-0.276604 0.03811,-0.12531 0.119164,-0.240645 0.241939,-0.344248 0.129091,-0.108984 0.208585,-0.22254 0.232781,-0.332662 0.01103,-0.05021 0.01307,-0.05325 0.02537,-0.03727 0.02637,0.03411 0.09409,0.186197 0.113417,0.254684 0.02827,0.100315 0.03453,0.252308 0.0147,0.357217 -0.05623,0.297434 -0.215464,0.474984 -0.450445,0.502264 l -0.04023,0.0045 z m -1.550748,-0.185387 c -0.05423,-0.106395 -0.09316,-0.29526 -0.08823,-0.428181 0.0043,-0.113026 -0.0069,-0.09424 -0.0218,0.03704 -0.01226,0.107859 -9.27e-4,0.230534 0.02935,0.318657 0.01036,0.03017 0.01727,0.05629 0.01538,0.0581 -0.0059,0.0056 -0.09211,-0.0662 -0.130117,-0.108309 -0.04321,-0.04796 -0.08544,-0.134396 -0.10009,-0.204752 -0.0065,-0.0313 -0.0088,-0.09041 -0.0055,-0.14955 0.01441,-0.271504 0.148475,-0.503209 0.381282,-0.658951 0.06522,-0.04357 0.08151,-0.0465 0.06236,-0.01013 -0.01722,0.0322 -0.02226,0.165931 -0.009,0.237998 0.0064,0.03513 0.0284,0.107859 0.04872,0.161608 0.05552,0.146927 0.07234,0.222586 0.07234,0.325355 0,0.177708 -0.0604,0.312532 -0.184702,0.412295 -0.02386,0.01914 -0.04641,0.03479 -0.05011,0.0349 -0.0037,6.7e-5 -0.01262,-0.01137 -0.0198,-0.02545 z m -2.915158,-0.0068 c -0.122059,-0.03029 -0.213326,-0.108422 -0.2784,-0.238449 -0.06013,-0.120142 -0.08396,-0.232493 -0.07752,-0.365695 0.0056,-0.116156 0.02532,-0.192018 0.07907,-0.304324 l 0.03341,-0.0698 0.01585,0.0528 c 0.03025,0.100991 0.08711,0.174566 0.21681,0.280613 0.14426,0.117957 0.216612,0.22558 0.244892,0.364254 0.01709,0.08376 0.0081,0.1687 -0.0261,0.248367 l -0.01944,0.04515 -0.03844,-0.02815 c -0.103963,-0.076 -0.22475,-0.220795 -0.26217,-0.314367 -0.02399,-0.06001 -0.02671,-0.04064 -0.0032,0.0224 0.03907,0.104481 0.09884,0.198087 0.173292,0.271178 l 0.04978,0.04886 -0.03068,-8.44e-4 c -0.01687,-5.86e-4 -0.05161,-0.0068 -0.07721,-0.01227 z m 5.372514,-0.101554 c 0.07563,-0.08118 0.135058,-0.181209 0.173029,-0.291365 0.02899,-0.0841 0.0311,-0.118509 0.0028,-0.04413 -0.02527,0.0662 -0.08174,0.159322 -0.137528,0.226864 -0.0531,0.06429 -0.165004,0.16744 -0.181656,0.16744 -0.0128,0 -0.0544,-0.08793 -0.06656,-0.140678 -0.01246,-0.05404 -0.01233,-0.153671 2.81e-4,-0.214941 0.02592,-0.126008 0.128702,-0.282144 0.254857,-0.387177 0.128883,-0.107296 0.220643,-0.240779 0.234371,-0.340937 0.0077,-0.05641 0.01814,-0.04717 0.07231,0.06418 0.07103,0.145992 0.0847,0.208185 0.084,0.381885 -5.44e-4,0.134947 -0.0029,0.156801 -0.02613,0.232403 -0.07476,0.244236 -0.217052,0.3788 -0.432948,0.409424 l -0.04076,0.0056 0.06404,-0.06868 z m -1.532873,0.01452 c -0.02254,-0.01914 -0.05265,-0.0474 -0.0669,-0.06282 -0.03871,-0.04166 -0.08941,-0.149685 -0.104875,-0.223418 -0.02841,-0.135296 -0.01376,-0.244022 0.05995,-0.444867 0.06646,-0.181097 0.07918,-0.303783 0.04116,-0.396724 -0.0071,-0.01745 -0.01103,-0.03355 -0.0087,-0.03591 0.0063,-0.0068 0.133401,0.08376 0.192905,0.136838 0.155403,0.138539 0.258368,0.369591 0.261605,0.58702 0.002,0.135634 -0.02889,0.233686 -0.102139,0.323936 -0.02942,0.03637 -0.121739,0.11359 -0.135595,0.11359 -0.003,0 1.06e-4,-0.01385 0.0071,-0.03074 0.03007,-0.07194 0.04478,-0.184384 0.03917,-0.299538 -0.0029,-0.06159 -0.0098,-0.124533 -0.01511,-0.13989 -0.0082,-0.02387 -0.0092,-0.01982 -0.0062,0.02792 0.0018,0.03074 -4.02e-4,0.09469 -0.0052,0.142153 -0.01278,0.128699 -0.07775,0.337278 -0.105067,0.337278 -0.0061,0 -0.02958,-0.01576 -0.05212,-0.0349 z m 2.078642,-0.03749 -0.02096,-0.0068 0.02744,-0.05798 c 0.03826,-0.08084 0.09505,-0.161811 0.142141,-0.202827 0.02359,-0.02049 0.03039,-0.02983 0.01665,-0.02274 -0.04066,0.02105 -0.130588,0.113555 -0.165861,0.170705 l -0.03405,0.05517 -0.0083,-0.04109 c -0.01058,-0.05246 0.0061,-0.13819 0.03749,-0.191669 0.05061,-0.08635 0.187541,-0.181231 0.306187,-0.212125 0.06356,-0.01655 0.201676,-0.01745 0.268726,-0.0023 l 0.04579,0.01126 -0.04751,0.0295 c -0.05851,0.03637 -0.09305,0.08264 -0.153026,0.204977 -0.08524,0.173981 -0.190611,0.259874 -0.329107,0.268273 -0.03555,0.0023 -0.07407,8.67e-4 -0.08561,-0.0023 z m -4.09253,-0.106732 c -0.0812,-0.127213 -0.134978,-0.276695 -0.143195,-0.397963 -0.0044,-0.06384 -0.0069,-0.07375 -0.013,-0.05123 -0.02203,0.08061 0.03104,0.337559 0.09081,0.439856 0.01272,0.02173 0.02149,0.03963 0.0195,0.03963 -0.02943,0 -0.17347,-0.101216 -0.210403,-0.147839 -0.130597,-0.164895 -0.147198,-0.470435 -0.0383,-0.705056 0.05629,-0.121313 0.146987,-0.242682 0.231149,-0.309356 l 0.03435,-0.02725 -0.0034,0.08388 c -0.0028,0.07172 3.73e-4,0.09536 0.02206,0.16189 0.01394,0.04278 0.04843,0.116674 0.07665,0.164028 0.10555,0.177145 0.142067,0.286547 0.141875,0.425029 -1.4e-4,0.09007 -0.0152,0.157161 -0.05155,0.229003 -0.02564,0.05066 -0.101363,0.144202 -0.116746,0.144202 -0.0048,0 -0.02274,-0.02207 -0.0399,-0.04886 z m -2.561177,-0.04796 c -0.10778,-0.03423 -0.19799,-0.112981 -0.247068,-0.215818 -0.05471,-0.114626 -0.07918,-0.304369 -0.05479,-0.424646 0.01958,-0.09649 0.06054,-0.193076 0.119297,-0.2813 l 0.0243,-0.03648 0.0061,0.04886 c 0.0107,0.08613 0.05432,0.15716 0.174207,0.28345 0.114432,0.120547 0.16153,0.192941 0.191212,0.293943 0.01902,0.06474 0.01902,0.169286 9e-6,0.234002 -0.0156,0.05314 -0.04658,0.111123 -0.05938,0.111123 -0.01194,0 -0.111237,-0.102342 -0.149522,-0.154098 -0.03844,-0.0519 -0.08394,-0.138438 -0.101723,-0.19329 -0.01741,-0.0537 -0.0201,-0.03637 -0.0042,0.02657 0.02031,0.08005 0.08956,0.215189 0.139261,0.27191 0.03923,0.04481 0.041,0.04886 0.02117,0.04819 -0.01192,-2.93e-4 -0.03843,-0.0068 -0.05891,-0.01238 z m 4.086756,-0.250101 c -0.02379,-0.0698 -0.0215,-0.259345 0.0039,-0.326189 0.006,-0.01542 0.0062,-0.02387 9.28e-4,-0.0206 -0.0217,0.0134 -0.04971,0.140757 -0.05052,0.229802 l -8.32e-4,0.09007 -0.02547,-0.02961 c -0.07744,-0.08973 -0.09575,-0.20232 -0.05394,-0.33175 0.02924,-0.09052 0.101419,-0.197434 0.1708,-0.252951 0.05051,-0.04042 0.141476,-0.09086 0.19019,-0.105381 l 0.02102,-0.0068 -0.01896,0.0322 c -0.03518,0.05956 -0.04149,0.134441 -0.02258,0.267992 0.01385,0.09784 0.01507,0.131153 0.0068,0.184745 -0.01193,0.07701 -0.04001,0.139293 -0.08578,0.189935 -0.05057,0.05584 -0.127906,0.100428 -0.135567,0.07802 z m -1.088431,-0.227348 c -0.03849,-0.183878 -0.02941,-0.414986 0.02219,-0.564727 0.02752,-0.07982 0.01666,-0.07408 -0.01819,0.009 -0.05672,0.136264 -0.07679,0.234823 -0.07808,0.383731 l -0.0012,0.13354 -0.03517,-0.04042 c -0.08154,-0.09378 -0.122068,-0.18202 -0.136533,-0.297219 -0.02397,-0.190892 0.0695,-0.442345 0.236283,-0.635691 0.09951,-0.115346 0.32372,-0.254932 0.46362,-0.288629 l 0.02551,-0.0068 -0.03182,0.05843 c -0.06253,0.114636 -0.07497,0.257915 -0.04157,0.478642 0.03156,0.208512 0.01324,0.356632 -0.06376,0.515257 -0.0458,0.09435 -0.15766,0.208174 -0.245675,0.249944 -0.07586,0.03592 -0.08879,0.03648 -0.09564,0.0045 z m -1.897762,-0.05629 c -0.08837,-0.12004 -0.166433,-0.302759 -0.182383,-0.426897 l -0.0081,-0.06373 -0.0011,0.05584 c -0.0024,0.122327 0.0458,0.300519 0.109986,0.406351 0.01971,0.03254 0.03445,0.06057 0.03273,0.06237 -0.0018,0.0023 -0.03484,-0.01205 -0.07361,-0.03062 -0.196784,-0.09469 -0.293779,-0.274331 -0.293779,-0.544248 0,-0.152522 0.02561,-0.265571 0.08884,-0.392176 0.0359,-0.07183 0.124918,-0.193166 0.182447,-0.248548 l 0.0409,-0.0394 -0.0035,0.06935 c -0.006,0.117248 0.03379,0.222754 0.147226,0.391117 0.117817,0.174871 0.149318,0.258737 0.156044,0.415403 0.0041,0.09435 0.0019,0.117417 -0.0168,0.180421 -0.02191,0.07375 -0.07099,0.15957 -0.113734,0.19875 l -0.0239,0.02195 z m 4.62009,-0.03817 c -0.06827,-0.06688 -0.107149,-0.144596 -0.121865,-0.243898 -0.01362,-0.09198 -0.002,-0.167485 0.04792,-0.312317 0.05224,-0.151408 0.05915,-0.260348 0.02226,-0.350868 -0.01298,-0.03186 0.106519,0.05055 0.181024,0.124815 0.109852,0.109547 0.162955,0.214389 0.192084,0.379307 0.02011,0.113825 0.0035,0.219207 -0.0473,0.300045 -0.01921,0.03062 -0.124527,0.134092 -0.130209,0.127989 -0.0014,-9.23e-4 0.0057,-0.03411 0.01583,-0.07251 0.01496,-0.05697 0.01755,-0.09041 0.01407,-0.181525 -0.0024,-0.06147 -0.0087,-0.122179 -0.01389,-0.134981 -0.0073,-0.01756 -0.0084,-0.0045 -0.0047,0.05584 0.0036,0.05866 3.6e-5,0.102004 -0.01371,0.167564 -0.02297,0.109322 -0.05477,0.195474 -0.07219,0.195474 -0.0071,0 -0.03834,-0.02466 -0.06922,-0.05494 z m -0.650708,-0.0079 c -0.117025,-0.06913 -0.214975,-0.204864 -0.251718,-0.348672 -0.03866,-0.151306 -0.03406,-0.266111 0.01911,-0.477573 0.04834,-0.192232 0.04636,-0.359976 -0.0055,-0.465121 -0.01254,-0.02545 -0.02132,-0.04774 -0.01953,-0.04954 0.007,-0.0079 0.162454,0.07724 0.2286,0.123914 0.237054,0.167091 0.39175,0.43846 0.407049,0.714029 0.0096,0.173892 -0.03503,0.295531 -0.152633,0.415493 -0.06317,0.06451 -0.06914,0.06857 -0.06428,0.04323 0.02074,-0.107971 0.02623,-0.207543 0.01638,-0.296611 -0.01136,-0.102792 -0.04121,-0.227911 -0.06338,-0.265886 -0.0087,-0.01497 -0.01174,-0.017 -0.008,-0.0056 0.03351,0.103918 0.04168,0.297062 0.01854,0.437537 -0.01733,0.10527 -0.04372,0.202309 -0.05607,0.206407 -0.0052,0.0023 -0.03605,-0.01261 -0.06857,-0.03175 z m -3.14465,-0.05359 c -0.231622,-0.05033 -0.368852,-0.234677 -0.412601,-0.5542 -0.02267,-0.165638 0.02857,-0.378226 0.128937,-0.534812 l 0.02395,-0.03738 0.0069,0.04594 c 0.0038,0.02533 0.0224,0.07769 0.04141,0.116359 0.03013,0.06136 0.05438,0.09007 0.189019,0.223914 0.164538,0.163623 0.199792,0.211709 0.240055,0.327359 0.04532,0.130196 0.03802,0.264783 -0.02063,0.380512 l -0.02392,0.04717 -0.0438,-0.0367 c -0.113786,-0.09536 -0.216865,-0.227336 -0.268974,-0.344202 -0.03975,-0.08917 -0.03242,-0.03794 0.0091,0.06339 0.04161,0.101554 0.09654,0.188967 0.161438,0.256846 0.06138,0.06417 0.06049,0.06552 -0.03081,0.04571 z m -1.791888,-0.333979 c -0.181408,-0.07465 -0.306461,-0.255596 -0.335504,-0.485544 -0.0086,-0.06767 -0.0084,-0.119512 6.6e-4,-0.234103 0.01645,-0.208478 -0.0039,-0.33524 -0.06973,-0.432955 -0.03572,-0.05314 -0.03121,-0.05461 0.06736,-0.02139 0.254646,0.08545 0.43689,0.243076 0.552902,0.478125 0.06627,0.134283 0.09039,0.25205 0.07453,0.363883 -0.01145,0.08061 -0.0297,0.128045 -0.07914,0.205235 -0.06286,0.09818 -0.06494,0.09761 -0.06698,-0.01711 -0.0021,-0.120086 -0.03249,-0.246533 -0.08724,-0.363387 -0.04239,-0.09052 -0.05665,-0.09818 -0.02174,-0.01171 0.04148,0.102679 0.0537,0.179554 0.05422,0.340993 5.16e-4,0.153727 -0.0054,0.200304 -0.02511,0.199922 -0.0063,-1.35e-4 -0.03521,-0.01013 -0.06423,-0.02195 z m -0.738763,-0.06992 c -0.120814,-0.04346 -0.201527,-0.127505 -0.289933,-0.301678 -0.06621,-0.130443 -0.141509,-0.222382 -0.192652,-0.235206 -0.07348,-0.01846 0.04201,-0.04594 0.189606,-0.04503 0.0901,5.74e-4 0.118253,0.0045 0.177772,0.02499 0.142885,0.04898 0.269437,0.146104 0.323959,0.24839 0.0325,0.06102 0.04667,0.152533 0.03401,0.219939 l -0.0066,0.03569 -0.02914,-0.05438 c -0.03164,-0.059 -0.117288,-0.152556 -0.182473,-0.199392 -0.05534,-0.03974 -0.06962,-0.03749 -0.01853,0.0023 0.06189,0.04898 0.123944,0.129521 0.171609,0.222766 0.03911,0.07645 0.04141,0.08455 0.02591,0.09063 -0.03396,0.0134 -0.155694,0.0079 -0.203446,-0.009 z m 4.917439,-0.05855 c -0.08604,-0.07025 -0.127631,-0.169658 -0.127579,-0.304797 2.8e-5,-0.08219 0.0035,-0.09896 0.04264,-0.210324 0.04685,-0.133135 0.06307,-0.252883 0.04232,-0.31243 -0.0059,-0.01666 -0.0092,-0.03175 -0.0074,-0.03355 0.0018,-0.0023 0.0324,0.01734 0.0681,0.04245 0.14977,0.105269 0.235609,0.246972 0.264509,0.436952 0.01332,0.08759 -4.59e-4,0.172112 -0.04021,0.24669 -0.03676,0.06902 -0.155882,0.177066 -0.132555,0.120288 0.02225,-0.05415 0.03222,-0.119759 0.03149,-0.207127 -0.0011,-0.142715 -0.01343,-0.166415 -0.01923,-0.03727 -0.0039,0.08804 -0.01025,0.123171 -0.03534,0.197816 -0.01679,0.04988 -0.03524,0.09063 -0.04099,0.09052 -0.0056,-1.69e-4 -0.02634,-0.01328 -0.04577,-0.02916 z m -0.616226,-0.05663 c -0.05182,-0.06046 -0.09621,-0.159153 -0.108827,-0.24204 -0.02148,-0.141038 0.02298,-0.300642 0.12771,-0.458433 0.08607,-0.129701 0.130575,-0.262791 0.122546,-0.366506 l -0.0045,-0.05933 0.0599,0.05933 c 0.105404,0.104256 0.186325,0.238134 0.221773,0.366798 0.02401,0.08714 0.02951,0.283912 0.01036,0.370154 -0.0324,0.145666 -0.111653,0.252151 -0.235771,0.316821 -0.03712,0.01925 -0.0675,0.03287 -0.0675,0.02984 0,-0.0023 0.01226,-0.02725 0.02726,-0.05404 0.05261,-0.09401 0.09511,-0.26788 0.09273,-0.379195 l -8.91e-4,-0.04188 -0.0074,0.03265 c -0.0039,0.01801 -0.01233,0.05978 -0.01842,0.09311 -0.0061,0.03333 -0.02684,0.09885 -0.04614,0.145891 -0.03554,0.08658 -0.116415,0.226469 -0.130913,0.226469 -0.0044,0 -0.02318,-0.01779 -0.04184,-0.03963 z m 2.600835,-0.02578 c 0.05423,-0.04278 0.114982,-0.116382 0.141682,-0.171459 l 0.01836,-0.03794 -0.02116,0.02803 c -0.04735,0.06249 -0.11722,0.129048 -0.177939,0.169421 -0.07184,0.04774 -0.07596,0.04661 -0.08661,-0.02376 -0.02275,-0.15054 0.04905,-0.287458 0.203667,-0.388313 0.129807,-0.08467 0.183613,-0.138179 0.206818,-0.205675 0.01129,-0.03288 0.01214,-0.03333 0.02261,-0.01385 0.0212,0.03963 0.04725,0.163409 0.04713,0.223902 -4.3e-4,0.189969 -0.111292,0.386963 -0.24616,0.437436 -0.03008,0.01126 -0.07425,0.01959 -0.103985,0.01959 h -0.05169 z m -4.086567,-0.04312 c -0.03607,-0.08309 -0.0643,-0.214502 -0.06546,-0.304752 -0.0016,-0.120682 -0.01515,-0.05798 -0.01588,0.0733 -4.02e-4,0.07104 0.0046,0.12236 0.01653,0.167564 0.0093,0.03592 0.0159,0.06643 0.01445,0.068 -0.0087,0.009 -0.107352,-0.08635 -0.132932,-0.128991 -0.04438,-0.07386 -0.05338,-0.112925 -0.05238,-0.227629 7.75e-4,-0.08849 0.005,-0.114625 0.03062,-0.192919 0.03526,-0.107408 0.09809,-0.206834 0.17524,-0.277359 0.05086,-0.0465 0.140074,-0.111574 0.152946,-0.111574 0.0034,0 -8e-6,0.01993 -0.0077,0.04425 -0.02572,0.08253 -0.01205,0.160223 0.06746,0.384002 0.07186,0.202274 0.01933,0.417125 -0.128547,0.525738 l -0.0348,0.02556 z m -0.868375,-0.312588 c -0.03781,-0.06451 -0.07117,-0.16288 -0.07952,-0.23453 l -0.0078,-0.06631 -0.0012,0.07318 c -0.0012,0.07397 0.01655,0.16413 0.04212,0.213579 0.0077,0.01475 0.01221,0.0286 0.01013,0.03062 -0.002,0.0023 -0.02647,-0.01205 -0.05421,-0.0313 -0.05446,-0.03794 -0.104526,-0.103918 -0.120336,-0.158692 -0.02932,-0.101554 -0.01603,-0.251407 0.03175,-0.358422 0.02802,-0.06271 0.09687,-0.153209 0.14931,-0.196183 l 0.04163,-0.03411 -0.0054,0.04582 c -0.0078,0.06553 0.01047,0.129937 0.07263,0.257341 0.04023,0.0823 0.05716,0.129239 0.0645,0.178473 0.01827,0.122597 -0.01833,0.233642 -0.10018,0.303975 -0.01955,0.01678 -0.02007,0.01655 -0.04345,-0.02342 z m 4.17638,-0.0079 c -0.06621,-0.03805 -0.118616,-0.10662 -0.143207,-0.187548 -0.0176,-0.05798 -0.01902,-0.07701 -0.01271,-0.173745 0.01349,-0.20698 0.01092,-0.280736 -0.01146,-0.329701 -0.01115,-0.02432 -0.01761,-0.04425 -0.01445,-0.04425 0.0032,0 0.04105,0.01711 0.08416,0.03794 0.142614,0.06902 0.249347,0.198075 0.295706,0.357555 0.03081,0.105945 0.0014,0.238866 -0.0677,0.304966 l -0.02607,0.02499 0.0035,-0.06924 c 0.0038,-0.07442 -0.01683,-0.187728 -0.04144,-0.228046 -0.0099,-0.01621 -0.01243,-0.01756 -0.0083,-0.0045 0.01921,0.06068 0.02521,0.121065 0.02034,0.204627 -0.0055,0.09367 -0.01275,0.135252 -0.02371,0.135094 -0.0033,-3.4e-5 -0.02783,-0.01272 -0.05464,-0.02815 z m -2.764142,-0.07206 c -0.09229,-0.08669 -0.134607,-0.18426 -0.140694,-0.324432 -0.0055,-0.127786 0.0167,-0.21431 0.09428,-0.366742 0.08061,-0.158376 0.100957,-0.220255 0.102522,-0.311856 6.88e-4,-0.04098 -0.002,-0.08624 -0.0061,-0.10054 -0.007,-0.02488 -0.0063,-0.02544 0.01396,-0.01475 0.04143,0.02218 0.172082,0.164186 0.21645,0.235375 0.08028,0.128811 0.116652,0.262261 0.116652,0.428035 0,0.157239 -0.04096,0.267136 -0.133133,0.357217 -0.04166,0.04064 -0.146142,0.11225 -0.146142,0.10009 0,-0.0023 0.01081,-0.02837 0.02389,-0.05798 0.04204,-0.09469 0.05991,-0.190611 0.05853,-0.314445 l -0.0012,-0.111687 -0.0071,0.0805 c -0.01176,0.131975 -0.06469,0.289811 -0.136176,0.405956 l -0.0186,0.03017 z m 3.189914,-0.02758 c 0.04304,-0.02792 0.162644,-0.156958 0.192712,-0.207994 0.04871,-0.08264 0.04607,-0.09255 -0.0054,-0.02038 -0.06769,0.09502 -0.250094,0.239856 -0.279226,0.221854 -0.01267,-0.0079 -0.0291,-0.08309 -0.0291,-0.133214 0,-0.157352 0.100473,-0.308073 0.274621,-0.41198 0.108276,-0.06463 0.200404,-0.156203 0.225924,-0.224612 l 0.01864,-0.04999 0.01514,0.03625 c 0.04699,0.112475 0.0623,0.261045 0.03897,0.378316 -0.02217,0.111461 -0.0909,0.249933 -0.155832,0.313894 -0.02736,0.02691 -0.06304,0.05708 -0.07927,0.06688 -0.04585,0.0277 -0.121893,0.04706 -0.183938,0.0465 -0.05551,-5.74e-4 -0.05608,-8.67e-4 -0.03322,-0.01554 z m -5.247274,-0.05708 c -0.09534,-0.03288 -0.165555,-0.109886 -0.200868,-0.220143 -0.0278,-0.0868 -0.02943,-0.244663 -0.0034,-0.321178 0.02264,-0.06631 0.05728,-0.13596 0.08787,-0.176683 l 0.02433,-0.03231 0.0071,0.04177 c 0.01146,0.06733 0.05769,0.147929 0.132785,0.231547 0.09657,0.107521 0.128397,0.174398 0.133464,0.280388 0.0043,0.08838 -0.01047,0.151926 -0.04525,0.195373 l -0.01863,0.02331 -0.03842,-0.04188 c -0.05411,-0.059 -0.1068,-0.142659 -0.130102,-0.206553 -0.01092,-0.02995 -0.02135,-0.05314 -0.02313,-0.05123 -0.0018,0.0023 0.0029,0.02713 0.01058,0.05618 0.01646,0.06316 0.06173,0.155787 0.09975,0.204054 0.03129,0.03963 0.02978,0.04042 -0.03613,0.01756 z m 1.110239,-0.26314 c 0.009,-0.09074 0.0325,-0.184046 0.06011,-0.238505 0.03041,-0.06001 0.03373,-0.07183 0.01242,-0.04436 -0.03183,0.04109 -0.07962,0.148975 -0.096,0.216775 l -0.01735,0.07172 -0.01969,-0.04346 c -0.06323,-0.139552 -0.03139,-0.277033 0.09587,-0.41395 0.09024,-0.09705 0.210687,-0.159221 0.340784,-0.175772 l 0.05119,-0.0068 -0.02458,0.02657 c -0.05019,0.05438 -0.07626,0.132065 -0.08696,0.259334 -0.0078,0.09221 -0.02212,0.150461 -0.05176,0.209716 -0.04745,0.09491 -0.141536,0.170897 -0.225827,0.182459 l -0.04317,0.0068 z m 3.2387,0.0068 c -0.05359,-0.017 -0.08889,-0.03693 -0.123132,-0.06958 -0.121079,-0.115863 -0.157288,-0.347793 -0.083,-0.531694 0.02112,-0.05224 0.08003,-0.14893 0.09077,-0.14893 0.0033,0 0.0079,0.02072 0.01036,0.04605 0.0056,0.05978 0.04588,0.125794 0.139075,0.229025 0.105596,0.116956 0.144972,0.211462 0.135786,0.325873 -0.0046,0.05764 -0.04481,0.162351 -0.06232,0.162351 -0.01193,0 -0.07967,-0.07712 -0.116631,-0.132785 -0.01871,-0.02815 -0.04411,-0.07577 -0.05646,-0.105832 -0.02668,-0.06485 -0.03037,-0.04661 -0.0053,0.02612 0.02381,0.06924 0.04306,0.10572 0.08619,0.163567 0.02005,0.02691 0.03318,0.04852 0.02917,0.04819 -0.0039,-2.92e-4 -0.02405,-0.0068 -0.04453,-0.01238 z m -1.629659,-0.132167 c 0.0091,-0.08838 0.02942,-0.164152 0.06222,-0.231052 0.02208,-0.04503 0.0237,-0.05179 0.0079,-0.03333 -0.03283,0.03862 -0.08436,0.156474 -0.09711,0.222203 l -0.01196,0.0617 -0.02648,-0.05584 c -0.05456,-0.115075 -0.02912,-0.244168 0.07337,-0.372236 0.054,-0.06744 0.10456,-0.109097 0.177422,-0.146003 0.05574,-0.02815 0.176947,-0.0635 0.21804,-0.0635 h 0.0229 l -0.02902,0.02961 c -0.03831,0.03918 -0.06567,0.114997 -0.07664,0.212306 -0.01455,0.129115 -0.02721,0.188066 -0.0514,0.239214 -0.04661,0.09863 -0.145496,0.180298 -0.23556,0.194709 l -0.04027,0.0068 z m 1.041476,-0.09435 c -0.09601,-0.127359 -0.150386,-0.238989 -0.179808,-0.369185 -0.02077,-0.09198 -0.0239,-0.05697 -0.0047,0.0528 0.01876,0.107634 0.06216,0.223722 0.111923,0.299494 0.04098,0.06237 0.04106,0.06271 0.01585,0.05652 -0.05662,-0.01396 -0.148893,-0.06834 -0.198435,-0.116787 -0.0607,-0.05945 -0.103704,-0.138269 -0.131183,-0.240543 -0.02778,-0.103468 -0.02745,-0.3025 6.31e-4,-0.406283 0.03451,-0.127505 0.108129,-0.259165 0.205587,-0.367711 l 0.0376,-0.04188 -0.0055,0.03805 c -0.01388,0.0939 0.04117,0.232302 0.152636,0.38371 0.09366,0.127235 0.116182,0.16673 0.146101,0.256249 0.03293,0.09863 0.03998,0.205156 0.01961,0.296701 -0.0156,0.07014 -0.06063,0.158827 -0.101858,0.200665 l -0.02081,0.02117 -0.0475,-0.06305 z m 1.303151,-0.265008 c 0.0055,-0.08309 0.03101,-0.188179 0.05896,-0.242514 0.02316,-0.04492 0.0059,-0.02747 -0.02297,0.02331 -0.0325,0.05731 -0.06503,0.158208 -0.06816,0.211495 -0.0011,0.02072 -0.0053,0.03749 -0.009,0.03749 -0.0037,0 -0.01863,-0.02409 -0.03309,-0.05348 -0.02262,-0.04594 -0.02628,-0.06462 -0.02628,-0.133157 0,-0.07318 0.0029,-0.08523 0.0348,-0.150012 0.04175,-0.08444 0.132214,-0.185532 0.205396,-0.229498 0.05383,-0.0322 0.154851,-0.0698 0.21248,-0.07859 l 0.03377,-0.0056 -0.03062,0.04548 c -0.03757,0.05584 -0.06017,0.149111 -0.06017,0.248391 0,0.208039 -0.107645,0.368014 -0.273734,0.406812 l -0.02704,0.0068 z m -4.208035,-0.0023 c -0.06049,-0.01621 -0.108962,-0.04639 -0.152778,-0.09491 -0.06315,-0.06992 -0.08683,-0.123419 -0.12466,-0.28175 -0.02081,-0.08703 -0.05258,-0.150608 -0.09801,-0.196037 l -0.03969,-0.03963 0.08358,0.0068 c 0.157402,0.01126 0.277628,0.06654 0.380089,0.175164 0.07827,0.08298 0.110189,0.150799 0.111124,0.236152 7.18e-4,0.06575 -0.01817,0.153603 -0.03308,0.153603 -0.0045,0 -0.0081,-0.009 -0.0081,-0.02218 0,-0.03389 -0.06972,-0.16574 -0.111911,-0.211608 l -0.03754,-0.04087 0.03759,0.05978 c 0.03567,0.05663 0.07457,0.160099 0.08881,0.235994 0.0063,0.03355 0.0056,0.03468 -0.02013,0.03411 -0.01466,-2.81e-4 -0.04854,-0.0068 -0.07531,-0.01374 z m 0.872032,-0.0492 c -0.08435,-0.05359 -0.140785,-0.142806 -0.159547,-0.252229 -0.0091,-0.05314 -0.0087,-0.08118 0.0024,-0.151656 0.01966,-0.126221 0.0168,-0.225005 -0.0081,-0.280826 -0.01115,-0.025 -0.02029,-0.04672 -0.02029,-0.0483 0,-0.0023 0.022,0.0068 0.04888,0.01677 0.07369,0.02961 0.169019,0.09559 0.216119,0.14946 0.08227,0.09401 0.142276,0.252939 0.132242,0.350158 -0.0057,0.05584 -0.04938,0.153355 -0.08265,0.184565 l -0.02135,0.02004 -5.16e-4,-0.09007 c -3.72e-4,-0.06598 -0.0061,-0.108534 -0.0215,-0.158647 -0.02538,-0.08275 -0.03503,-0.08298 -0.01556,-2.92e-4 0.0077,0.03276 0.0141,0.07926 0.01418,0.103355 2.12e-4,0.07014 -0.01946,0.184227 -0.03175,0.184227 -0.0061,0 -0.02963,-0.01171 -0.0524,-0.02623 z m 0.81172,-0.180826 c -0.04237,-0.14293 -0.04983,-0.19964 -0.04492,-0.34212 0.0025,-0.0742 0.0071,-0.145451 0.01036,-0.158253 0.0032,-0.01283 -8.33e-4,-0.0068 -0.0089,0.01385 -0.04243,0.108872 -0.05279,0.340149 -0.02054,0.458478 0.0073,0.02691 0.0097,0.04886 0.0052,0.04886 -0.01982,0 -0.130247,-0.124432 -0.156376,-0.176199 -0.08825,-0.174803 -0.07195,-0.393336 0.04672,-0.626864 0.07282,-0.143324 0.224208,-0.291208 0.377649,-0.368938 0.03136,-0.01599 0.05911,-0.02893 0.06168,-0.02893 0.0025,0 -0.0032,0.01587 -0.01271,0.03513 -0.0437,0.08838 -0.04501,0.230422 -0.0035,0.379138 0.06066,0.217429 0.06137,0.221156 0.06152,0.330467 2.11e-4,0.157802 -0.03704,0.274274 -0.121157,0.378834 -0.03739,0.04639 -0.13955,0.123869 -0.163517,0.123869 -0.0063,0 -0.02055,-0.0304 -0.03156,-0.06744 z"
         id="path26384-43-0-3"
         sodipodi:nodetypes="ccscccsscssssccccccscccsccssscsccccccccscscccsccccsscscsscscccccssccscsscsscccccssccccsccsscccccccscscscssccccccsccccsscccccssccccccccccscccsccscscccccccccccccccccccccssccsssccccsccccssscscscccccccssscsccscsscccccccccsscscscssscsccsscccsscsssscscssssssccccccccscssscsccccsscscccsscsccsccccccccsccssccscscsccccccccccsccsscscccssscscccsccsccccsscccsccsscccccccscccscsssccsccscccccssccscccccssccccsssccsscccscscccccscssssscsscccccccsscccscscccccsccccsccscccsccccccccccsssscccssssscccssscssssscsccccccccsccsscccssccccscccssscccsscccccccsccscsccsssccccscscsccsscscscccsssccccssccsccccssccscsscssssccsscccsssssssssscscscsccssccccccsccccssscssccccsscccsccsssccsssccccccccssccssccscscccscsscsscscccscccssscccsscccsscscssccsccsccscssccsscscsccscsssccssscsscccsscscccsscscssccccccscscsccccsscccccsscssssccsccccscscsscsccssccccscsccsssccscsccccccscsssccccssccccsscccsssscccsccccscssccsscsccssccccccsssscsccscscc" /><path
         style="fill:#884700;fill-opacity:1;stroke-width:0.00930914"
         d="m 35.357953,74.717687 c -0.04064,-0.08951 -0.05705,-0.143222 -0.06851,-0.224443 -0.03308,-0.234215 0.07913,-0.512633 0.246002,-0.610437 0.04153,-0.02432 0.140999,-0.05168 0.18808,-0.05157 l 0.02793,3.3e-5 -0.03901,0.03276 c -0.05575,0.04672 -0.120973,0.136636 -0.161769,0.222935 -0.04588,0.09705 -0.0567,0.139225 -0.0149,0.05809 0.05296,-0.102793 0.143992,-0.204864 0.255304,-0.286242 0.01838,-0.0134 0.0334,-0.01869 0.03817,-0.0134 0.01872,0.02083 0.0407,0.0975 0.04526,0.157735 0.01234,0.16306 -0.07309,0.3229 -0.243825,0.456226 -0.135106,0.105495 -0.228316,0.226841 -0.228316,0.297231 0,0.03963 -0.01438,0.02713 -0.0444,-0.03896 z m -0.704988,-0.08376 c -0.02048,-9.23e-4 -0.05145,-0.0056 -0.06885,-0.0079 l -0.03161,-0.0056 0.02695,-0.01655 c 0.06016,-0.0367 0.12336,-0.127662 0.152634,-0.219567 0.03574,-0.11225 0.119272,-0.222529 0.203004,-0.268094 0.05515,-0.02995 0.132683,-0.04661 0.180627,-0.03862 l 0.03454,0.0056 -0.02333,0.06192 c -0.02898,0.0769 -0.05814,0.127202 -0.112909,0.194461 l -0.04259,0.05224 0.03876,-0.03119 c 0.04999,-0.04019 0.105528,-0.112475 0.134546,-0.175073 0.01262,-0.02725 0.02549,-0.04537 0.02862,-0.04031 0.01317,0.02128 0.01666,0.122743 0.0057,0.16806 -0.02343,0.09773 -0.121565,0.204627 -0.243949,0.265852 -0.08243,0.04121 -0.18298,0.06046 -0.282253,0.05393 z m -0.55855,-0.155213 c -0.06524,-0.0152 -0.141917,-0.04897 -0.197997,-0.08703 l -0.03974,-0.02702 0.04904,-0.01126 c 0.06691,-0.01498 0.134944,-0.05573 0.209698,-0.125637 0.126073,-0.117811 0.218174,-0.160054 0.333248,-0.152837 0.06569,0.0045 0.171711,0.04211 0.171711,0.06159 0,0.01126 -0.09363,0.09221 -0.145845,0.126425 -0.02134,0.01385 -0.06322,0.0358 -0.09309,0.04852 -0.0508,0.02162 -0.0519,0.02274 -0.01707,0.01711 0.0507,-0.0079 0.157979,-0.05922 0.211985,-0.100653 l 0.04443,-0.03423 -0.006,0.02567 c -0.03839,0.16502 -0.169797,0.257566 -0.380494,0.268015 -0.05369,0.0023 -0.104211,-5.75e-4 -0.139898,-0.0079 z m 3.942431,-0.05269 c -0.119804,-0.02308 -0.283838,-0.140419 -0.330957,-0.236737 -0.02558,-0.05224 -0.03925,-0.142277 -0.02827,-0.18604 0.0061,-0.02432 0.0071,-0.02342 0.04174,0.0295 0.03807,0.05843 0.110325,0.133225 0.157216,0.162903 0.01942,0.01227 0.01002,-9.23e-4 -0.02878,-0.04087 -0.05264,-0.05404 -0.126232,-0.168014 -0.141013,-0.21842 -0.0052,-0.01768 -0.0016,-0.02128 0.02797,-0.0268 0.0542,-0.01013 0.132464,0.0023 0.189148,0.02972 0.08476,0.04132 0.149326,0.113825 0.210967,0.236883 0.06166,0.123126 0.109693,0.185105 0.164391,0.212171 0.02466,0.01216 0.03396,0.02083 0.02551,0.02387 -0.06558,0.02342 -0.203502,0.03006 -0.287919,0.01374 z M 37.17282,74.284288 c -0.101463,-0.220007 -0.09817,-0.436704 0.0099,-0.652838 0.03421,-0.06845 0.112947,-0.152297 0.174275,-0.18569 0.04242,-0.02308 0.147051,-0.05168 0.190492,-0.05213 0.0134,-1.13e-4 0.0021,0.01599 -0.04385,0.0626 -0.07305,0.0742 -0.101408,0.114547 -0.142412,0.202477 -0.04445,0.09536 -0.04791,0.122327 -0.0056,0.04436 0.03898,-0.07194 0.08056,-0.126683 0.143865,-0.189305 0.04032,-0.03985 0.129819,-0.111011 0.139632,-0.111011 0.003,0 0.01448,0.02409 0.02549,0.05348 0.02826,0.07555 0.03364,0.160831 0.01481,0.235083 -0.03359,0.132403 -0.100012,0.225659 -0.240606,0.337807 -0.132513,0.10572 -0.192257,0.179735 -0.213597,0.264738 -0.0061,0.02443 -0.01348,0.04729 -0.01631,0.05089 -0.0029,0.0023 -0.01904,-0.02376 -0.03602,-0.06057 z m 1.290834,-0.268352 c -0.351857,-0.02894 -0.585378,-0.183968 -0.680826,-0.451903 -0.0438,-0.122923 -0.044,-0.122405 0.02583,-0.06902 0.03355,0.02567 0.08025,0.05798 0.103783,0.07172 0.11969,0.07014 0.326843,0.136568 0.459538,0.147343 l 0.0605,0.0056 -0.07448,-0.01756 c -0.1408,-0.03344 -0.251797,-0.0832 -0.390984,-0.17549 -0.102072,-0.06767 -0.230463,-0.176605 -0.225536,-0.191388 0.006,-0.01779 0.118228,-0.08861 0.173718,-0.109547 0.192422,-0.07251 0.417989,-0.05461 0.617056,0.04897 0.08393,0.04368 0.164903,0.101892 0.291709,0.209649 0.1667,0.14168 0.301993,0.206711 0.449609,0.216078 l 0.08705,0.0056 -0.05912,0.04774 c -0.249042,0.200855 -0.528022,0.288381 -0.837857,0.26288 z m -3.736216,-0.07037 c -0.125668,-0.01137 -0.289237,-0.05415 -0.400792,-0.104706 -0.154957,-0.07026 -0.353761,-0.240814 -0.457939,-0.392897 -0.06953,-0.101553 -0.06982,-0.103693 -0.01013,-0.08005 0.04023,0.01599 0.06993,0.01959 0.156692,0.0197 0.131578,1.46e-4 0.234239,-0.02533 0.413539,-0.102342 0.187467,-0.08061 0.270165,-0.09953 0.43825,-0.100428 0.161432,-8.67e-4 0.217663,0.01126 0.335129,0.06868 0.09077,0.04481 0.173584,0.110786 0.22602,0.180286 0.02161,0.0286 0.03929,0.05382 0.03929,0.05584 0,0.0079 -0.149212,0.07149 -0.232917,0.09896 -0.140931,0.04639 -0.282596,0.06823 -0.416032,0.06384 -0.06252,-0.0023 -0.112193,-0.0023 -0.110392,-2.93e-4 0.0018,0.0023 0.04039,0.009 0.08575,0.01666 0.177212,0.02882 0.392769,0.01126 0.547581,-0.04582 0.03566,-0.01295 0.06644,-0.02207 0.06841,-0.02004 0.0081,0.0079 -0.072,0.115842 -0.124888,0.167778 -0.13897,0.136479 -0.328162,0.195846 -0.557585,0.175017 z m 4.47082,-0.46413 c -0.06524,-0.01588 -0.114836,-0.04019 -0.190359,-0.09367 -0.113419,-0.08039 -0.165082,-0.169095 -0.164712,-0.282921 3.45e-4,-0.10358 0.01141,-0.114479 0.04532,-0.04503 0.02773,0.05674 0.120421,0.167035 0.156735,0.186467 0.01081,0.0056 -0.0025,-0.0143 -0.02954,-0.04436 -0.05064,-0.05652 -0.117896,-0.179802 -0.128538,-0.235432 l -0.0061,-0.03152 0.07052,0.0045 c 0.07995,0.0056 0.145628,0.0322 0.208438,0.08602 0.05162,0.04425 0.09023,0.106846 0.138041,0.224229 0.04786,0.11744 0.07945,0.165695 0.133469,0.203907 0.03828,0.02713 0.0392,0.02882 0.01861,0.03468 -0.03863,0.01126 -0.197097,0.0068 -0.251961,-0.0068 z m -3.074445,-0.213522 c -0.0051,-0.0023 -0.02165,-0.0056 -0.03675,-0.009 -0.02666,-0.0068 -0.02567,-0.0079 0.03483,-0.03749 0.03425,-0.01723 0.08705,-0.05044 0.117338,-0.07363 0.06285,-0.0483 0.164866,-0.156947 0.19037,-0.202624 0.01297,-0.02331 0.0055,-0.01779 -0.03025,0.02184 -0.08203,0.09097 -0.226664,0.186355 -0.357083,0.235443 l -0.06247,0.02353 -0.0044,-0.02083 c -0.03192,-0.152882 0.02279,-0.322732 0.143407,-0.445238 0.07708,-0.07836 0.145326,-0.121786 0.27838,-0.177404 0.05823,-0.02432 0.129223,-0.05798 0.157762,-0.07487 0.06787,-0.04008 0.16393,-0.135701 0.17938,-0.178439 0.0068,-0.01858 0.01473,-0.03378 0.0178,-0.03378 0.003,0 0.01081,0.02545 0.01724,0.05641 0.05785,0.280083 -0.01851,0.549741 -0.214643,0.757983 -0.07829,0.08309 -0.144644,0.124961 -0.235875,0.148717 -0.04792,0.01238 -0.168739,0.01846 -0.195105,0.009 z m -1.956017,-0.06012 c -0.109514,-0.02612 -0.240194,-0.139771 -0.302342,-0.262897 -0.03397,-0.06721 -0.05108,-0.131997 -0.05995,-0.226627 l -0.0069,-0.07363 0.04828,0.04335 c 0.0556,0.0501 0.112385,0.07363 0.239086,0.09953 0.109874,0.02252 0.174078,0.05269 0.240755,0.113702 0.05894,0.05382 0.09608,0.122788 0.104503,0.193887 l 0.0059,0.04965 -0.04688,-0.0068 c -0.0702,-0.009 -0.177896,-0.04875 -0.232991,-0.08523 -0.05026,-0.03333 -0.06504,-0.03513 -0.02793,-0.0023 0.04083,0.0349 0.142706,0.09063 0.195615,0.106958 0.02951,0.009 0.05045,0.0197 0.04654,0.02364 -0.01126,0.01126 -0.115155,0.03603 -0.14637,0.03501 -0.01556,-5.63e-4 -0.04136,-0.0045 -0.05732,-0.0079 z m -1.046442,-0.139068 c -0.0627,-0.01689 -0.170902,-0.06699 -0.194907,-0.09029 -0.01184,-0.01148 -0.0093,-0.01317 0.01912,-0.01317 0.05669,0 0.127915,-0.04458 0.232432,-0.145249 0.108264,-0.104368 0.17816,-0.146836 0.263511,-0.160223 0.06514,-0.01013 0.140443,-1.8e-4 0.190642,0.02545 0.04636,0.02364 0.04448,0.0313 -0.02343,0.09457 -0.05411,0.05044 -0.11873,0.09559 -0.172681,0.120671 -0.0324,0.01509 -0.03461,0.01745 -0.01189,0.01295 0.04775,-0.009 0.143014,-0.05956 0.197275,-0.103806 l 0.05191,-0.04222 -0.0066,0.03592 c -0.02532,0.137492 -0.134063,0.233056 -0.304994,0.268026 -0.09141,0.01869 -0.16371,0.01779 -0.240357,-0.0023 z m 6.311867,-0.02522 c -0.142712,-0.03794 -0.233215,-0.122979 -0.26402,-0.248153 -0.0035,-0.01407 -0.0038,-0.02544 -7.18e-4,-0.02544 0.003,0 0.02392,0.01497 0.04633,0.03333 0.04299,0.03524 0.172894,0.09671 0.204434,0.09683 0.01025,2.2e-5 -0.015,-0.01644 -0.05608,-0.03648 -0.06678,-0.03265 -0.19992,-0.137829 -0.19992,-0.158016 0,-0.01295 0.08175,-0.04751 0.135849,-0.05764 0.115443,-0.02128 0.237999,0.02848 0.372638,0.151464 0.08986,0.08208 0.149089,0.116798 0.214553,0.125772 l 0.04336,0.0068 -0.02247,0.01813 c -0.03634,0.0295 -0.143952,0.0805 -0.201303,0.09525 -0.06679,0.01745 -0.20535,0.01689 -0.272658,-8.55e-4 z m -4.718772,-0.130241 c -0.112882,-0.0304 -0.232643,-0.125512 -0.317345,-0.25215 -0.102252,-0.152872 -0.142069,-0.279003 -0.143514,-0.454561 -8.61e-4,-0.103355 0.01749,-0.256339 0.03066,-0.255776 0.0032,1.35e-4 0.01357,0.01745 0.02324,0.03828 0.02307,0.04988 0.10081,0.126886 0.171908,0.170074 0.0313,0.01903 0.100541,0.05258 0.153864,0.07465 0.131563,0.05427 0.203111,0.09964 0.280416,0.177212 0.107566,0.108084 0.155764,0.219872 0.155319,0.360404 -3.74e-4,0.115503 -4.31e-4,0.11556 -0.09215,0.07791 -0.134867,-0.05528 -0.238552,-0.124803 -0.331758,-0.222686 -0.04203,-0.04413 -0.05052,-0.0501 -0.03723,-0.02612 0.0249,0.04492 0.135277,0.162035 0.191346,0.203186 0.0265,0.01937 0.07733,0.05066 0.11293,0.06947 l 0.06474,0.03411 -0.04837,0.01013 c -0.06486,0.01385 -0.152766,0.01216 -0.214043,-0.0045 z m 1.069616,-0.06114 c -0.164584,-0.190756 -0.254253,-0.35143 -0.303011,-0.542964 -0.02516,-0.09874 -0.02863,-0.08692 -0.0084,0.02882 0.03433,0.197061 0.110437,0.374297 0.22042,0.513229 0.02533,0.03198 0.04195,0.0581 0.03693,0.0581 -0.005,0 -0.03785,-0.0079 -0.07295,-0.0197 -0.252141,-0.0778 -0.401198,-0.246218 -0.468231,-0.529015 -0.06906,-0.291365 -0.03284,-0.558794 0.112272,-0.828924 0.03674,-0.06845 0.146505,-0.222969 0.158596,-0.223351 0.0034,-1.13e-4 0.0041,0.01554 0.0016,0.03479 -0.0073,0.05641 0.02118,0.167834 0.06639,0.259424 0.04439,0.08996 0.112497,0.184632 0.201974,0.280838 0.117869,0.126728 0.21229,0.290757 0.251086,0.43622 0.02589,0.09716 0.02829,0.261507 0.005,0.347737 -0.02816,0.104481 -0.106057,0.251284 -0.133381,0.251341 -0.006,0 -0.03667,-0.02995 -0.06828,-0.06654 z m 1.331175,0.017 c 0,-8.56e-4 0.02676,-0.02972 0.05948,-0.06395 0.03273,-0.03423 0.07964,-0.09457 0.104289,-0.134057 0.04886,-0.07847 0.111372,-0.224511 0.119957,-0.280399 0.0045,-0.02893 0.0015,-0.02511 -0.01651,0.02173 -0.04747,0.123238 -0.12831,0.236242 -0.258271,0.360989 -0.05126,0.0492 -0.09881,0.08939 -0.105663,0.08939 -0.01617,0 -0.05697,-0.09142 -0.07503,-0.167957 -0.02877,-0.122045 -0.01168,-0.249731 0.05082,-0.380084 0.05042,-0.105157 0.07062,-0.12987 0.255825,-0.313061 0.142045,-0.140486 0.16436,-0.166798 0.19889,-0.234452 0.02139,-0.04188 0.04411,-0.102004 0.05051,-0.133585 l 0.01161,-0.05742 0.03894,0.06845 c 0.05287,0.09288 0.09307,0.196825 0.115765,0.299381 0.01576,0.07104 0.01818,0.107408 0.01444,0.215886 -0.0055,0.160696 -0.02712,0.251048 -0.09229,0.386321 -0.03978,0.08253 -0.0581,0.108647 -0.117969,0.167812 -0.07608,0.07521 -0.139232,0.111799 -0.231064,0.13399 -0.05208,0.01261 -0.12375,0.02488 -0.12375,0.02105 z m 1.455634,-0.04785 c -0.02629,-0.0079 -0.06189,-0.01925 -0.07913,-0.02657 l -0.03133,-0.01317 0.04189,-0.01126 c 0.110921,-0.02894 0.222424,-0.09052 0.329894,-0.182425 0.06714,-0.05731 0.06756,-0.07363 4.88e-4,-0.01903 -0.08707,0.07093 -0.264072,0.144629 -0.402534,0.167609 l -0.03957,0.0068 1.04e-4,-0.04503 c 2.47e-4,-0.107409 0.05151,-0.221144 0.139686,-0.309818 0.10125,-0.101892 0.190505,-0.143797 0.425199,-0.199832 0.12771,-0.03051 0.207442,-0.07003 0.276385,-0.137075 0.03088,-0.03006 0.05738,-0.0546 0.05887,-0.0546 0.0077,0 9.28e-4,0.12728 -0.01081,0.204797 -0.01476,0.09694 -0.0355,0.164119 -0.07475,0.242243 -0.08219,0.163601 -0.245388,0.31708 -0.391102,0.367789 -0.06263,0.02184 -0.182647,0.02657 -0.243288,0.009 z m -0.684201,-0.09795 c 0.06345,-0.0465 0.118803,-0.105944 0.162703,-0.174566 0.03825,-0.05978 0.05638,-0.09559 0.04845,-0.09559 -0.002,0 -0.01324,0.01576 -0.02501,0.0349 -0.04583,0.07476 -0.151839,0.171369 -0.251392,0.229172 l -0.04321,0.02511 -0.01081,-0.03051 c -0.03097,-0.08782 -0.01876,-0.204976 0.03176,-0.30465 0.03603,-0.07116 0.127948,-0.162925 0.217848,-0.21762 0.129144,-0.07859 0.209478,-0.161563 0.239399,-0.247264 l 0.01176,-0.03366 0.01476,0.0349 c 0.02783,0.06575 0.04373,0.142085 0.04897,0.235206 0.0044,0.07679 0.0017,0.107071 -0.0147,0.172079 -0.04363,0.172495 -0.140467,0.311574 -0.25611,0.367812 -0.04377,0.02128 -0.07103,0.02747 -0.134985,0.03062 l -0.08013,0.0045 z m -4.324067,-0.222776 c -0.130937,-0.03558 -0.241252,-0.107184 -0.360417,-0.233811 -0.161541,-0.171729 -0.241797,-0.351261 -0.26798,-0.599527 -0.0057,-0.05382 -0.0073,-0.121494 -0.0037,-0.15044 l 0.0065,-0.05269 0.01643,0.02668 c 0.02639,0.0429 0.103107,0.109097 0.168264,0.145192 0.07242,0.03997 0.177536,0.07521 0.298157,0.09964 0.195953,0.03974 0.333334,0.109097 0.451542,0.227911 0.112887,0.113432 0.171784,0.242637 0.171784,0.376841 0,0.05584 -4.6e-4,0.05686 -0.02559,0.05686 -0.0425,-1.02e-4 -0.173808,-0.0349 -0.265275,-0.07003 -0.107229,-0.04132 -0.180251,-0.08185 -0.268707,-0.149065 l -0.06878,-0.05224 0.07335,0.07104 c 0.119383,0.115638 0.261398,0.199437 0.397323,0.234463 0.03553,0.009 0.0646,0.01925 0.0646,0.02274 0,0.0023 -0.03455,0.01745 -0.07681,0.0313 -0.104132,0.03434 -0.219136,0.03997 -0.310714,0.01509 z m 5.882192,-0.01576 c -0.04508,-0.01655 -0.04462,-0.0268 0.0016,-0.03547 0.04891,-0.009 0.154092,-0.06564 0.200902,-0.107746 l 0.04189,-0.03783 -0.05978,0.03749 c -0.05962,0.03749 -0.164133,0.07577 -0.241852,0.08849 l -0.04097,0.0068 0.0053,-0.051 c 0.0029,-0.02815 0.01572,-0.07149 0.02851,-0.09649 0.05873,-0.114907 0.150084,-0.174961 0.324481,-0.213274 0.118257,-0.0259 0.209155,-0.06598 0.243833,-0.107184 0.01279,-0.0152 0.02527,-0.02758 0.02773,-0.02758 0.0081,0 -0.0044,0.124442 -0.01806,0.181513 -0.02381,0.09874 -0.06536,0.170423 -0.143979,0.24839 -0.09698,0.09615 -0.148159,0.121786 -0.250853,0.125434 -0.05479,0.0023 -0.09132,-0.0023 -0.118751,-0.01171 z m -3.348331,-0.04774 c -0.0436,-0.08996 -0.05497,-0.220615 -0.02813,-0.323632 0.01896,-0.07284 0.07278,-0.171437 0.128208,-0.235004 0.02465,-0.02826 0.08612,-0.08635 0.1366,-0.12934 0.13411,-0.113894 0.223541,-0.243887 0.223541,-0.324916 0,-0.03805 0.01675,-0.02601 0.04667,0.03321 0.04347,0.08613 0.08152,0.209559 0.09353,0.303299 0.03284,0.25679 -0.09815,0.56788 -0.277386,0.658704 -0.05717,0.02905 -0.141742,0.05247 -0.188261,0.05235 l -0.03295,-1.01e-4 0.02955,-0.02342 c 0.04177,-0.03288 0.115971,-0.128643 0.155461,-0.200541 0.03149,-0.05731 0.07454,-0.166505 0.06816,-0.172867 -0.0016,-0.0023 -0.01662,0.02601 -0.03342,0.06113 -0.04017,0.0841 -0.132926,0.198864 -0.220027,0.272192 -0.03855,0.03254 -0.07334,0.06012 -0.07733,0.06158 -0.0039,9.23e-4 -0.01487,-0.01328 -0.02423,-0.03265 z m -1.294472,-0.274792 c -0.04168,-0.139518 -0.05319,-0.320243 -0.02799,-0.439214 0.0075,-0.03547 0.01226,-0.06598 0.01058,-0.06766 -0.0055,-0.0056 -0.04234,0.130421 -0.05213,0.192682 -0.01278,0.08129 -0.01156,0.177415 0.0033,0.253738 l 0.01218,0.06294 -0.02881,-0.02184 c -0.04417,-0.03344 -0.113008,-0.129047 -0.136444,-0.189394 -0.031,-0.07982 -0.03554,-0.217868 -0.01047,-0.31708 0.066,-0.261 0.216277,-0.448537 0.456493,-0.569659 0.03252,-0.01632 0.06084,-0.02803 0.06295,-0.02589 0.0021,0.0023 -0.0055,0.02443 -0.01688,0.04954 -0.01661,0.03659 -0.02144,0.06721 -0.02435,0.154515 -0.0034,0.09953 -10e-4,0.118644 0.02656,0.223418 0.07364,0.279397 0.03655,0.493414 -0.111225,0.641489 -0.05038,0.05044 -0.122907,0.101442 -0.144386,0.101442 -0.0026,0 -0.01126,-0.02196 -0.01926,-0.04886 z m 3.842108,-0.09863 c 0.0867,-0.09142 0.154342,-0.207803 0.192391,-0.331086 0.02443,-0.07915 0.02001,-0.09063 -0.0068,-0.01745 -0.02778,0.07577 -0.07762,0.156305 -0.144375,0.233247 -0.05947,0.06857 -0.159091,0.160291 -0.174065,0.160291 -0.01183,0 -0.04112,-0.05956 -0.05912,-0.12039 -0.02165,-0.07307 -0.01965,-0.197444 0.0045,-0.276604 0.03811,-0.12531 0.119164,-0.240645 0.241939,-0.344248 0.129091,-0.108984 0.208585,-0.22254 0.232781,-0.332662 0.01103,-0.05021 0.01307,-0.05325 0.02537,-0.03727 0.02637,0.03411 0.09409,0.186197 0.113417,0.254684 0.02827,0.100315 0.03453,0.252308 0.0147,0.357217 -0.05623,0.297434 -0.215464,0.474984 -0.450445,0.502264 l -0.04023,0.0045 z M 37.093355,71.87824 c -0.05423,-0.106395 -0.09316,-0.29526 -0.08823,-0.428181 0.0043,-0.113026 -0.0069,-0.09424 -0.0218,0.03704 -0.01226,0.107859 -9.27e-4,0.230534 0.02935,0.318657 0.01036,0.03017 0.01727,0.05629 0.01538,0.0581 -0.0059,0.0056 -0.09211,-0.0662 -0.130117,-0.108309 -0.04321,-0.04796 -0.08544,-0.134396 -0.10009,-0.204752 -0.0065,-0.0313 -0.0088,-0.09041 -0.0055,-0.14955 0.01441,-0.271504 0.148475,-0.503209 0.381282,-0.658951 0.06522,-0.04357 0.08151,-0.0465 0.06236,-0.01013 -0.01722,0.0322 -0.02226,0.165931 -0.009,0.237998 0.0064,0.03513 0.0284,0.107859 0.04872,0.161608 0.05552,0.146927 0.07234,0.222586 0.07234,0.325355 0,0.177708 -0.0604,0.312532 -0.184702,0.412295 -0.02386,0.01914 -0.04641,0.03479 -0.05011,0.0349 -0.0037,6.7e-5 -0.01262,-0.01137 -0.0198,-0.02545 z m -2.915158,-0.0068 c -0.122059,-0.03029 -0.213326,-0.108422 -0.2784,-0.238449 -0.06013,-0.120142 -0.08396,-0.232493 -0.07752,-0.365695 0.0056,-0.116156 0.02532,-0.192018 0.07907,-0.304324 l 0.03341,-0.0698 0.01585,0.0528 c 0.03025,0.100991 0.08711,0.174566 0.21681,0.280613 0.14426,0.117957 0.216612,0.22558 0.244892,0.364254 0.01709,0.08376 0.0081,0.1687 -0.0261,0.248367 l -0.01944,0.04515 -0.03844,-0.02815 c -0.103963,-0.076 -0.22475,-0.220795 -0.26217,-0.314367 -0.02399,-0.06001 -0.02671,-0.04064 -0.0032,0.0224 0.03907,0.104481 0.09884,0.198087 0.173292,0.271178 l 0.04978,0.04886 -0.03068,-8.44e-4 c -0.01687,-5.86e-4 -0.05161,-0.0068 -0.07721,-0.01227 z m 5.372514,-0.101554 c 0.07563,-0.08118 0.135058,-0.181209 0.173029,-0.291365 0.02899,-0.0841 0.0311,-0.118509 0.0028,-0.04413 -0.02527,0.0662 -0.08174,0.159322 -0.137528,0.226864 -0.0531,0.06429 -0.165004,0.16744 -0.181656,0.16744 -0.0128,0 -0.0544,-0.08793 -0.06656,-0.140678 -0.01246,-0.05404 -0.01233,-0.153671 2.81e-4,-0.214941 0.02592,-0.126008 0.128702,-0.282144 0.254857,-0.387177 0.128883,-0.107296 0.220643,-0.240779 0.234371,-0.340937 0.0077,-0.05641 0.01814,-0.04717 0.07231,0.06418 0.07103,0.145992 0.0847,0.208185 0.084,0.381885 -5.44e-4,0.134947 -0.0029,0.156801 -0.02613,0.232403 -0.07476,0.244236 -0.217052,0.3788 -0.432948,0.409424 l -0.04076,0.0056 0.06404,-0.06868 z m -1.532873,0.01452 c -0.02254,-0.01914 -0.05265,-0.0474 -0.0669,-0.06282 -0.03871,-0.04166 -0.08941,-0.149685 -0.104875,-0.223418 -0.02841,-0.135296 -0.01376,-0.244022 0.05995,-0.444867 0.06646,-0.181097 0.07918,-0.303783 0.04116,-0.396724 -0.0071,-0.01745 -0.01103,-0.03355 -0.0087,-0.03591 0.0063,-0.0068 0.133401,0.08376 0.192905,0.136838 0.155403,0.138539 0.258368,0.369591 0.261605,0.58702 0.002,0.135634 -0.02889,0.233686 -0.102139,0.323936 -0.02942,0.03637 -0.121739,0.11359 -0.135595,0.11359 -0.003,0 1.06e-4,-0.01385 0.0071,-0.03074 0.03007,-0.07194 0.04478,-0.184384 0.03917,-0.299538 -0.0029,-0.06159 -0.0098,-0.124533 -0.01511,-0.13989 -0.0082,-0.02387 -0.0092,-0.01982 -0.0062,0.02792 0.0018,0.03074 -4.02e-4,0.09469 -0.0052,0.142153 -0.01278,0.128699 -0.07775,0.337278 -0.105067,0.337278 -0.0061,0 -0.02958,-0.01576 -0.05212,-0.0349 z m 2.078642,-0.03749 -0.02096,-0.0068 0.02744,-0.05798 c 0.03826,-0.08084 0.09505,-0.161811 0.142141,-0.202827 0.02359,-0.02049 0.03039,-0.02983 0.01665,-0.02274 -0.04066,0.02105 -0.130588,0.113555 -0.165861,0.170705 l -0.03405,0.05517 -0.0083,-0.04109 c -0.01058,-0.05246 0.0061,-0.13819 0.03749,-0.191669 0.05061,-0.08635 0.187541,-0.181231 0.306187,-0.212125 0.06356,-0.01655 0.201676,-0.01745 0.268726,-0.0023 l 0.04579,0.01126 -0.04751,0.0295 c -0.05851,0.03637 -0.09305,0.08264 -0.153026,0.204977 -0.08524,0.173981 -0.190611,0.259874 -0.329107,0.268273 -0.03555,0.0023 -0.07407,8.67e-4 -0.08561,-0.0023 z m -4.09253,-0.106732 c -0.0812,-0.127213 -0.134978,-0.276695 -0.143195,-0.397963 -0.0044,-0.06384 -0.0069,-0.07375 -0.013,-0.05123 -0.02203,0.08061 0.03104,0.337559 0.09081,0.439856 0.01272,0.02173 0.02149,0.03963 0.0195,0.03963 -0.02943,0 -0.17347,-0.101216 -0.210403,-0.147839 -0.130597,-0.164895 -0.147198,-0.470435 -0.0383,-0.705056 0.05629,-0.121313 0.146987,-0.242682 0.231149,-0.309356 l 0.03435,-0.02725 -0.0034,0.08388 c -0.0028,0.07172 3.73e-4,0.09536 0.02206,0.16189 0.01394,0.04278 0.04843,0.116674 0.07665,0.164028 0.10555,0.177145 0.142067,0.286547 0.141875,0.425029 -1.4e-4,0.09007 -0.0152,0.157161 -0.05155,0.229003 -0.02564,0.05066 -0.101363,0.144202 -0.116746,0.144202 -0.0048,0 -0.02274,-0.02207 -0.0399,-0.04886 z m -2.561177,-0.04796 c -0.10778,-0.03423 -0.19799,-0.112981 -0.247068,-0.215818 -0.05471,-0.114626 -0.07918,-0.304369 -0.05479,-0.424646 0.01958,-0.09649 0.06054,-0.193076 0.119297,-0.2813 l 0.0243,-0.03648 0.0061,0.04886 c 0.0107,0.08613 0.05432,0.15716 0.174207,0.28345 0.114432,0.120547 0.16153,0.192941 0.191212,0.293943 0.01902,0.06474 0.01902,0.169286 9e-6,0.234002 -0.0156,0.05314 -0.04658,0.111123 -0.05938,0.111123 -0.01194,0 -0.111237,-0.102342 -0.149522,-0.154098 -0.03844,-0.0519 -0.08394,-0.138438 -0.101723,-0.19329 -0.01741,-0.0537 -0.0201,-0.03637 -0.0042,0.02657 0.02031,0.08005 0.08956,0.215189 0.139261,0.27191 0.03923,0.04481 0.041,0.04886 0.02117,0.04819 -0.01192,-2.93e-4 -0.03843,-0.0068 -0.05891,-0.01238 z m 4.086756,-0.250101 c -0.02379,-0.0698 -0.0215,-0.259345 0.0039,-0.326189 0.006,-0.01542 0.0062,-0.02387 9.28e-4,-0.0206 -0.0217,0.0134 -0.04971,0.140757 -0.05052,0.229802 l -8.32e-4,0.09007 -0.02547,-0.02961 c -0.07744,-0.08973 -0.09575,-0.20232 -0.05394,-0.33175 0.02924,-0.09052 0.101419,-0.197434 0.1708,-0.252951 0.05051,-0.04042 0.141476,-0.09086 0.19019,-0.105381 l 0.02102,-0.0068 -0.01896,0.0322 c -0.03518,0.05956 -0.04149,0.134441 -0.02258,0.267992 0.01385,0.09784 0.01507,0.131153 0.0068,0.184745 -0.01193,0.07701 -0.04001,0.139293 -0.08578,0.189935 -0.05057,0.05584 -0.127906,0.100428 -0.135567,0.07802 z m -1.088431,-0.227348 c -0.03849,-0.183878 -0.02941,-0.414986 0.02219,-0.564727 0.02752,-0.07982 0.01666,-0.07408 -0.01819,0.009 -0.05672,0.136264 -0.07679,0.234823 -0.07808,0.383731 l -0.0012,0.13354 -0.03517,-0.04042 c -0.08154,-0.09378 -0.122068,-0.18202 -0.136533,-0.297219 -0.02397,-0.190892 0.0695,-0.442345 0.236283,-0.635691 0.09951,-0.115346 0.32372,-0.254932 0.46362,-0.288629 l 0.02551,-0.0068 -0.03182,0.05843 c -0.06253,0.114636 -0.07497,0.257915 -0.04157,0.478642 0.03156,0.208512 0.01324,0.356632 -0.06376,0.515257 -0.0458,0.09435 -0.15766,0.208174 -0.245675,0.249944 -0.07586,0.03592 -0.08879,0.03648 -0.09564,0.0045 z m -1.897762,-0.05629 c -0.08837,-0.12004 -0.166433,-0.302759 -0.182383,-0.426897 l -0.0081,-0.06373 -0.0011,0.05584 c -0.0024,0.122327 0.0458,0.300519 0.109986,0.406351 0.01971,0.03254 0.03445,0.06057 0.03273,0.06237 -0.0018,0.0023 -0.03484,-0.01205 -0.07361,-0.03062 -0.196784,-0.09469 -0.293779,-0.274331 -0.293779,-0.544248 0,-0.152522 0.02561,-0.265571 0.08884,-0.392176 0.0359,-0.07183 0.124918,-0.193166 0.182447,-0.248548 l 0.0409,-0.0394 -0.0035,0.06935 c -0.006,0.117248 0.03379,0.222754 0.147226,0.391117 0.117817,0.174871 0.149318,0.258737 0.156044,0.415403 0.0041,0.09435 0.0019,0.117417 -0.0168,0.180421 -0.02191,0.07375 -0.07099,0.15957 -0.113734,0.19875 l -0.0239,0.02195 z m 4.62009,-0.03817 c -0.06827,-0.06688 -0.107149,-0.144596 -0.121865,-0.243898 -0.01362,-0.09198 -0.002,-0.167485 0.04792,-0.312317 0.05224,-0.151408 0.05915,-0.260348 0.02226,-0.350868 -0.01298,-0.03186 0.106519,0.05055 0.181024,0.124815 0.109852,0.109547 0.162955,0.214389 0.192084,0.379307 0.02011,0.113825 0.0035,0.219207 -0.0473,0.300045 -0.01921,0.03062 -0.124527,0.134092 -0.130209,0.127989 -0.0014,-9.23e-4 0.0057,-0.03411 0.01583,-0.07251 0.01496,-0.05697 0.01755,-0.09041 0.01407,-0.181525 -0.0024,-0.06147 -0.0087,-0.122179 -0.01389,-0.134981 -0.0073,-0.01756 -0.0084,-0.0045 -0.0047,0.05584 0.0036,0.05866 3.6e-5,0.102004 -0.01371,0.167564 -0.02297,0.109322 -0.05477,0.195474 -0.07219,0.195474 -0.0071,0 -0.03834,-0.02466 -0.06922,-0.05494 z m -0.650708,-0.0079 c -0.117025,-0.06913 -0.214975,-0.204864 -0.251718,-0.348672 -0.03866,-0.151306 -0.03406,-0.266111 0.01911,-0.477573 0.04834,-0.192232 0.04636,-0.359976 -0.0055,-0.465121 -0.01254,-0.02545 -0.02132,-0.04774 -0.01953,-0.04954 0.007,-0.0079 0.162454,0.07724 0.2286,0.123914 0.237054,0.167091 0.39175,0.43846 0.407049,0.714029 0.0096,0.173892 -0.03503,0.295531 -0.152633,0.415493 -0.06317,0.06451 -0.06914,0.06857 -0.06428,0.04323 0.02074,-0.107971 0.02623,-0.207543 0.01638,-0.296611 -0.01136,-0.102792 -0.04121,-0.227911 -0.06338,-0.265886 -0.0087,-0.01497 -0.01174,-0.017 -0.008,-0.0056 0.03351,0.103918 0.04168,0.297062 0.01854,0.437537 -0.01733,0.10527 -0.04372,0.202309 -0.05607,0.206407 -0.0052,0.0023 -0.03605,-0.01261 -0.06857,-0.03175 z m -3.14465,-0.05359 c -0.231622,-0.05033 -0.368852,-0.234677 -0.412601,-0.5542 -0.02267,-0.165638 0.02857,-0.378226 0.128937,-0.534812 l 0.02395,-0.03738 0.0069,0.04594 c 0.0038,0.02533 0.0224,0.07769 0.04141,0.116359 0.03013,0.06136 0.05438,0.09007 0.189019,0.223914 0.164538,0.163623 0.199792,0.211709 0.240055,0.327359 0.04532,0.130196 0.03802,0.264783 -0.02063,0.380512 l -0.02392,0.04717 -0.0438,-0.0367 c -0.113786,-0.09536 -0.216865,-0.227336 -0.268974,-0.344202 -0.03975,-0.08917 -0.03242,-0.03794 0.0091,0.06339 0.04161,0.101554 0.09654,0.188967 0.161438,0.256846 0.06138,0.06417 0.06049,0.06552 -0.03081,0.04571 z M 33.57618,70.624846 c -0.181408,-0.07465 -0.306461,-0.255596 -0.335504,-0.485544 -0.0086,-0.06767 -0.0084,-0.119512 6.6e-4,-0.234103 0.01645,-0.208478 -0.0039,-0.33524 -0.06973,-0.432955 -0.03572,-0.05314 -0.03121,-0.05461 0.06736,-0.02139 0.254646,0.08545 0.43689,0.243076 0.552902,0.478125 0.06627,0.134283 0.09039,0.25205 0.07453,0.363883 -0.01145,0.08061 -0.0297,0.128045 -0.07914,0.205235 -0.06286,0.09818 -0.06494,0.09761 -0.06698,-0.01711 -0.0021,-0.120086 -0.03249,-0.246533 -0.08724,-0.363387 -0.04239,-0.09052 -0.05665,-0.09818 -0.02174,-0.01171 0.04148,0.102679 0.0537,0.179554 0.05422,0.340993 5.16e-4,0.153727 -0.0054,0.200304 -0.02511,0.199922 -0.0063,-1.35e-4 -0.03521,-0.01013 -0.06423,-0.02195 z m -0.738763,-0.06992 c -0.120814,-0.04346 -0.201527,-0.127505 -0.289933,-0.301678 -0.06621,-0.130443 -0.141509,-0.222382 -0.192652,-0.235206 -0.07348,-0.01846 0.04201,-0.04594 0.189606,-0.04503 0.0901,5.74e-4 0.118253,0.0045 0.177772,0.02499 0.142885,0.04898 0.269437,0.146104 0.323959,0.24839 0.0325,0.06102 0.04667,0.152533 0.03401,0.219939 l -0.0066,0.03569 -0.02914,-0.05438 c -0.03164,-0.059 -0.117288,-0.152556 -0.182473,-0.199392 -0.05534,-0.03974 -0.06962,-0.03749 -0.01853,0.0023 0.06189,0.04898 0.123944,0.129521 0.171609,0.222766 0.03911,0.07645 0.04141,0.08455 0.02591,0.09063 -0.03396,0.0134 -0.155694,0.0079 -0.203446,-0.009 z m 4.917439,-0.05855 c -0.08604,-0.07025 -0.127631,-0.169658 -0.127579,-0.304797 2.8e-5,-0.08219 0.0035,-0.09896 0.04264,-0.210324 0.04685,-0.133135 0.06307,-0.252883 0.04232,-0.31243 -0.0059,-0.01666 -0.0092,-0.03175 -0.0074,-0.03355 0.0018,-0.0023 0.0324,0.01734 0.0681,0.04245 0.14977,0.105269 0.235609,0.246972 0.264509,0.436952 0.01332,0.08759 -4.59e-4,0.172112 -0.04021,0.24669 -0.03676,0.06902 -0.155882,0.177066 -0.132555,0.120288 0.02225,-0.05415 0.03222,-0.119759 0.03149,-0.207127 -0.0011,-0.142715 -0.01343,-0.166415 -0.01923,-0.03727 -0.0039,0.08804 -0.01025,0.123171 -0.03534,0.197816 -0.01679,0.04988 -0.03524,0.09063 -0.04099,0.09052 -0.0056,-1.69e-4 -0.02634,-0.01328 -0.04577,-0.02916 z m -0.616226,-0.05663 c -0.05182,-0.06046 -0.09621,-0.159153 -0.108827,-0.24204 -0.02148,-0.141038 0.02298,-0.300642 0.12771,-0.458433 0.08607,-0.129701 0.130575,-0.262791 0.122546,-0.366506 l -0.0045,-0.05933 0.0599,0.05933 c 0.105404,0.104256 0.186325,0.238134 0.221773,0.366798 0.02401,0.08714 0.02951,0.283912 0.01036,0.370154 -0.0324,0.145666 -0.111653,0.252151 -0.235771,0.316821 -0.03712,0.01925 -0.0675,0.03287 -0.0675,0.02984 0,-0.0023 0.01226,-0.02725 0.02726,-0.05404 0.05261,-0.09401 0.09511,-0.26788 0.09273,-0.379195 l -8.91e-4,-0.04188 -0.0074,0.03265 c -0.0039,0.01801 -0.01233,0.05978 -0.01842,0.09311 -0.0061,0.03333 -0.02684,0.09885 -0.04614,0.145891 -0.03554,0.08658 -0.116415,0.226469 -0.130913,0.226469 -0.0044,0 -0.02318,-0.01779 -0.04184,-0.03963 z m 2.600835,-0.02578 c 0.05423,-0.04278 0.114982,-0.116382 0.141682,-0.171459 l 0.01836,-0.03794 -0.02116,0.02803 c -0.04735,0.06249 -0.11722,0.129048 -0.177939,0.169421 -0.07184,0.04774 -0.07596,0.04661 -0.08661,-0.02376 -0.02275,-0.15054 0.04905,-0.287458 0.203667,-0.388313 0.129807,-0.08467 0.183613,-0.138179 0.206818,-0.205675 0.01129,-0.03288 0.01214,-0.03333 0.02261,-0.01385 0.0212,0.03963 0.04725,0.163409 0.04713,0.223902 -4.3e-4,0.189969 -0.111292,0.386963 -0.24616,0.437436 -0.03008,0.01126 -0.07425,0.01959 -0.103985,0.01959 h -0.05169 z m -4.086567,-0.04312 c -0.03607,-0.08309 -0.0643,-0.214502 -0.06546,-0.304752 -0.0016,-0.120682 -0.01515,-0.05798 -0.01588,0.0733 -4.02e-4,0.07104 0.0046,0.12236 0.01653,0.167564 0.0093,0.03592 0.0159,0.06643 0.01445,0.068 -0.0087,0.009 -0.107352,-0.08635 -0.132932,-0.128991 -0.04438,-0.07386 -0.05338,-0.112925 -0.05238,-0.227629 7.75e-4,-0.08849 0.005,-0.114625 0.03062,-0.192919 0.03526,-0.107408 0.09809,-0.206834 0.17524,-0.277359 0.05086,-0.0465 0.140074,-0.111574 0.152946,-0.111574 0.0034,0 -8e-6,0.01993 -0.0077,0.04425 -0.02572,0.08253 -0.01205,0.160223 0.06746,0.384002 0.07186,0.202274 0.01933,0.417125 -0.128547,0.525738 l -0.0348,0.02556 z m -0.868375,-0.312588 c -0.03781,-0.06451 -0.07117,-0.16288 -0.07952,-0.23453 l -0.0078,-0.06631 -0.0012,0.07318 c -0.0012,0.07397 0.01655,0.16413 0.04212,0.213579 0.0077,0.01475 0.01221,0.0286 0.01013,0.03062 -0.002,0.0023 -0.02647,-0.01205 -0.05421,-0.0313 -0.05446,-0.03794 -0.104526,-0.103918 -0.120336,-0.158692 -0.02932,-0.101554 -0.01603,-0.251407 0.03175,-0.358422 0.02802,-0.06271 0.09687,-0.153209 0.14931,-0.196183 l 0.04163,-0.03411 -0.0054,0.04582 c -0.0078,0.06553 0.01047,0.129937 0.07263,0.257341 0.04023,0.0823 0.05716,0.129239 0.0645,0.178473 0.01827,0.122597 -0.01833,0.233642 -0.10018,0.303975 -0.01955,0.01678 -0.02007,0.01655 -0.04345,-0.02342 z m 4.17638,-0.0079 c -0.06621,-0.03805 -0.118616,-0.10662 -0.143207,-0.187548 -0.0176,-0.05798 -0.01902,-0.07701 -0.01271,-0.173745 0.01349,-0.20698 0.01092,-0.280736 -0.01146,-0.329701 -0.01115,-0.02432 -0.01761,-0.04425 -0.01445,-0.04425 0.0032,0 0.04105,0.01711 0.08416,0.03794 0.142614,0.06902 0.249347,0.198075 0.295706,0.357555 0.03081,0.105945 0.0014,0.238866 -0.0677,0.304966 l -0.02607,0.02499 0.0035,-0.06924 c 0.0038,-0.07442 -0.01683,-0.187728 -0.04144,-0.228046 -0.0099,-0.01621 -0.01243,-0.01756 -0.0083,-0.0045 0.01921,0.06068 0.02521,0.121065 0.02034,0.204627 -0.0055,0.09367 -0.01275,0.135252 -0.02371,0.135094 -0.0033,-3.4e-5 -0.02783,-0.01272 -0.05464,-0.02815 z m -2.764142,-0.07206 c -0.09229,-0.08669 -0.134607,-0.18426 -0.140694,-0.324432 -0.0055,-0.127786 0.0167,-0.21431 0.09428,-0.366742 0.08061,-0.158376 0.100957,-0.220255 0.102522,-0.311856 6.88e-4,-0.04098 -0.002,-0.08624 -0.0061,-0.10054 -0.007,-0.02488 -0.0063,-0.02544 0.01396,-0.01475 0.04143,0.02218 0.172082,0.164186 0.21645,0.235375 0.08028,0.128811 0.116652,0.262261 0.116652,0.428035 0,0.157239 -0.04096,0.267136 -0.133133,0.357217 -0.04166,0.04064 -0.146142,0.11225 -0.146142,0.10009 0,-0.0023 0.01081,-0.02837 0.02389,-0.05798 0.04204,-0.09469 0.05991,-0.190611 0.05853,-0.314445 l -0.0012,-0.111687 -0.0071,0.0805 c -0.01176,0.131975 -0.06469,0.289811 -0.136176,0.405956 l -0.0186,0.03017 z m 3.189914,-0.02758 c 0.04304,-0.02792 0.162644,-0.156958 0.192712,-0.207994 0.04871,-0.08264 0.04607,-0.09255 -0.0054,-0.02038 -0.06769,0.09502 -0.250094,0.239856 -0.279226,0.221854 -0.01267,-0.0079 -0.0291,-0.08309 -0.0291,-0.133214 0,-0.157352 0.100473,-0.308073 0.274621,-0.41198 0.108276,-0.06463 0.200404,-0.156203 0.225924,-0.224612 l 0.01864,-0.04999 0.01514,0.03625 c 0.04699,0.112475 0.0623,0.261045 0.03897,0.378316 -0.02217,0.111461 -0.0909,0.249933 -0.155832,0.313894 -0.02736,0.02691 -0.06304,0.05708 -0.07927,0.06688 -0.04585,0.0277 -0.121893,0.04706 -0.183938,0.0465 -0.05551,-5.74e-4 -0.05608,-8.67e-4 -0.03322,-0.01554 z m -5.247274,-0.05708 c -0.09534,-0.03288 -0.165555,-0.109886 -0.200868,-0.220143 -0.0278,-0.0868 -0.02943,-0.244663 -0.0034,-0.321178 0.02264,-0.06631 0.05728,-0.13596 0.08787,-0.176683 l 0.02433,-0.03231 0.0071,0.04177 c 0.01146,0.06733 0.05769,0.147929 0.132785,0.231547 0.09657,0.107521 0.128397,0.174398 0.133464,0.280388 0.0043,0.08838 -0.01047,0.151926 -0.04525,0.195373 l -0.01863,0.02331 -0.03842,-0.04188 c -0.05411,-0.059 -0.1068,-0.142659 -0.130102,-0.206553 -0.01092,-0.02995 -0.02135,-0.05314 -0.02313,-0.05123 -0.0018,0.0023 0.0029,0.02713 0.01058,0.05618 0.01646,0.06316 0.06173,0.155787 0.09975,0.204054 0.03129,0.03963 0.02978,0.04042 -0.03613,0.01756 z m 1.110239,-0.26314 c 0.009,-0.09074 0.0325,-0.184046 0.06011,-0.238505 0.03041,-0.06001 0.03373,-0.07183 0.01242,-0.04436 -0.03183,0.04109 -0.07962,0.148975 -0.096,0.216775 l -0.01735,0.07172 -0.01969,-0.04346 c -0.06323,-0.139552 -0.03139,-0.277033 0.09587,-0.41395 0.09024,-0.09705 0.210687,-0.159221 0.340784,-0.175772 l 0.05119,-0.0068 -0.02458,0.02657 c -0.05019,0.05438 -0.07626,0.132065 -0.08696,0.259334 -0.0078,0.09221 -0.02212,0.150461 -0.05176,0.209716 -0.04745,0.09491 -0.141536,0.170897 -0.225827,0.182459 l -0.04317,0.0068 z m 3.2387,0.0068 c -0.05359,-0.017 -0.08889,-0.03693 -0.123132,-0.06958 -0.121079,-0.115863 -0.157288,-0.347793 -0.083,-0.531694 0.02112,-0.05224 0.08003,-0.14893 0.09077,-0.14893 0.0033,0 0.0079,0.02072 0.01036,0.04605 0.0056,0.05978 0.04588,0.125794 0.139075,0.229025 0.105596,0.116956 0.144972,0.211462 0.135786,0.325873 -0.0046,0.05764 -0.04481,0.162351 -0.06232,0.162351 -0.01193,0 -0.07967,-0.07712 -0.116631,-0.132785 -0.01871,-0.02815 -0.04411,-0.07577 -0.05646,-0.105832 -0.02668,-0.06485 -0.03037,-0.04661 -0.0053,0.02612 0.02381,0.06924 0.04306,0.10572 0.08619,0.163567 0.02005,0.02691 0.03318,0.04852 0.02917,0.04819 -0.0039,-2.92e-4 -0.02405,-0.0068 -0.04453,-0.01238 z m -1.629659,-0.132167 c 0.0091,-0.08838 0.02942,-0.164152 0.06222,-0.231052 0.02208,-0.04503 0.0237,-0.05179 0.0079,-0.03333 -0.03283,0.03862 -0.08436,0.156474 -0.09711,0.222203 l -0.01196,0.0617 -0.02648,-0.05584 c -0.05456,-0.115075 -0.02912,-0.244168 0.07337,-0.372236 0.054,-0.06744 0.10456,-0.109097 0.177422,-0.146003 0.05574,-0.02815 0.176947,-0.0635 0.21804,-0.0635 h 0.0229 l -0.02902,0.02961 c -0.03831,0.03918 -0.06567,0.114997 -0.07664,0.212306 -0.01455,0.129115 -0.02721,0.188066 -0.0514,0.239214 -0.04661,0.09863 -0.145496,0.180298 -0.23556,0.194709 l -0.04027,0.0068 z m 1.041476,-0.09435 c -0.09601,-0.127359 -0.150386,-0.238989 -0.179808,-0.369185 -0.02077,-0.09198 -0.0239,-0.05697 -0.0047,0.0528 0.01876,0.107634 0.06216,0.223722 0.111923,0.299494 0.04098,0.06237 0.04106,0.06271 0.01585,0.05652 -0.05662,-0.01396 -0.148893,-0.06834 -0.198435,-0.116787 -0.0607,-0.05945 -0.103704,-0.138269 -0.131183,-0.240543 -0.02778,-0.103468 -0.02745,-0.3025 6.31e-4,-0.406283 0.03451,-0.127505 0.108129,-0.259165 0.205587,-0.367711 l 0.0376,-0.04188 -0.0055,0.03805 c -0.01388,0.0939 0.04117,0.232302 0.152636,0.38371 0.09366,0.127235 0.116182,0.16673 0.146101,0.256249 0.03293,0.09863 0.03998,0.205156 0.01961,0.296701 -0.0156,0.07014 -0.06063,0.158827 -0.101858,0.200665 l -0.02081,0.02117 -0.0475,-0.06305 z m 1.303151,-0.265008 c 0.0055,-0.08309 0.03101,-0.188179 0.05896,-0.242514 0.02316,-0.04492 0.0059,-0.02747 -0.02297,0.02331 -0.0325,0.05731 -0.06503,0.158208 -0.06816,0.211495 -0.0011,0.02072 -0.0053,0.03749 -0.009,0.03749 -0.0037,0 -0.01863,-0.02409 -0.03309,-0.05348 -0.02262,-0.04594 -0.02628,-0.06462 -0.02628,-0.133157 0,-0.07318 0.0029,-0.08523 0.0348,-0.150012 0.04175,-0.08444 0.132214,-0.185532 0.205396,-0.229498 0.05383,-0.0322 0.154851,-0.0698 0.21248,-0.07859 l 0.03377,-0.0056 -0.03062,0.04548 c -0.03757,0.05584 -0.06017,0.149111 -0.06017,0.248391 0,0.208039 -0.107645,0.368014 -0.273734,0.406812 l -0.02704,0.0068 z m -4.208035,-0.0023 c -0.06049,-0.01621 -0.108962,-0.04639 -0.152778,-0.09491 -0.06315,-0.06992 -0.08683,-0.123419 -0.12466,-0.28175 -0.02081,-0.08703 -0.05258,-0.150608 -0.09801,-0.196037 l -0.03969,-0.03963 0.08358,0.0068 c 0.157402,0.01126 0.277628,0.06654 0.380089,0.175164 0.07827,0.08298 0.110189,0.150799 0.111124,0.236152 7.18e-4,0.06575 -0.01817,0.153603 -0.03308,0.153603 -0.0045,0 -0.0081,-0.009 -0.0081,-0.02218 0,-0.03389 -0.06972,-0.16574 -0.111911,-0.211608 l -0.03754,-0.04087 0.03759,0.05978 c 0.03567,0.05663 0.07457,0.160099 0.08881,0.235994 0.0063,0.03355 0.0056,0.03468 -0.02013,0.03411 -0.01466,-2.81e-4 -0.04854,-0.0068 -0.07531,-0.01374 z m 0.872032,-0.0492 c -0.08435,-0.05359 -0.140785,-0.142806 -0.159547,-0.252229 -0.0091,-0.05314 -0.0087,-0.08118 0.0024,-0.151656 0.01966,-0.126221 0.0168,-0.225005 -0.0081,-0.280826 -0.01115,-0.025 -0.02029,-0.04672 -0.02029,-0.0483 0,-0.0023 0.022,0.0068 0.04888,0.01677 0.07369,0.02961 0.169019,0.09559 0.216119,0.14946 0.08227,0.09401 0.142276,0.252939 0.132242,0.350158 -0.0057,0.05584 -0.04938,0.153355 -0.08265,0.184565 l -0.02135,0.02004 -5.16e-4,-0.09007 c -3.72e-4,-0.06598 -0.0061,-0.108534 -0.0215,-0.158647 -0.02538,-0.08275 -0.03503,-0.08298 -0.01556,-2.92e-4 0.0077,0.03276 0.0141,0.07926 0.01418,0.103355 2.12e-4,0.07014 -0.01946,0.184227 -0.03175,0.184227 -0.0061,0 -0.02963,-0.01171 -0.0524,-0.02623 z m 0.81172,-0.180826 c -0.04237,-0.14293 -0.04983,-0.19964 -0.04492,-0.34212 0.0025,-0.0742 0.0071,-0.145451 0.01036,-0.158253 0.0032,-0.01283 -8.33e-4,-0.0068 -0.0089,0.01385 -0.04243,0.108872 -0.05279,0.340149 -0.02054,0.458478 0.0073,0.02691 0.0097,0.04886 0.0052,0.04886 -0.01982,0 -0.130247,-0.124432 -0.156376,-0.176199 -0.08825,-0.174803 -0.07195,-0.393336 0.04672,-0.626864 0.07282,-0.143324 0.224208,-0.291208 0.377649,-0.368938 0.03136,-0.01599 0.05911,-0.02893 0.06168,-0.02893 0.0025,0 -0.0032,0.01587 -0.01271,0.03513 -0.0437,0.08838 -0.04501,0.230422 -0.0035,0.379138 0.06066,0.217429 0.06137,0.221156 0.06152,0.330467 2.11e-4,0.157802 -0.03704,0.274274 -0.121157,0.378834 -0.03739,0.04639 -0.13955,0.123869 -0.163517,0.123869 -0.0063,0 -0.02055,-0.0304 -0.03156,-0.06744 z"
         id="path26384-43-0-3-7"
         sodipodi:nodetypes="ccscccsscssssccccccscccsccssscsccccccccscscccsccccsscscsscscccccssccscsscsscccccssccccsccsscccccccscscscssccccccsccccsscccccssccccccccccscccsccscscccccccccccccccccccccssccsssccccsccccssscscscccccccssscsccscsscccccccccsscscscssscsccsscccsscsssscscssssssccccccccscssscsccccsscscccsscsccsccccccccsccssccscscsccccccccccsccsscscccssscscccsccsccccsscccsccsscccccccscccscsssccsccscccccssccscccccssccccsssccsscccscscccccscssssscsscccccccsscccscscccccsccccsccscccsccccccccccsssscccssssscccssscssssscsccccccccsccsscccssccccscccssscccsscccccccsccscsccsssccccscscsccsscscscccsssccccssccsccccssccscsscssssccsscccsssssssssscscscsccssccccccsccccssscssccccsscccsccsssccsssccccccccssccssccscscccscsscsscscccscccssscccsscccsscscssccsccsccscssccsscscsccscsssccssscsscccsscscccsscscssccccccscscsccccsscccccsscssssccsccccscscsscsccssccccscsccsssccscsccccccscsssccccssccccsscccsssscccsccccscssccsscsccssccccccsssscsccscscc" /><path
         style="fill:#532600;fill-opacity:1;stroke-width:0.00930914"
         d="m 35.578756,76.713707 c 0,-0.009 0.01081,-0.05956 0.024,-0.111686 0.06591,-0.260179 0.189804,-0.504876 0.394432,-0.779004 0.172178,-0.230658 0.245035,-0.42406 0.271444,-0.720559 0.03633,-0.407927 -0.133601,-1.060101 -0.371364,-1.425199 -0.175101,-0.268893 -0.47054,-0.539879 -0.749839,-0.687774 -0.07802,-0.04121 -0.0687,-0.0474 0.06206,-0.04076 0.17088,0.0079 0.289318,0.06113 0.532166,0.235274 0.433725,0.311057 0.550026,0.318274 1.028662,0.06395 0.29672,-0.157667 0.511788,-0.248863 0.707694,-0.300091 0.172241,-0.04503 0.232415,-0.05246 0.423371,-0.0519 0.19048,5.63e-4 0.290865,0.01542 0.442185,0.06553 0.07628,0.02522 0.214163,0.08692 0.214023,0.09581 -3.6e-5,0.0023 -0.06812,0.0068 -0.151274,0.0079 -0.849766,0.01238 -1.362386,0.248108 -1.483698,0.681998 -0.0127,0.04548 -0.01689,0.093 -0.01681,0.190847 1.4e-4,0.186433 0.02916,0.28381 0.153958,0.516652 0.159691,0.29794 0.211641,0.481424 0.201269,0.710832 -0.0052,0.113387 -0.0086,0.130196 -0.08133,0.40161 -0.02373,0.08838 -0.03014,0.131075 -0.03077,0.204797 -7.17e-4,0.08422 0.0017,0.09829 0.02584,0.148232 0.03029,0.06271 0.110302,0.146781 0.199959,0.21019 0.110966,0.07847 0.172839,0.130804 0.217617,0.184125 0.0816,0.09716 0.136369,0.240633 0.13667,0.358039 l 1.41e-4,0.05337 -1.075207,0.0023 c -1.034174,0.0023 -1.075209,0.0023 -1.075208,-0.01452 z"
         id="path26384-43-8-1"
         sodipodi:nodetypes="ccssscccssscscsssccscssscccc" /></g></g><style
     type="text/css"
     id="style22731">
	.st0{fill:#FFFFFF;}
	.st1{fill:none;}
</style></svg>
