<?xml version="1.0" encoding="UTF-8" standalone="no"?>
<!-- Created with Inkscape (http://www.inkscape.org/) -->

<svg
   width="40.011765"
   height="50.003834"
   viewBox="0 0 10.586446 13.23018"
   version="1.1"
   id="svg5"
   xml:space="preserve"
   inkscape:version="1.2.2 (b0a8486541, 2022-12-01)"
   sodipodi:docname="tilemap-hover.svg"
   inkscape:export-filename="pokus-tile.png"
   inkscape:export-xdpi="96"
   inkscape:export-ydpi="96"
   xmlns:inkscape="http://www.inkscape.org/namespaces/inkscape"
   xmlns:sodipodi="http://sodipodi.sourceforge.net/DTD/sodipodi-0.dtd"
   xmlns:xlink="http://www.w3.org/1999/xlink"
   xmlns="http://www.w3.org/2000/svg"
   xmlns:svg="http://www.w3.org/2000/svg"><sodipodi:namedview
     id="namedview7"
     pagecolor="#ffffff"
     bordercolor="#000000"
     borderopacity="0.25"
     inkscape:showpageshadow="2"
     inkscape:pageopacity="0.0"
     inkscape:pagecheckerboard="0"
     inkscape:deskcolor="#d1d1d1"
     inkscape:document-units="px"
     showgrid="false"
     showguides="true"
     inkscape:zoom="5.6568544"
     inkscape:cx="72.831997"
     inkscape:cy="70.180346"
     inkscape:window-width="2560"
     inkscape:window-height="1011"
     inkscape:window-x="0"
     inkscape:window-y="0"
     inkscape:window-maximized="1"
     inkscape:current-layer="layer1"><sodipodi:guide
       position="-26.9875,-2.710965"
       orientation="-1,0"
       id="guide26882"
       inkscape:locked="false"
       inkscape:label=""
       inkscape:color="rgb(0,134,229)" /><sodipodi:guide
       position="-16.404167,-4.932133"
       orientation="-1,0"
       id="guide26884"
       inkscape:locked="false"
       inkscape:label=""
       inkscape:color="rgb(0,134,229)" /><sodipodi:guide
       position="-5.8208353,-4.604728"
       orientation="-1,0"
       id="guide26886"
       inkscape:locked="false"
       inkscape:label=""
       inkscape:color="rgb(0,134,229)" /><sodipodi:guide
       position="4.7624977,-4.932133"
       orientation="-1,0"
       id="guide26888"
       inkscape:locked="false"
       inkscape:label=""
       inkscape:color="rgb(0,134,229)" /><sodipodi:guide
       position="-39.952083,-3.716057"
       orientation="-1,0"
       id="guide26892"
       inkscape:locked="false"
       inkscape:label=""
       inkscape:color="rgb(0,134,229)" /><sodipodi:guide
       position="-29.36875,-3.388652"
       orientation="-1,0"
       id="guide26894"
       inkscape:locked="false"
       inkscape:label=""
       inkscape:color="rgb(0,134,229)" /><sodipodi:guide
       position="-18.785417,-7.364286"
       orientation="-1,0"
       id="guide26896"
       inkscape:locked="false"
       inkscape:label=""
       inkscape:color="rgb(0,134,229)" /><sodipodi:guide
       position="-8.2020843,-4.043462"
       orientation="-1,0"
       id="guide26898"
       inkscape:locked="false"
       inkscape:label=""
       inkscape:color="rgb(0,134,229)" /><sodipodi:guide
       position="2.3812477,-4.464412"
       orientation="-1,0"
       id="guide26900"
       inkscape:locked="false"
       inkscape:label=""
       inkscape:color="rgb(0,134,229)" /><sodipodi:guide
       position="-35.189583,-5.867577"
       orientation="-1,0"
       id="guide26902"
       inkscape:locked="false"
       inkscape:label=""
       inkscape:color="rgb(0,134,229)" /><sodipodi:guide
       position="-24.60625,-6.335298"
       orientation="-1,0"
       id="guide26904"
       inkscape:locked="false"
       inkscape:label=""
       inkscape:color="rgb(0,134,229)" /><sodipodi:guide
       position="-14.008836,-15.002462"
       orientation="-1,0"
       id="guide26906"
       inkscape:locked="false"
       inkscape:label=""
       inkscape:color="rgb(0,134,229)" /><sodipodi:guide
       position="-3.4395853,-5.72726"
       orientation="-1,0"
       id="guide26908"
       inkscape:locked="false"
       inkscape:label=""
       inkscape:color="rgb(0,134,229)" /><sodipodi:guide
       position="7.1437477,-3.388652"
       orientation="-1,0"
       id="guide26910"
       inkscape:locked="false"
       inkscape:label=""
       inkscape:color="rgb(0,134,229)" /><sodipodi:guide
       position="-48.154167,-5.914349"
       orientation="-1,0"
       id="guide26912"
       inkscape:locked="false"
       inkscape:label=""
       inkscape:color="rgb(0,134,229)" /><sodipodi:guide
       position="-43.2816,-6.084402"
       orientation="0,1"
       id="guide26914"
       inkscape:locked="false"
       inkscape:label=""
       inkscape:color="rgb(0,134,229)" /><sodipodi:guide
       position="-45.060222,-3.041694"
       orientation="0,1"
       id="guide26916"
       inkscape:locked="false"
       inkscape:label=""
       inkscape:color="rgb(0,134,229)" /><sodipodi:guide
       position="-45.479892,-9.12711"
       orientation="0,1"
       id="guide27644"
       inkscape:locked="false"
       inkscape:label=""
       inkscape:color="rgb(0,134,229)" /><sodipodi:guide
       position="-50.535416,-1.057319"
       orientation="-1,0"
       id="guide28435"
       inkscape:locked="false"
       inkscape:label=""
       inkscape:color="rgb(0,134,229)" /><sodipodi:guide
       position="-45.772917,-2.115652"
       orientation="-1,0"
       id="guide28437"
       inkscape:locked="false"
       inkscape:label=""
       inkscape:color="rgb(0,134,229)" /><sodipodi:guide
       position="-55.255275,-19.313568"
       orientation="0,1"
       id="guide28619"
       inkscape:locked="false"
       inkscape:label=""
       inkscape:color="rgb(0,134,229)" /><sodipodi:guide
       position="-54.131464,-16.27086"
       orientation="0,1"
       id="guide28621"
       inkscape:locked="false"
       inkscape:label=""
       inkscape:color="rgb(0,134,229)" /><sodipodi:guide
       position="-55.348819,-22.356276"
       orientation="0,1"
       id="guide28623"
       inkscape:locked="false"
       inkscape:label=""
       inkscape:color="rgb(0,134,229)" /><sodipodi:guide
       position="-54.411859,-32.545964"
       orientation="0,-1"
       id="guide30297"
       inkscape:locked="false" /><sodipodi:guide
       position="-57.92412,-45.776931"
       orientation="0,-1"
       id="guide31859"
       inkscape:locked="false" /><sodipodi:guide
       position="-12.350948,20.376359"
       orientation="0,-1"
       id="guide33317"
       inkscape:locked="false" /><sodipodi:guide
       position="-51.337421,23.44295"
       orientation="0,1"
       id="guide36845"
       inkscape:locked="false"
       inkscape:label=""
       inkscape:color="rgb(0,134,229)" /><sodipodi:guide
       position="-3.3381703,36.601549"
       orientation="0,-1"
       id="guide36847"
       inkscape:locked="false" /></sodipodi:namedview><defs
     id="defs2"><linearGradient
       inkscape:collect="always"
       id="linearGradient38556"><stop
         style="stop-color:#714900;stop-opacity:1;"
         offset="0"
         id="stop38550" /><stop
         style="stop-color:#ed9b00;stop-opacity:1;"
         offset="0.5"
         id="stop38552" /><stop
         style="stop-color:#714900;stop-opacity:1;"
         offset="1"
         id="stop38554" /></linearGradient><linearGradient
       inkscape:collect="always"
       id="linearGradient5767"><stop
         style="stop-color:#fff699;stop-opacity:1;"
         offset="0"
         id="stop5763" /><stop
         style="stop-color:#fffbcb;stop-opacity:1;"
         offset="1"
         id="stop5765" /></linearGradient><linearGradient
       inkscape:collect="always"
       id="linearGradient5759"><stop
         style="stop-color:#ffee33;stop-opacity:1;"
         offset="0"
         id="stop5755" /><stop
         style="stop-color:#ccbb00;stop-opacity:1;"
         offset="1"
         id="stop5757" /></linearGradient><linearGradient
       inkscape:collect="always"
       xlink:href="#linearGradient5759"
       id="linearGradient8145"
       gradientUnits="userSpaceOnUse"
       gradientTransform="translate(49.714063,25.005487)"
       x1="12.900038"
       y1="13.800077"
       x2="12.94384"
       y2="13.756275" /><linearGradient
       inkscape:collect="always"
       xlink:href="#linearGradient5767"
       id="linearGradient8147"
       gradientUnits="userSpaceOnUse"
       gradientTransform="translate(49.714063,25.005487)"
       x1="12.435538"
       y1="13.368127"
       x2="3.4919937"
       y2="1.6133311" /><linearGradient
       inkscape:collect="always"
       xlink:href="#linearGradient38556"
       id="linearGradient42467"
       gradientUnits="userSpaceOnUse"
       gradientTransform="matrix(1,0,0,0.73420763,-34.56301,14.970938)"
       x1="35.55748"
       y1="17.39924"
       x2="37.215862"
       y2="17.39924" /><linearGradient
       inkscape:collect="always"
       xlink:href="#linearGradient38556"
       id="linearGradient42469"
       gradientUnits="userSpaceOnUse"
       gradientTransform="matrix(1,0,0,0.73103618,-34.563011,17.483849)"
       x1="35.55748"
       y1="17.39924"
       x2="37.215862"
       y2="17.39924" /><linearGradient
       inkscape:collect="always"
       xlink:href="#linearGradient38556"
       id="linearGradient42471"
       gradientUnits="userSpaceOnUse"
       gradientTransform="matrix(1,0,0,0.73420763,-34.56301,14.970938)"
       x1="35.55748"
       y1="17.39924"
       x2="37.215862"
       y2="17.39924" /><linearGradient
       inkscape:collect="always"
       xlink:href="#linearGradient38556"
       id="linearGradient42473"
       gradientUnits="userSpaceOnUse"
       gradientTransform="matrix(1,0,0,0.73103618,-34.563011,17.483849)"
       x1="35.55748"
       y1="17.39924"
       x2="37.215862"
       y2="17.39924" /><linearGradient
       inkscape:collect="always"
       xlink:href="#linearGradient38556"
       id="linearGradient42475"
       gradientUnits="userSpaceOnUse"
       gradientTransform="matrix(1,0,0,0.73420763,-34.56301,14.970938)"
       x1="35.55748"
       y1="17.39924"
       x2="37.215862"
       y2="17.39924" /><linearGradient
       inkscape:collect="always"
       xlink:href="#linearGradient38556"
       id="linearGradient42477"
       gradientUnits="userSpaceOnUse"
       gradientTransform="matrix(1,0,0,0.73103618,-34.563011,17.483849)"
       x1="35.55748"
       y1="17.39924"
       x2="37.215862"
       y2="17.39924" /><linearGradient
       inkscape:collect="always"
       xlink:href="#linearGradient38556"
       id="linearGradient42479"
       gradientUnits="userSpaceOnUse"
       gradientTransform="matrix(1,0,0,0.73420763,-34.56301,14.970938)"
       x1="35.55748"
       y1="17.39924"
       x2="37.215862"
       y2="17.39924" /><linearGradient
       inkscape:collect="always"
       xlink:href="#linearGradient38556"
       id="linearGradient42481"
       gradientUnits="userSpaceOnUse"
       gradientTransform="matrix(1,0,0,0.73103618,-34.563011,17.483849)"
       x1="35.55748"
       y1="17.39924"
       x2="37.215862"
       y2="17.39924" /><linearGradient
       inkscape:collect="always"
       xlink:href="#linearGradient38556"
       id="linearGradient42483"
       gradientUnits="userSpaceOnUse"
       gradientTransform="matrix(1,0,0,0.73420763,-34.56301,14.970938)"
       x1="35.55748"
       y1="17.39924"
       x2="37.215862"
       y2="17.39924" /><linearGradient
       inkscape:collect="always"
       xlink:href="#linearGradient38556"
       id="linearGradient42485"
       gradientUnits="userSpaceOnUse"
       gradientTransform="matrix(1,0,0,0.73103618,-34.563011,17.483849)"
       x1="35.55748"
       y1="17.39924"
       x2="37.215862"
       y2="17.39924" /><linearGradient
       inkscape:collect="always"
       xlink:href="#linearGradient38556"
       id="linearGradient42487"
       gradientUnits="userSpaceOnUse"
       gradientTransform="matrix(1,0,0,0.73420763,-34.56301,14.970938)"
       x1="35.55748"
       y1="17.39924"
       x2="37.215862"
       y2="17.39924" /><linearGradient
       inkscape:collect="always"
       xlink:href="#linearGradient38556"
       id="linearGradient42489"
       gradientUnits="userSpaceOnUse"
       gradientTransform="matrix(1,0,0,0.73103618,-34.563011,17.483849)"
       x1="35.55748"
       y1="17.39924"
       x2="37.215862"
       y2="17.39924" /><linearGradient
       inkscape:collect="always"
       xlink:href="#linearGradient38556"
       id="linearGradient42611"
       gradientUnits="userSpaceOnUse"
       gradientTransform="matrix(1,0,0,0.73420763,-34.56301,14.970938)"
       x1="35.55748"
       y1="17.39924"
       x2="37.215862"
       y2="17.39924" /><linearGradient
       inkscape:collect="always"
       xlink:href="#linearGradient38556"
       id="linearGradient42613"
       gradientUnits="userSpaceOnUse"
       gradientTransform="matrix(1,0,0,0.73103618,-34.563011,17.483849)"
       x1="35.55748"
       y1="17.39924"
       x2="37.215862"
       y2="17.39924" /><linearGradient
       inkscape:collect="always"
       xlink:href="#linearGradient38556"
       id="linearGradient42710"
       gradientUnits="userSpaceOnUse"
       gradientTransform="matrix(1,0,0,0.73420763,-34.56301,14.970938)"
       x1="35.55748"
       y1="17.39924"
       x2="37.215862"
       y2="17.39924" /><linearGradient
       inkscape:collect="always"
       xlink:href="#linearGradient38556"
       id="linearGradient42712"
       gradientUnits="userSpaceOnUse"
       gradientTransform="matrix(1,0,0,0.73103618,-34.563011,17.483849)"
       x1="35.55748"
       y1="17.39924"
       x2="37.215862"
       y2="17.39924" /><linearGradient
       inkscape:collect="always"
       xlink:href="#linearGradient38556"
       id="linearGradient42763"
       gradientUnits="userSpaceOnUse"
       gradientTransform="matrix(1,0,0,0.73420763,-34.56301,14.970938)"
       x1="35.55748"
       y1="17.39924"
       x2="37.215862"
       y2="17.39924" /><linearGradient
       inkscape:collect="always"
       xlink:href="#linearGradient38556"
       id="linearGradient42765"
       gradientUnits="userSpaceOnUse"
       gradientTransform="matrix(1,0,0,0.73103618,-34.563011,17.483849)"
       x1="35.55748"
       y1="17.39924"
       x2="37.215862"
       y2="17.39924" /></defs><g
     inkscape:label="tilemap"
     inkscape:groupmode="layer"
     id="layer1"
     transform="translate(-52.916666,-26.458332)"><g
       id="g2608"
       inkscape:label="bamboo9"><path
         style="fill:url(#linearGradient8145);fill-opacity:1;stroke:#000000;stroke-width:0.264583;stroke-linecap:round;stroke-linejoin:bevel;stroke-dasharray:none;stroke-opacity:1;paint-order:stroke fill markers"
         d="m 62.119088,26.789131 1.002942,1.000246 c 0.151069,0.151069 0.24879,0.326524 0.24879,0.479573 l -4.96e-4,10.61911 c 0,0.277758 -0.19657,0.668161 -0.695831,0.668161 l -7.949339,-0.0015 c -0.23838,0 -0.375639,-0.154451 -0.501405,-0.280218 l -1.042227,-1.037746 z"
         id="path2981-94-6"
         sodipodi:nodetypes="ccccccccc" /><rect
         style="fill:url(#linearGradient8147);fill-opacity:1;stroke:#000000;stroke-width:0.264583;stroke-linecap:round;stroke-linejoin:round;stroke-dasharray:none;stroke-opacity:1;paint-order:stroke fill markers"
         id="rect2763-78-8"
         width="9.260416"
         height="11.90625"
         x="53.048958"
         y="26.590624"
         ry="0.66145831" /><path
         style="fill:#999999;fill-opacity:1;stroke:#000000;stroke-width:0.132292;stroke-linecap:round;stroke-linejoin:bevel;stroke-dasharray:none;stroke-opacity:1;paint-order:stroke fill markers"
         d="m 62.188043,38.347501 1.022612,1.040683"
         id="path5834-4-9"
         sodipodi:nodetypes="cc" /><g
         id="g39853-8-8-4"
         transform="rotate(-30,28.578039,-70.213788)"><path
           style="fill:url(#linearGradient42467);fill-opacity:1;stroke:none;stroke-width:0.22671;stroke-linecap:round;stroke-linejoin:miter;stroke-dasharray:none;stroke-opacity:1;paint-order:stroke fill markers"
           d="m 1.1506436,26.603776 c 0.162607,0.649328 0.216285,1.372637 0,2.27727 0.40431,0.02745 0.811842,0.05303 1.354841,0 -0.104267,-0.759584 -0.123881,-1.515591 0,-2.265532 -0.346621,-0.02905 -0.689933,-0.0589 -1.354841,-0.01174 z"
           id="path12647-8-90-84-9-9"
           sodipodi:nodetypes="ccccc" /><path
           style="fill:url(#linearGradient42469);fill-opacity:1;stroke:none;stroke-width:0.22622;stroke-linecap:round;stroke-linejoin:miter;stroke-dasharray:none;stroke-opacity:1;paint-order:stroke fill markers"
           d="m 1.1506436,29.066438 c 0.162607,0.646524 0.216285,1.366708 0,2.267434 0.40431,0.02733 0.811842,0.0528 1.354841,0 -0.104267,-0.756304 -0.123881,-1.509044 0,-2.255747 -0.346621,-0.02893 -0.689933,-0.05864 -1.354841,-0.01169 z"
           id="path12647-7-0-3-0-9-4"
           sodipodi:nodetypes="ccccc" /><path
           style="fill:#416f00;fill-opacity:1;stroke:none;stroke-width:0.264583;stroke-linecap:round;stroke-linejoin:miter;stroke-dasharray:none;stroke-opacity:1;paint-order:stroke fill markers"
           d="m 2.1464246,29.05038 c 0.680734,-0.0543 1.353037,-0.117837 1.730015,-0.998825 -0.849959,0.06668 -1.340938,0.483112 -1.730015,0.998825 z"
           id="path12739-17-0-08-3-6"
           sodipodi:nodetypes="ccc" /><path
           style="fill:#416f00;fill-opacity:1;stroke:none;stroke-width:0.264583;stroke-linecap:round;stroke-linejoin:miter;stroke-dasharray:none;stroke-opacity:1;paint-order:stroke fill markers"
           d="m 2.1357686,29.020199 c 0.680734,0.0543 1.353037,0.117837 1.730015,0.998825 -0.849959,-0.06668 -1.340938,-0.483112 -1.730015,-0.998825 z"
           id="path12739-1-91-3-6-9-8"
           sodipodi:nodetypes="ccc" /></g><g
         id="g39853-2-8-4-3"
         transform="rotate(-30,41.422808,-66.650009)"><path
           style="fill:url(#linearGradient42471);fill-opacity:1;stroke:none;stroke-width:0.22671;stroke-linecap:round;stroke-linejoin:miter;stroke-dasharray:none;stroke-opacity:1;paint-order:stroke fill markers"
           d="m 1.1506436,26.603776 c 0.162607,0.649328 0.216285,1.372637 0,2.27727 0.40431,0.02745 0.811842,0.05303 1.354841,0 -0.104267,-0.759584 -0.123881,-1.515591 0,-2.265532 -0.346621,-0.02905 -0.689933,-0.0589 -1.354841,-0.01174 z"
           id="path12647-8-90-3-23-6-2"
           sodipodi:nodetypes="ccccc" /><path
           style="fill:url(#linearGradient42473);fill-opacity:1;stroke:none;stroke-width:0.22622;stroke-linecap:round;stroke-linejoin:miter;stroke-dasharray:none;stroke-opacity:1;paint-order:stroke fill markers"
           d="m 1.1506436,29.066438 c 0.162607,0.646524 0.216285,1.366708 0,2.267434 0.40431,0.02733 0.811842,0.0528 1.354841,0 -0.104267,-0.756304 -0.123881,-1.509044 0,-2.255747 -0.346621,-0.02893 -0.689933,-0.05864 -1.354841,-0.01169 z"
           id="path12647-7-0-3-1-8-4-3"
           sodipodi:nodetypes="ccccc" /><path
           style="fill:#416f00;fill-opacity:1;stroke:none;stroke-width:0.264583;stroke-linecap:round;stroke-linejoin:miter;stroke-dasharray:none;stroke-opacity:1;paint-order:stroke fill markers"
           d="m 2.1464246,29.05038 c 0.680734,-0.0543 1.353037,-0.117837 1.730015,-0.998825 -0.849959,0.06668 -1.340938,0.483112 -1.730015,0.998825 z"
           id="path12739-17-0-8-5-5-6"
           sodipodi:nodetypes="ccc" /><path
           style="fill:#416f00;fill-opacity:1;stroke:none;stroke-width:0.264583;stroke-linecap:round;stroke-linejoin:miter;stroke-dasharray:none;stroke-opacity:1;paint-order:stroke fill markers"
           d="m 2.1357686,29.020199 c 0.680734,0.0543 1.353037,0.117837 1.730015,0.998825 -0.849959,-0.06668 -1.340938,-0.483112 -1.730015,-0.998825 z"
           id="path12739-1-91-3-7-0-5-2"
           sodipodi:nodetypes="ccc" /></g><g
         id="g39853-68-5-2"
         transform="rotate(-30,29.783627,-74.584229)"><path
           style="fill:url(#linearGradient42475);fill-opacity:1;stroke:none;stroke-width:0.22671;stroke-linecap:round;stroke-linejoin:miter;stroke-dasharray:none;stroke-opacity:1;paint-order:stroke fill markers"
           d="m 1.1506436,26.603776 c 0.162607,0.649328 0.216285,1.372637 0,2.27727 0.40431,0.02745 0.811842,0.05303 1.354841,0 -0.104267,-0.759584 -0.123881,-1.515591 0,-2.265532 -0.346621,-0.02905 -0.689933,-0.0589 -1.354841,-0.01174 z"
           id="path12647-8-90-5-6-4"
           sodipodi:nodetypes="ccccc" /><path
           style="fill:url(#linearGradient42477);fill-opacity:1;stroke:none;stroke-width:0.22622;stroke-linecap:round;stroke-linejoin:miter;stroke-dasharray:none;stroke-opacity:1;paint-order:stroke fill markers"
           d="m 1.1506436,29.066438 c 0.162607,0.646524 0.216285,1.366708 0,2.267434 0.40431,0.02733 0.811842,0.0528 1.354841,0 -0.104267,-0.756304 -0.123881,-1.509044 0,-2.255747 -0.346621,-0.02893 -0.689933,-0.05864 -1.354841,-0.01169 z"
           id="path12647-7-0-3-2-0-7"
           sodipodi:nodetypes="ccccc" /><path
           style="fill:#416f00;fill-opacity:1;stroke:none;stroke-width:0.264583;stroke-linecap:round;stroke-linejoin:miter;stroke-dasharray:none;stroke-opacity:1;paint-order:stroke fill markers"
           d="m 2.1464246,29.05038 c 0.680734,-0.0543 1.353037,-0.117837 1.730015,-0.998825 -0.849959,0.06668 -1.340938,0.483112 -1.730015,0.998825 z"
           id="path12739-17-0-83-6-0"
           sodipodi:nodetypes="ccc" /><path
           style="fill:#416f00;fill-opacity:1;stroke:none;stroke-width:0.264583;stroke-linecap:round;stroke-linejoin:miter;stroke-dasharray:none;stroke-opacity:1;paint-order:stroke fill markers"
           d="m 2.1357686,29.020199 c 0.680734,0.0543 1.353037,0.117837 1.730015,0.998825 -0.849959,-0.06668 -1.340938,-0.483112 -1.730015,-0.998825 z"
           id="path12739-1-91-3-67-2-4"
           sodipodi:nodetypes="ccc" /></g><g
         id="g39853-2-87-6-9"
         transform="rotate(-30,42.713049,-71.558667)"><path
           style="fill:url(#linearGradient42479);fill-opacity:1;stroke:none;stroke-width:0.22671;stroke-linecap:round;stroke-linejoin:miter;stroke-dasharray:none;stroke-opacity:1;paint-order:stroke fill markers"
           d="m 1.1506436,26.603776 c 0.162607,0.649328 0.216285,1.372637 0,2.27727 0.40431,0.02745 0.811842,0.05303 1.354841,0 -0.104267,-0.759584 -0.123881,-1.515591 0,-2.265532 -0.346621,-0.02905 -0.689933,-0.0589 -1.354841,-0.01174 z"
           id="path12647-8-90-3-26-9-6"
           sodipodi:nodetypes="ccccc" /><path
           style="fill:url(#linearGradient42481);fill-opacity:1;stroke:none;stroke-width:0.22622;stroke-linecap:round;stroke-linejoin:miter;stroke-dasharray:none;stroke-opacity:1;paint-order:stroke fill markers"
           d="m 1.1506436,29.066438 c 0.162607,0.646524 0.216285,1.366708 0,2.267434 0.40431,0.02733 0.811842,0.0528 1.354841,0 -0.104267,-0.756304 -0.123881,-1.509044 0,-2.255747 -0.346621,-0.02893 -0.689933,-0.05864 -1.354841,-0.01169 z"
           id="path12647-7-0-3-1-6-9-5"
           sodipodi:nodetypes="ccccc" /><path
           style="fill:#416f00;fill-opacity:1;stroke:none;stroke-width:0.264583;stroke-linecap:round;stroke-linejoin:miter;stroke-dasharray:none;stroke-opacity:1;paint-order:stroke fill markers"
           d="m 2.1464246,29.05038 c 0.680734,-0.0543 1.353037,-0.117837 1.730015,-0.998825 -0.849959,0.06668 -1.340938,0.483112 -1.730015,0.998825 z"
           id="path12739-17-0-8-2-2-4"
           sodipodi:nodetypes="ccc" /><path
           style="fill:#416f00;fill-opacity:1;stroke:none;stroke-width:0.264583;stroke-linecap:round;stroke-linejoin:miter;stroke-dasharray:none;stroke-opacity:1;paint-order:stroke fill markers"
           d="m 2.1357686,29.020199 c 0.680734,0.0543 1.353037,0.117837 1.730015,0.998825 -0.849959,-0.06668 -1.340938,-0.483112 -1.730015,-0.998825 z"
           id="path12739-1-91-3-7-97-9-6"
           sodipodi:nodetypes="ccc" /></g><g
         id="g39853-2-8-4-3-8"
         transform="rotate(-30,34.333443,-68.370451)"><path
           style="fill:url(#linearGradient42611);fill-opacity:1;stroke:none;stroke-width:0.22671;stroke-linecap:round;stroke-linejoin:miter;stroke-dasharray:none;stroke-opacity:1;paint-order:stroke fill markers"
           d="m 1.1506436,26.603776 c 0.162607,0.649328 0.216285,1.372637 0,2.27727 0.40431,0.02745 0.811842,0.05303 1.354841,0 -0.104267,-0.759584 -0.123881,-1.515591 0,-2.265532 -0.346621,-0.02905 -0.689933,-0.0589 -1.354841,-0.01174 z"
           id="path12647-8-90-3-23-6-2-9"
           sodipodi:nodetypes="ccccc" /><path
           style="fill:url(#linearGradient42613);fill-opacity:1;stroke:none;stroke-width:0.22622;stroke-linecap:round;stroke-linejoin:miter;stroke-dasharray:none;stroke-opacity:1;paint-order:stroke fill markers"
           d="m 1.1506436,29.066438 c 0.162607,0.646524 0.216285,1.366708 0,2.267434 0.40431,0.02733 0.811842,0.0528 1.354841,0 -0.104267,-0.756304 -0.123881,-1.509044 0,-2.255747 -0.346621,-0.02893 -0.689933,-0.05864 -1.354841,-0.01169 z"
           id="path12647-7-0-3-1-8-4-3-0"
           sodipodi:nodetypes="ccccc" /><path
           style="fill:#416f00;fill-opacity:1;stroke:none;stroke-width:0.264583;stroke-linecap:round;stroke-linejoin:miter;stroke-dasharray:none;stroke-opacity:1;paint-order:stroke fill markers"
           d="m 2.1464246,29.05038 c 0.680734,-0.0543 1.353037,-0.117837 1.730015,-0.998825 -0.849959,0.06668 -1.340938,0.483112 -1.730015,0.998825 z"
           id="path12739-17-0-8-5-5-6-1"
           sodipodi:nodetypes="ccc" /><path
           style="fill:#416f00;fill-opacity:1;stroke:none;stroke-width:0.264583;stroke-linecap:round;stroke-linejoin:miter;stroke-dasharray:none;stroke-opacity:1;paint-order:stroke fill markers"
           d="m 2.1357686,29.020199 c 0.680734,0.0543 1.353037,0.117837 1.730015,0.998825 -0.849959,-0.06668 -1.340938,-0.483112 -1.730015,-0.998825 z"
           id="path12739-1-91-3-7-0-5-2-3"
           sodipodi:nodetypes="ccc" /></g><g
         id="g39853-2-8-4-3-8-8"
         transform="rotate(-30,35.100396,-73.098042)"><path
           style="fill:url(#linearGradient42710);fill-opacity:1;stroke:none;stroke-width:0.22671;stroke-linecap:round;stroke-linejoin:miter;stroke-dasharray:none;stroke-opacity:1;paint-order:stroke fill markers"
           d="m 1.1506436,26.603776 c 0.162607,0.649328 0.216285,1.372637 0,2.27727 0.40431,0.02745 0.811842,0.05303 1.354841,0 -0.104267,-0.759584 -0.123881,-1.515591 0,-2.265532 -0.346621,-0.02905 -0.689933,-0.0589 -1.354841,-0.01174 z"
           id="path12647-8-90-3-23-6-2-9-2"
           sodipodi:nodetypes="ccccc" /><path
           style="fill:url(#linearGradient42712);fill-opacity:1;stroke:none;stroke-width:0.22622;stroke-linecap:round;stroke-linejoin:miter;stroke-dasharray:none;stroke-opacity:1;paint-order:stroke fill markers"
           d="m 1.1506436,29.066438 c 0.162607,0.646524 0.216285,1.366708 0,2.267434 0.40431,0.02733 0.811842,0.0528 1.354841,0 -0.104267,-0.756304 -0.123881,-1.509044 0,-2.255747 -0.346621,-0.02893 -0.689933,-0.05864 -1.354841,-0.01169 z"
           id="path12647-7-0-3-1-8-4-3-0-2"
           sodipodi:nodetypes="ccccc" /><path
           style="fill:#416f00;fill-opacity:1;stroke:none;stroke-width:0.264583;stroke-linecap:round;stroke-linejoin:miter;stroke-dasharray:none;stroke-opacity:1;paint-order:stroke fill markers"
           d="m 2.1464246,29.05038 c 0.680734,-0.0543 1.353037,-0.117837 1.730015,-0.998825 -0.849959,0.06668 -1.340938,0.483112 -1.730015,0.998825 z"
           id="path12739-17-0-8-5-5-6-1-0"
           sodipodi:nodetypes="ccc" /><path
           style="fill:#416f00;fill-opacity:1;stroke:none;stroke-width:0.264583;stroke-linecap:round;stroke-linejoin:miter;stroke-dasharray:none;stroke-opacity:1;paint-order:stroke fill markers"
           d="m 2.1357686,29.020199 c 0.680734,0.0543 1.353037,0.117837 1.730015,0.998825 -0.849959,-0.06668 -1.340938,-0.483112 -1.730015,-0.998825 z"
           id="path12739-1-91-3-7-0-5-2-3-6"
           sodipodi:nodetypes="ccc" /></g><g
         id="g39853-2-8-4-3-8-0"
         transform="rotate(-30,37.354548,-77.871564)"><path
           style="fill:url(#linearGradient42763);fill-opacity:1;stroke:none;stroke-width:0.22671;stroke-linecap:round;stroke-linejoin:miter;stroke-dasharray:none;stroke-opacity:1;paint-order:stroke fill markers"
           d="m 1.1506436,26.603776 c 0.162607,0.649328 0.216285,1.372637 0,2.27727 0.40431,0.02745 0.811842,0.05303 1.354841,0 -0.104267,-0.759584 -0.123881,-1.515591 0,-2.265532 -0.346621,-0.02905 -0.689933,-0.0589 -1.354841,-0.01174 z"
           id="path12647-8-90-3-23-6-2-9-5"
           sodipodi:nodetypes="ccccc" /><path
           style="fill:url(#linearGradient42765);fill-opacity:1;stroke:none;stroke-width:0.22622;stroke-linecap:round;stroke-linejoin:miter;stroke-dasharray:none;stroke-opacity:1;paint-order:stroke fill markers"
           d="m 1.1506436,29.066438 c 0.162607,0.646524 0.216285,1.366708 0,2.267434 0.40431,0.02733 0.811842,0.0528 1.354841,0 -0.104267,-0.756304 -0.123881,-1.509044 0,-2.255747 -0.346621,-0.02893 -0.689933,-0.05864 -1.354841,-0.01169 z"
           id="path12647-7-0-3-1-8-4-3-0-7"
           sodipodi:nodetypes="ccccc" /><path
           style="fill:#416f00;fill-opacity:1;stroke:none;stroke-width:0.264583;stroke-linecap:round;stroke-linejoin:miter;stroke-dasharray:none;stroke-opacity:1;paint-order:stroke fill markers"
           d="m 2.1464246,29.05038 c 0.680734,-0.0543 1.353037,-0.117837 1.730015,-0.998825 -0.849959,0.06668 -1.340938,0.483112 -1.730015,0.998825 z"
           id="path12739-17-0-8-5-5-6-1-4"
           sodipodi:nodetypes="ccc" /><path
           style="fill:#416f00;fill-opacity:1;stroke:none;stroke-width:0.264583;stroke-linecap:round;stroke-linejoin:miter;stroke-dasharray:none;stroke-opacity:1;paint-order:stroke fill markers"
           d="m 2.1357686,29.020199 c 0.680734,0.0543 1.353037,0.117837 1.730015,0.998825 -0.849959,-0.06668 -1.340938,-0.483112 -1.730015,-0.998825 z"
           id="path12739-1-91-3-7-0-5-2-3-2"
           sodipodi:nodetypes="ccc" /></g><g
         id="g39853-23-6-4"
         transform="rotate(-30,31.211601,-79.407566)"><path
           style="fill:url(#linearGradient42483);fill-opacity:1;stroke:none;stroke-width:0.22671;stroke-linecap:round;stroke-linejoin:miter;stroke-dasharray:none;stroke-opacity:1;paint-order:stroke fill markers"
           d="m 1.1506436,26.603776 c 0.162607,0.649328 0.216285,1.372637 0,2.27727 0.40431,0.02745 0.811842,0.05303 1.354841,0 -0.104267,-0.759584 -0.123881,-1.515591 0,-2.265532 -0.346621,-0.02905 -0.689933,-0.0589 -1.354841,-0.01174 z"
           id="path12647-8-90-51-7-2"
           sodipodi:nodetypes="ccccc" /><path
           style="fill:url(#linearGradient42485);fill-opacity:1;stroke:none;stroke-width:0.22622;stroke-linecap:round;stroke-linejoin:miter;stroke-dasharray:none;stroke-opacity:1;paint-order:stroke fill markers"
           d="m 1.1506436,29.066438 c 0.162607,0.646524 0.216285,1.366708 0,2.267434 0.40431,0.02733 0.811842,0.0528 1.354841,0 -0.104267,-0.756304 -0.123881,-1.509044 0,-2.255747 -0.346621,-0.02893 -0.689933,-0.05864 -1.354841,-0.01169 z"
           id="path12647-7-0-3-7-3-5"
           sodipodi:nodetypes="ccccc" /><path
           style="fill:#416f00;fill-opacity:1;stroke:none;stroke-width:0.264583;stroke-linecap:round;stroke-linejoin:miter;stroke-dasharray:none;stroke-opacity:1;paint-order:stroke fill markers"
           d="m 2.1464246,29.05038 c 0.680734,-0.0543 1.353037,-0.117837 1.730015,-0.998825 -0.849959,0.06668 -1.340938,0.483112 -1.730015,0.998825 z"
           id="path12739-17-0-89-6-1"
           sodipodi:nodetypes="ccc" /><path
           style="fill:#416f00;fill-opacity:1;stroke:none;stroke-width:0.264583;stroke-linecap:round;stroke-linejoin:miter;stroke-dasharray:none;stroke-opacity:1;paint-order:stroke fill markers"
           d="m 2.1357686,29.020199 c 0.680734,0.0543 1.353037,0.117837 1.730015,0.998825 -0.849959,-0.06668 -1.340938,-0.483112 -1.730015,-0.998825 z"
           id="path12739-1-91-3-4-0-6"
           sodipodi:nodetypes="ccc" /></g><g
         id="g39853-2-1-2-1"
         transform="rotate(-30,43.632223,-75.960724)"><path
           style="fill:url(#linearGradient42487);fill-opacity:1;stroke:none;stroke-width:0.22671;stroke-linecap:round;stroke-linejoin:miter;stroke-dasharray:none;stroke-opacity:1;paint-order:stroke fill markers"
           d="m 1.1506436,26.603776 c 0.162607,0.649328 0.216285,1.372637 0,2.27727 0.40431,0.02745 0.811842,0.05303 1.354841,0 -0.104267,-0.759584 -0.123881,-1.515591 0,-2.265532 -0.346621,-0.02905 -0.689933,-0.0589 -1.354841,-0.01174 z"
           id="path12647-8-90-3-64-6-3"
           sodipodi:nodetypes="ccccc" /><path
           style="fill:url(#linearGradient42489);fill-opacity:1;stroke:none;stroke-width:0.22622;stroke-linecap:round;stroke-linejoin:miter;stroke-dasharray:none;stroke-opacity:1;paint-order:stroke fill markers"
           d="m 1.1506436,29.066438 c 0.162607,0.646524 0.216285,1.366708 0,2.267434 0.40431,0.02733 0.811842,0.0528 1.354841,0 -0.104267,-0.756304 -0.123881,-1.509044 0,-2.255747 -0.346621,-0.02893 -0.689933,-0.05864 -1.354841,-0.01169 z"
           id="path12647-7-0-3-1-35-9-7"
           sodipodi:nodetypes="ccccc" /><path
           style="fill:#416f00;fill-opacity:1;stroke:none;stroke-width:0.264583;stroke-linecap:round;stroke-linejoin:miter;stroke-dasharray:none;stroke-opacity:1;paint-order:stroke fill markers"
           d="m 2.1464246,29.05038 c 0.680734,-0.0543 1.353037,-0.117837 1.730015,-0.998825 -0.849959,0.06668 -1.340938,0.483112 -1.730015,0.998825 z"
           id="path12739-17-0-8-4-3-7"
           sodipodi:nodetypes="ccc" /><path
           style="fill:#416f00;fill-opacity:1;stroke:none;stroke-width:0.264583;stroke-linecap:round;stroke-linejoin:miter;stroke-dasharray:none;stroke-opacity:1;paint-order:stroke fill markers"
           d="m 2.1357686,29.020199 c 0.680734,0.0543 1.353037,0.117837 1.730015,0.998825 -0.849959,-0.06668 -1.340938,-0.483112 -1.730015,-0.998825 z"
           id="path12739-1-91-3-7-8-0-1"
           sodipodi:nodetypes="ccc" /></g></g></g><style
     type="text/css"
     id="style22731">
	.st0{fill:#FFFFFF;}
	.st1{fill:none;}
</style></svg>
