<?xml version="1.0" encoding="UTF-8" standalone="no"?>
<!-- Created with Inkscape (http://www.inkscape.org/) -->

<svg
   width="40.011765"
   height="50.003822"
   viewBox="0 0 10.586446 13.230177"
   version="1.1"
   id="svg5"
   xml:space="preserve"
   inkscape:version="1.2.2 (b0a8486541, 2022-12-01)"
   sodipodi:docname="tilemap.svg"
   inkscape:export-filename="pokus-tile.png"
   inkscape:export-xdpi="96"
   inkscape:export-ydpi="96"
   xmlns:inkscape="http://www.inkscape.org/namespaces/inkscape"
   xmlns:sodipodi="http://sodipodi.sourceforge.net/DTD/sodipodi-0.dtd"
   xmlns:xlink="http://www.w3.org/1999/xlink"
   xmlns="http://www.w3.org/2000/svg"
   xmlns:svg="http://www.w3.org/2000/svg"><sodipodi:namedview
     id="namedview7"
     pagecolor="#ffffff"
     bordercolor="#000000"
     borderopacity="0.25"
     inkscape:showpageshadow="2"
     inkscape:pageopacity="0.0"
     inkscape:pagecheckerboard="0"
     inkscape:deskcolor="#d1d1d1"
     inkscape:document-units="px"
     showgrid="false"
     showguides="true"
     inkscape:zoom="1.4142136"
     inkscape:cx="31.112698"
     inkscape:cy="183.84776"
     inkscape:window-width="2560"
     inkscape:window-height="1011"
     inkscape:window-x="0"
     inkscape:window-y="0"
     inkscape:window-maximized="1"
     inkscape:current-layer="layer1"><sodipodi:guide
       position="-26.9875,36.97653"
       orientation="-1,0"
       id="guide26882"
       inkscape:locked="false"
       inkscape:label=""
       inkscape:color="rgb(0,134,229)" /><sodipodi:guide
       position="-16.404167,34.755362"
       orientation="-1,0"
       id="guide26884"
       inkscape:locked="false"
       inkscape:label=""
       inkscape:color="rgb(0,134,229)" /><sodipodi:guide
       position="-5.8208353,35.082767"
       orientation="-1,0"
       id="guide26886"
       inkscape:locked="false"
       inkscape:label=""
       inkscape:color="rgb(0,134,229)" /><sodipodi:guide
       position="4.7624977,34.755362"
       orientation="-1,0"
       id="guide26888"
       inkscape:locked="false"
       inkscape:label=""
       inkscape:color="rgb(0,134,229)" /><sodipodi:guide
       position="-39.952083,35.971438"
       orientation="-1,0"
       id="guide26892"
       inkscape:locked="false"
       inkscape:label=""
       inkscape:color="rgb(0,134,229)" /><sodipodi:guide
       position="-29.36875,36.298843"
       orientation="-1,0"
       id="guide26894"
       inkscape:locked="false"
       inkscape:label=""
       inkscape:color="rgb(0,134,229)" /><sodipodi:guide
       position="-18.785417,32.323209"
       orientation="-1,0"
       id="guide26896"
       inkscape:locked="false"
       inkscape:label=""
       inkscape:color="rgb(0,134,229)" /><sodipodi:guide
       position="-8.2020843,35.644033"
       orientation="-1,0"
       id="guide26898"
       inkscape:locked="false"
       inkscape:label=""
       inkscape:color="rgb(0,134,229)" /><sodipodi:guide
       position="2.3812477,35.223083"
       orientation="-1,0"
       id="guide26900"
       inkscape:locked="false"
       inkscape:label=""
       inkscape:color="rgb(0,134,229)" /><sodipodi:guide
       position="-35.189583,33.819918"
       orientation="-1,0"
       id="guide26902"
       inkscape:locked="false"
       inkscape:label=""
       inkscape:color="rgb(0,134,229)" /><sodipodi:guide
       position="-24.60625,33.352197"
       orientation="-1,0"
       id="guide26904"
       inkscape:locked="false"
       inkscape:label=""
       inkscape:color="rgb(0,134,229)" /><sodipodi:guide
       position="-14.008836,24.685033"
       orientation="-1,0"
       id="guide26906"
       inkscape:locked="false"
       inkscape:label=""
       inkscape:color="rgb(0,134,229)" /><sodipodi:guide
       position="-3.4395853,33.960235"
       orientation="-1,0"
       id="guide26908"
       inkscape:locked="false"
       inkscape:label=""
       inkscape:color="rgb(0,134,229)" /><sodipodi:guide
       position="7.1437477,36.298843"
       orientation="-1,0"
       id="guide26910"
       inkscape:locked="false"
       inkscape:label=""
       inkscape:color="rgb(0,134,229)" /><sodipodi:guide
       position="-48.154167,33.773146"
       orientation="-1,0"
       id="guide26912"
       inkscape:locked="false"
       inkscape:label=""
       inkscape:color="rgb(0,134,229)" /><sodipodi:guide
       position="-43.2816,33.603093"
       orientation="0,1"
       id="guide26914"
       inkscape:locked="false"
       inkscape:label=""
       inkscape:color="rgb(0,134,229)" /><sodipodi:guide
       position="-45.060222,36.645801"
       orientation="0,1"
       id="guide26916"
       inkscape:locked="false"
       inkscape:label=""
       inkscape:color="rgb(0,134,229)" /><sodipodi:guide
       position="-45.479892,30.560385"
       orientation="0,1"
       id="guide27644"
       inkscape:locked="false"
       inkscape:label=""
       inkscape:color="rgb(0,134,229)" /><sodipodi:guide
       position="-50.535417,38.630176"
       orientation="-1,0"
       id="guide28435"
       inkscape:locked="false"
       inkscape:label=""
       inkscape:color="rgb(0,134,229)" /><sodipodi:guide
       position="-45.772917,37.571843"
       orientation="-1,0"
       id="guide28437"
       inkscape:locked="false"
       inkscape:label=""
       inkscape:color="rgb(0,134,229)" /><sodipodi:guide
       position="-55.255275,20.373927"
       orientation="0,1"
       id="guide28619"
       inkscape:locked="false"
       inkscape:label=""
       inkscape:color="rgb(0,134,229)" /><sodipodi:guide
       position="-54.131464,23.416635"
       orientation="0,1"
       id="guide28621"
       inkscape:locked="false"
       inkscape:label=""
       inkscape:color="rgb(0,134,229)" /><sodipodi:guide
       position="-55.348819,17.331219"
       orientation="0,1"
       id="guide28623"
       inkscape:locked="false"
       inkscape:label=""
       inkscape:color="rgb(0,134,229)" /><sodipodi:guide
       position="-54.411859,7.141531"
       orientation="0,-1"
       id="guide30297"
       inkscape:locked="false" /><sodipodi:guide
       position="-57.92412,-6.089436"
       orientation="0,-1"
       id="guide31859"
       inkscape:locked="false" /><sodipodi:guide
       position="-12.350948,60.063854"
       orientation="0,-1"
       id="guide33317"
       inkscape:locked="false" /><sodipodi:guide
       position="-51.337421,63.130445"
       orientation="0,1"
       id="guide36845"
       inkscape:locked="false"
       inkscape:label=""
       inkscape:color="rgb(0,134,229)" /><sodipodi:guide
       position="-3.3381703,76.289044"
       orientation="0,-1"
       id="guide36847"
       inkscape:locked="false" /></sodipodi:namedview><defs
     id="defs2"><linearGradient
       inkscape:collect="always"
       id="linearGradient5767"><stop
         style="stop-color:#cccccc;stop-opacity:1;"
         offset="0"
         id="stop5763" /><stop
         style="stop-color:#e5e5e5;stop-opacity:1;"
         offset="1"
         id="stop5765" /></linearGradient><linearGradient
       inkscape:collect="always"
       id="linearGradient5759"><stop
         style="stop-color:#999999;stop-opacity:1;"
         offset="0"
         id="stop5755" /><stop
         style="stop-color:#666666;stop-opacity:1;"
         offset="1"
         id="stop5757" /></linearGradient><linearGradient
       inkscape:collect="always"
       xlink:href="#linearGradient5759"
       id="linearGradient8748"
       gradientUnits="userSpaceOnUse"
       gradientTransform="translate(49.714063,64.692982)"
       x1="12.900038"
       y1="13.800077"
       x2="12.94384"
       y2="13.756275" /><linearGradient
       inkscape:collect="always"
       xlink:href="#linearGradient5767"
       id="linearGradient8750"
       gradientUnits="userSpaceOnUse"
       gradientTransform="translate(49.714063,64.692982)"
       x1="12.435538"
       y1="13.368127"
       x2="3.4919937"
       y2="1.6133311" /></defs><g
     inkscape:label="tilemap"
     inkscape:groupmode="layer"
     id="layer1"
     transform="translate(-52.916666,-66.14583)"><g
       id="g2340"
       inkscape:label="flowerR"><g
         id="g46203"><path
           style="fill:url(#linearGradient8748);fill-opacity:1;stroke:#000000;stroke-width:0.264583;stroke-linecap:round;stroke-linejoin:bevel;stroke-dasharray:none;stroke-opacity:1;paint-order:stroke fill markers"
           d="m 62.119088,66.476626 1.002942,1.000246 c 0.151069,0.151069 0.24879,0.326524 0.24879,0.479573 l -4.96e-4,10.61911 c 0,0.277758 -0.19657,0.668161 -0.695831,0.668161 l -7.949339,-0.0015 c -0.23838,0 -0.375639,-0.154451 -0.501405,-0.280218 l -1.042227,-1.037746 z"
           id="path2981-94-63"
           sodipodi:nodetypes="ccccccccc" /><rect
           style="fill:url(#linearGradient8750);fill-opacity:1;stroke:#000000;stroke-width:0.264583;stroke-linecap:round;stroke-linejoin:round;stroke-dasharray:none;stroke-opacity:1;paint-order:stroke fill markers"
           id="rect2763-78-1"
           width="9.260416"
           height="11.90625"
           x="53.048958"
           y="66.278122"
           ry="0.66145831" /><path
           style="fill:#648700;fill-opacity:1;stroke:#1d3400;stroke-width:0.132292;stroke-dasharray:none;stroke-opacity:1"
           d="m 57.118923,76.320924 c -0.377908,-0.16538 -0.736063,-0.632594 -0.833694,-1.08755 -0.023,-0.107213 -0.02507,-0.268479 -0.0044,-0.346893 0.03491,-0.132658 0.112977,-0.233201 0.224324,-0.288908 0.03363,-0.01681 0.06537,-0.03058 0.07053,-0.03058 0.0052,0 0.01985,0.04926 0.03306,0.111402 0.103099,0.484914 0.328514,1.283804 0.354816,1.2575 0.0023,-0.0023 -0.0147,-0.07303 -0.03772,-0.157248 -0.09144,-0.334478 -0.171961,-0.7539 -0.201725,-1.050715 -0.01024,-0.102147 -0.01135,-0.191991 -0.0024,-0.197465 0.01323,-0.008 0.163219,0.03651 0.222128,0.06607 0.0813,0.04079 0.130578,0.07781 0.189584,0.142366 0.09727,0.106425 0.165567,0.250904 0.205772,0.435291 0.0168,0.07705 0.01886,0.110141 0.01895,0.305023 1.27e-4,0.238497 -0.0097,0.321657 -0.06283,0.533896 -0.02407,0.09608 -0.09661,0.318365 -0.107554,0.329545 -0.0031,0.0033 -0.0341,-0.0066 -0.06878,-0.02175 z m -1.577327,-0.262701 c -0.147175,-0.332788 -0.01227,-0.894533 0.245287,-1.021324 0.04431,-0.02182 0.06471,-0.02681 0.110926,-0.02707 0.04812,-3.35e-4 0.119691,0.01397 0.119691,0.02386 0,0.0017 -0.03261,0.06283 -0.07246,0.135973 -0.14522,0.266518 -0.314662,0.618048 -0.314123,0.65169 9.6e-5,0.0061 0.0354,-0.05712 0.07845,-0.140355 0.123123,-0.238061 0.276446,-0.485479 0.357321,-0.576617 l 0.03238,-0.03648 0.03098,0.04666 c 0.12597,0.189728 0.08585,0.419946 -0.113855,0.653314 -0.06802,0.07948 -0.182864,0.177967 -0.288758,0.24762 -0.06999,0.04604 -0.148207,0.0901 -0.159931,0.0901 -0.0027,0 -0.01437,-0.02132 -0.02591,-0.04739 z m 3.805299,-0.244782 c -0.07595,-0.04405 -0.227923,-0.196937 -0.289571,-0.291316 -0.135034,-0.206734 -0.203764,-0.423724 -0.196006,-0.61883 0.0059,-0.149151 0.04603,-0.23695 0.136013,-0.297817 0.0398,-0.0269 0.109743,-0.0542 0.117939,-0.04601 0.002,0.002 0.01337,0.08299 0.02533,0.180012 0.04192,0.340233 0.108393,0.723131 0.135644,0.781389 l 0.01199,0.02563 -0.0046,-0.02384 c -0.04868,-0.252958 -0.09294,-0.797261 -0.0759,-0.93347 l 0.0062,-0.04926 0.02661,0.0051 c 0.05854,0.01126 0.150876,0.06574 0.207665,0.122527 0.179989,0.179989 0.208378,0.537093 0.07355,0.925149 -0.02682,0.0772 -0.106823,0.252234 -0.115284,0.252234 -0.0028,0 -0.02964,-0.01417 -0.05955,-0.03152 z m 1.080498,-0.02373 c -0.148473,-0.01998 -0.263555,-0.0533 -0.376056,-0.108914 -0.108823,-0.05379 -0.183258,-0.107093 -0.256392,-0.183592 -0.120926,-0.126484 -0.152973,-0.240188 -0.101557,-0.360309 0.0093,-0.02182 0.02175,-0.04364 0.02758,-0.04846 0.0079,-0.0066 0.03796,0.01597 0.11889,0.08925 0.212262,0.192161 0.496675,0.425865 0.552569,0.454047 0.03255,0.0164 0.02593,0.0094 -0.04911,-0.05158 -0.209653,-0.17054 -0.550711,-0.519243 -0.550711,-0.563052 0,-0.0064 0.02175,-0.02019 0.04834,-0.03062 0.06594,-0.0258 0.201726,-0.0277 0.274574,-0.0038 0.159722,0.05235 0.328843,0.231442 0.4414,0.467405 0.03942,0.08264 0.09331,0.231239 0.105682,0.291388 0.0052,0.0254 0.0039,0.02724 -0.02657,0.03568 -0.03549,0.0098 -0.169142,0.01792 -0.208642,0.0126 z m -5.242799,-0.774127 -0.02996,-0.0038 0.0072,-0.06044 c 0.03832,-0.320844 0.359212,-0.70987 0.67488,-0.818173 0.05323,-0.01825 0.08317,-0.02317 0.143497,-0.02357 0.06941,-3.35e-4 0.08117,0.002 0.131352,0.02667 0.03228,0.01587 0.07012,0.04342 0.09132,0.06641 0.04319,0.04685 0.05706,0.03212 -0.130749,0.138793 -0.307027,0.174368 -0.626423,0.37671 -0.668422,0.423456 l -0.02102,0.0234 0.03783,-0.02544 c 0.210711,-0.141593 0.726437,-0.40151 0.847087,-0.426922 l 0.02733,-0.0057 v 0.07877 c 0,0.04361 -0.0057,0.100841 -0.01288,0.128203 -0.07364,0.282744 -0.432991,0.469885 -0.920392,0.47932 -0.08093,0.0017 -0.160618,0.0013 -0.177098,-9.86e-4 z m 4.910692,-0.116792 c -0.303639,-0.048 -0.49899,-0.191228 -0.542805,-0.397951 -0.01189,-0.05609 -0.01595,-0.128988 -0.0076,-0.137297 0.0025,-0.0023 0.02232,-9.86e-4 0.04414,0.003 0.222663,0.04242 0.740216,0.119857 1.002365,0.14997 0.185492,0.02132 0.369944,0.03092 0.369944,0.01928 0,-0.0046 -0.02743,-0.01103 -0.06096,-0.01407 -0.180733,-0.0165 -0.555489,-0.08146 -0.80925,-0.140262 -0.249153,-0.05774 -0.507565,-0.137012 -0.521839,-0.16011 -0.0082,-0.01324 0.06739,-0.11083 0.133336,-0.172262 0.07131,-0.06642 0.164723,-0.119515 0.258181,-0.146738 0.0986,-0.0287 0.293622,-0.03262 0.420119,-0.0084 0.318728,0.06097 0.673356,0.252896 0.973572,0.52688 0.08035,0.07333 0.08098,0.0649 -0.01094,0.146207 -0.18706,0.16548 -0.494076,0.292055 -0.805157,0.331954 -0.120556,0.01547 -0.344659,0.01537 -0.443081,-1.75e-4 z m -5.877055,-1.951071 c -0.01619,-0.002 -0.06726,-0.0075 -0.113506,-0.01257 -0.154652,-0.01672 -0.347105,-0.06121 -0.514978,-0.119115 -0.06102,-0.02106 -0.07777,-0.03021 -0.07777,-0.04264 0,-0.0235 0.05978,-0.146715 0.105372,-0.217205 0.211482,-0.326956 0.626077,-0.609296 1.017069,-0.692624 0.0936,-0.01995 0.259855,-0.02019 0.332108,-6.68e-4 0.128149,0.03497 0.225413,0.109245 0.28061,0.214283 0.01676,0.03192 0.03044,0.06313 0.03039,0.06939 -6.4e-5,0.0079 -0.07497,0.02981 -0.245928,0.07191 -0.54922,0.13521 -1.073398,0.292593 -1.115824,0.335019 -0.01113,0.01114 -0.0076,0.0111 0.0293,-3.34e-4 0.365724,-0.112727 0.834253,-0.213395 1.17279,-0.251973 0.133002,-0.01513 0.190287,-0.01634 0.197838,-0.0041 0.003,0.0048 -8.68e-4,0.03698 -0.0085,0.07138 -0.03465,0.155741 -0.11487,0.285681 -0.233844,0.37877 -0.11091,0.08678 -0.280915,0.15621 -0.45159,0.184428 -0.07661,0.01266 -0.342295,0.0231 -0.403573,0.01584 z M 60.577339,72.2424 c -0.231925,-0.04208 -0.369899,-0.158124 -0.386214,-0.324822 -0.0033,-0.03431 -0.0022,-0.05762 0.003,-0.06085 0.0047,-0.003 0.08364,0.0099 0.175507,0.02844 0.209638,0.04227 0.593298,0.10577 0.708121,0.11719 0.105135,0.01047 0.102105,0.01043 0.102105,0.0013 0,-0.004 -0.02365,-0.01001 -0.05255,-0.01324 -0.255663,-0.02881 -0.914348,-0.201603 -0.914348,-0.239847 0,-0.0132 0.04975,-0.07371 0.09142,-0.111177 0.126377,-0.113627 0.325114,-0.145669 0.539161,-0.08693 0.09839,0.027 0.260768,0.104366 0.36872,0.175687 0.08351,0.05517 0.216187,0.163098 0.273153,0.222195 l 0.03231,0.03351 -0.05117,0.04259 c -0.132014,0.109862 -0.312257,0.185028 -0.516371,0.215338 -0.104728,0.01554 -0.288796,0.01584 -0.372873,6.68e-4 z m -5.278136,-0.387192 c -0.221545,-0.0608 -0.38828,-0.29332 -0.457999,-0.638722 -0.02895,-0.143437 -0.04304,-0.358726 -0.02903,-0.44351 0.0051,-0.03058 0.0063,-0.03152 0.04035,-0.03152 0.04839,0 0.163311,0.03019 0.243046,0.06379 0.237142,0.100013 0.46913,0.310905 0.572627,0.520549 0.09264,0.18766 0.08387,0.333737 -0.02667,0.444385 -0.03734,0.03738 -0.04099,0.03916 -0.05108,0.02494 -0.006,-0.0084 -0.06035,-0.09854 -0.120818,-0.200276 -0.119084,-0.200356 -0.121661,-0.204476 -0.252587,-0.40358 -0.09511,-0.144639 -0.156667,-0.226963 -0.164127,-0.219504 -0.0025,0.0027 0.0047,0.01705 0.01619,0.03222 0.02942,0.03891 0.152828,0.243984 0.219863,0.365375 0.113316,0.205192 0.231987,0.470741 0.219442,0.491042 -0.0072,0.01164 -0.161888,0.0078 -0.209198,-0.0052 z m -0.93533,-0.07202 c -0.208502,-0.0348 -0.474471,-0.239437 -0.653122,-0.502481 -0.01684,-0.0248 -0.03062,-0.04791 -0.03062,-0.05138 0,-0.0093 0.09332,-0.05736 0.149025,-0.0767 0.08728,-0.03029 0.164272,-0.04288 0.288181,-0.04713 0.304425,-0.01043 0.568323,0.0933 0.660414,0.259552 0.02216,0.03999 0.02482,0.05266 0.02482,0.117955 0,0.04023 -0.0039,0.07705 -0.0087,0.08183 -0.006,0.006 -0.04925,-0.0086 -0.13873,-0.04677 -0.241003,-0.102774 -0.577563,-0.228975 -0.668142,-0.250531 -0.04841,-0.01153 -0.0084,0.009 0.08828,0.04537 0.249562,0.09377 0.681032,0.312145 0.681032,0.344681 0,0.01364 -0.08509,0.07706 -0.13032,0.09715 -0.0806,0.03579 -0.16393,0.04484 -0.262137,0.02844 z m 6.792418,-0.20157 c -0.207255,-0.0269 -0.328565,-0.123849 -0.344168,-0.275028 -0.0047,-0.04562 -0.0045,-0.04626 0.01545,-0.04137 0.08785,0.02159 0.648994,0.0736 0.778417,0.07217 l 0.09099,-9.86e-4 -0.138728,-0.01477 c -0.178235,-0.01902 -0.302118,-0.03742 -0.454022,-0.0675 -0.127259,-0.02521 -0.268074,-0.06296 -0.280484,-0.07519 -0.01038,-0.01023 0.03646,-0.07476 0.08925,-0.122976 0.169823,-0.155089 0.45632,-0.143435 0.775581,0.03156 0.111894,0.06132 0.281662,0.186502 0.281662,0.207679 0,0.01527 -0.110047,0.110215 -0.166859,0.143964 -0.126222,0.07499 -0.282034,0.125475 -0.440274,0.14266 -0.09127,0.0099 -0.129515,0.0099 -0.206803,-1.57e-4 z m -0.913869,-0.164856 c -0.03195,-0.0072 -0.09669,-0.02927 -0.09669,-0.03302 0,-0.002 0.03413,-0.06704 0.07584,-0.144358 0.173268,-0.321174 0.412924,-0.809521 0.491922,-1.002387 0.06023,-0.147049 0.05583,-0.173416 -0.007,-0.04204 -0.200768,0.41969 -0.53929,0.980285 -0.66449,1.100399 l -0.02961,0.02841 -0.02791,-0.03922 c -0.05741,-0.08067 -0.08951,-0.141107 -0.113017,-0.212819 -0.02259,-0.06893 -0.02416,-0.08246 -0.02364,-0.204143 5.35e-4,-0.117157 0.0029,-0.137925 0.02358,-0.205577 0.09204,-0.30097 0.357386,-0.618421 0.721625,-0.86334 0.08354,-0.05616 0.248928,-0.150215 0.26417,-0.150215 0.01425,0 0.07473,0.143078 0.09962,0.235642 0.122718,0.456363 -0.0061,1.080256 -0.284347,1.377491 -0.06047,0.0646 -0.175934,0.13489 -0.249316,0.151795 -0.03736,0.0086 -0.148171,0.0107 -0.180719,0.0034 z m -2.244884,-1.293486 c -0.02312,-0.0064 -0.04393,-0.01197 -0.04624,-0.0123 -0.0023,-3.33e-4 -0.011,-0.0058 -0.01932,-0.0121 -0.01409,-0.0107 -0.01097,-0.01741 0.04583,-0.09853 0.152019,-0.2171 0.395965,-0.601269 0.452098,-0.711962 0.03759,-0.07413 0.01128,-0.04753 -0.05113,0.05171 -0.08273,0.13153 -0.222951,0.328228 -0.321713,0.451289 -0.08022,0.09995 -0.212004,0.243829 -0.223343,0.243829 -0.01297,0 -0.06747,-0.116993 -0.08075,-0.173312 -0.05869,-0.248915 0.116231,-0.539353 0.459132,-0.762349 0.07311,-0.04755 0.22675,-0.127487 0.302085,-0.157181 l 0.0419,-0.0165 0.02062,0.06527 c 0.03721,0.117799 0.04701,0.241143 0.03019,0.380087 -0.04483,0.370397 -0.23083,0.681943 -0.447373,0.749339 -0.0584,0.01818 -0.103639,0.01895 -0.161978,0.0027 z m -0.964116,-0.04569 c -0.14505,-0.02654 -0.277355,-0.0959 -0.392525,-0.20581 -0.206346,-0.196914 -0.37096,-0.532283 -0.451493,-0.919839 -0.02503,-0.120461 -0.05106,-0.326807 -0.04232,-0.335489 0.0143,-0.0142 0.234901,-0.0047 0.324434,0.01397 0.309508,0.06451 0.601064,0.220628 0.837773,0.44862 0.286254,0.275712 0.372534,0.568265 0.23134,0.784404 -0.01791,0.02741 -0.04216,0.05864 -0.0539,0.0694 l -0.02134,0.01955 -0.06544,-0.08262 c -0.258209,-0.325986 -0.643189,-0.769481 -0.792437,-0.91288 -0.08017,-0.07703 -0.125348,-0.102635 -0.05933,-0.03363 0.09875,0.103225 0.296109,0.343976 0.43594,0.531796 0.184449,0.247744 0.370204,0.5402 0.370204,0.58285 0,0.02874 -0.227158,0.05684 -0.32092,0.03969 z m 0.719547,-0.800045 c 0.01863,-0.113933 0.04726,-0.570979 0.04573,-0.730059 -0.0014,-0.146869 -0.0016,-0.1465 -0.0282,0.150862 -0.02219,0.246959 -0.07824,0.565087 -0.10412,0.590965 -0.01161,0.0116 -0.09199,-0.04369 -0.138936,-0.09558 -0.146567,-0.162052 -0.141881,-0.440793 0.0126,-0.749214 0.06704,-0.133848 0.181003,-0.30108 0.20518,-0.30108 0.01698,0 0.109367,0.102298 0.153598,0.170058 0.127629,0.195505 0.190843,0.494249 0.14867,0.702606 -0.03405,0.168221 -0.122908,0.267491 -0.254429,0.284242 l -0.04474,0.0056 z"
           id="path32840-1-6"
           sodipodi:nodetypes="sssscsssssssscsssssssssssscsssssssssssscsscssssssssssssssssssssccssssssscsscssssccsssssssssssssscccsssssssssscsssssccsssssssssssscssssssssssssssssssssssssssssssssscssscssssssssccsssssscssssssssssssssssssssscssssssssssssscsssssssssssssssscs" /><path
           style="fill:#ff2c2c;fill-opacity:1;stroke:none;stroke-width:0.132292;stroke-linecap:round;stroke-linejoin:round;stroke-dasharray:none;stroke-opacity:1;paint-order:stroke fill markers"
           d="m 55.713549,70.09382 c 0.367261,0.274687 -0.33667,1.399379 0.567433,1.637255 l -0.298995,0.205452 0.130519,0.243361 c -0.753908,0.356971 -1.098122,0.934272 -1.184811,1.650066 0.446809,-0.357516 1.279457,0.619945 1.842408,-0.09398 l 0.08066,0.226486 0.234158,-0.02228 c 0.08957,0.96637 0.565412,1.383742 1.139044,1.662125 -0.304953,-0.451707 1.075035,-0.84235 0.568711,-1.72943 l 0.364448,0.037 0.02978,-0.177384 c 1.082459,0.118403 1.54882,-0.15691 1.879405,-0.51899 -0.838582,-0.481805 -0.417711,-1.293406 -1.416936,-1.077267 l 0.136137,-0.323387 -0.30765,-0.209674 c 0.489906,-0.89769 0.198547,-1.409875 -0.02944,-1.953331 -0.145313,0.365505 -1.499855,0.350887 -1.410611,1.094462 l -0.327222,-0.230616 -0.118872,0.172836 c -1.157322,-1.00345 -1.650101,-0.642355 -1.878172,-0.592704 z"
           id="path32932-5"
           sodipodi:nodetypes="ccccccccccccccccccccc" /><path
           style="fill:#6b0000;fill-opacity:1;stroke-width:0.00840779"
           d="m 58.202324,75.681967 c -0.41658,-0.193128 -0.727565,-0.488632 -0.943509,-0.896543 -0.117951,-0.22281 -0.213207,-0.517392 -0.229456,-0.709596 -0.003,-0.03537 -0.0077,-0.0656 -0.01048,-0.06715 -0.0028,-0.0017 -0.05802,0.0055 -0.122758,0.0158 -0.06474,0.01023 -0.120045,0.01638 -0.122899,0.01364 -0.0028,-0.0027 -0.01187,-0.04757 -0.02005,-0.09959 -0.0082,-0.05202 -0.01538,-0.09458 -0.01602,-0.09458 -7.02e-4,0 -0.03512,0.03342 -0.07664,0.07426 -0.124888,0.122875 -0.231841,0.164689 -0.420206,0.164288 -0.183846,-3.34e-4 -0.31975,-0.03502 -0.630584,-0.160671 -0.199639,-0.0807 -0.307747,-0.111512 -0.391293,-0.111512 -0.09865,0 -0.147312,0.02165 -0.320904,0.142777 l -0.01785,0.01247 0.0056,-0.105615 c 0.01142,-0.213622 0.03715,-0.354814 0.09829,-0.539482 0.06706,-0.202533 0.169481,-0.397262 0.299315,-0.569103 0.184837,-0.244642 0.456228,-0.482692 0.676435,-0.593335 0.02504,-0.01257 0.04686,-0.02407 0.0485,-0.02554 0.0016,-0.0013 -0.0263,-0.04493 -0.0621,-0.09658 -0.03579,-0.05165 -0.06145,-0.09634 -0.05701,-0.09931 0.0044,-0.003 0.06352,-0.04495 0.131301,-0.09327 l 0.123234,-0.08787 -0.04633,-0.01885 c -0.203461,-0.08278 -0.326893,-0.264365 -0.364758,-0.536614 -0.0126,-0.09063 -0.01118,-0.314428 0.003,-0.467664 0.02158,-0.233398 0.02332,-0.279021 0.0134,-0.351355 -0.01864,-0.135879 -0.0549,-0.19561 -0.177617,-0.29263 -0.05108,-0.04038 -0.07874,-0.06744 -0.07241,-0.07083 0.01338,-0.0072 0.22121,-0.05368 0.293601,-0.06574 0.143166,-0.02384 0.344165,-0.02704 0.515386,-0.0082 0.420504,0.04619 0.888274,0.264901 1.1991,0.560642 l 0.07313,0.06959 0.05753,-0.0796 c 0.03164,-0.04378 0.06131,-0.07974 0.06594,-0.07991 0.0046,-1.6e-4 0.07084,0.0445 0.147136,0.09925 l 0.13873,0.09956 0.0061,-0.0514 c 0.02617,-0.218926 0.141799,-0.367616 0.381665,-0.490755 0.1082,-0.05554 0.238075,-0.09975 0.44955,-0.153017 0.420233,-0.105836 0.480936,-0.147818 0.562719,-0.389196 l 0.02776,-0.08194 0.01852,0.02727 c 0.203427,0.299665 0.321414,0.607072 0.357382,0.931119 0.01364,0.122908 0.01154,0.363279 -0.0043,0.49175 -0.02859,0.231966 -0.09622,0.474262 -0.177686,0.636579 l -0.02827,0.05634 0.164395,0.09802 c 0.09285,0.05535 0.162716,0.1022 0.160536,0.107618 -0.0021,0.0053 -0.0323,0.05878 -0.06707,0.118897 -0.03477,0.06011 -0.06236,0.110165 -0.06133,0.111221 10e-4,9.85e-4 0.02435,-0.0017 0.05181,-0.0063 0.11117,-0.01822 0.218113,-0.003 0.321102,0.04604 0.07988,0.03793 0.141251,0.08582 0.231411,0.180564 0.09168,0.09634 0.171339,0.216954 0.290077,0.439207 0.131677,0.246476 0.181702,0.316625 0.262978,0.368778 0.05895,0.03783 0.126062,0.05634 0.229407,0.06326 0.0493,0.0033 0.08963,0.0093 0.08963,0.0134 0,0.01403 -0.197078,0.210296 -0.272904,0.271798 -0.277436,0.225028 -0.616725,0.372465 -0.988265,0.429443 -0.190935,0.02927 -0.529137,0.0248 -0.693213,-0.0092 -0.04244,-0.0088 -0.06001,-0.0095 -0.06422,-0.0027 -0.0032,0.0051 -0.0105,0.04493 -0.01625,0.08836 -0.0057,0.04344 -0.01279,0.0804 -0.01565,0.08214 -0.0029,0.0017 -0.02601,-1.74e-4 -0.05144,-0.0042 -0.06949,-0.0111 -0.270842,-0.03391 -0.273762,-0.03098 -0.0014,0.0013 0.01388,0.0353 0.034,0.07535 0.09484,0.188893 0.0827,0.378114 -0.03829,0.596692 -0.07684,0.138826 -0.128094,0.203617 -0.351065,0.443759 -0.145891,0.157126 -0.203616,0.237313 -0.228253,0.317082 -0.02307,0.0747 -0.02145,0.13235 0.007,0.249051 0.01323,0.05424 0.02174,0.0985 0.01892,0.09835 -0.0028,-1.58e-4 -0.05676,-0.0242 -0.119849,-0.05343 z m -0.07446,-0.2346 c 0,-0.0346 0.02519,-0.118276 0.05368,-0.178331 0.03805,-0.08019 0.108716,-0.172006 0.236207,-0.306885 0.198391,-0.209885 0.293173,-0.334735 0.35389,-0.466143 0.08057,-0.174387 0.06996,-0.313074 -0.03581,-0.467903 -0.02224,-0.03255 -0.04611,-0.06839 -0.05305,-0.07964 -0.0089,-0.0145 -0.02015,-0.02046 -0.03851,-0.02046 -0.01425,-6e-6 -0.06721,-0.0075 -0.11771,-0.01667 -0.05049,-0.0092 -0.09406,-0.01675 -0.09681,-0.01682 -0.0027,-9.7e-5 0.0024,0.02162 0.01145,0.04822 0.01274,0.03747 0.0155,0.06255 0.01224,0.111401 -0.0075,0.112996 -0.06078,0.210728 -0.22897,0.420391 -0.05008,0.06243 -0.104251,0.134124 -0.120382,0.159325 -0.04286,0.06695 -0.09228,0.176427 -0.105126,0.232873 l -0.01119,0.04921 -0.01804,-0.05465 c -0.05978,-0.181062 -0.08846,-0.378386 -0.08857,-0.609564 -9.6e-5,-0.217352 0.02097,-0.379814 0.06925,-0.533537 0.0094,-0.02985 0.01597,-0.05536 0.01465,-0.05669 -0.0014,-0.0013 -0.01637,0.02546 -0.03344,0.05955 -0.142097,0.283669 -0.161261,0.709706 -0.04727,1.050661 0.01853,0.05542 0.04679,0.125431 0.0628,0.155574 0.016,0.03015 0.02777,0.05615 0.02614,0.05778 -0.0016,0.0017 -0.04992,-0.04352 -0.107312,-0.100339 -0.219046,-0.216873 -0.352761,-0.428977 -0.399053,-0.633 -0.02048,-0.09028 -0.01903,-0.223637 0.0033,-0.300582 0.009,-0.03122 0.01515,-0.05675 0.01356,-0.05675 -0.0016,0 -0.0323,0.0099 -0.06824,0.02196 -0.03593,0.01207 -0.103172,0.03046 -0.149415,0.0408 l -0.08408,0.01885 -0.0025,0.04658 c -0.0065,0.121158 0.08481,0.43357 0.187355,0.641128 0.159647,0.323125 0.365896,0.559242 0.651273,0.745588 0.04831,0.03156 0.09277,0.05736 0.09879,0.05736 0.006,0 0.01095,-0.0087 0.01095,-0.01925 z m -1.729915,-1.536755 c 0.100299,-0.03351 0.171149,-0.09408 0.247673,-0.211734 0.0203,-0.03122 0.04002,-0.05676 0.04383,-0.05676 0.0038,0 1.73e-4,-0.03312 -0.0079,-0.07357 -0.0082,-0.04046 -0.0194,-0.101146 -0.02495,-0.134847 l -0.0101,-0.06128 -0.03584,0.03302 c -0.05772,0.0532 -0.104184,0.06996 -0.207355,0.07479 -0.104363,0.0049 -0.180762,-0.0089 -0.380952,-0.06902 -0.172686,-0.05182 -0.269393,-0.06693 -0.390316,-0.06097 l -0.09667,0.0047 0.02458,-0.02048 c 0.276423,-0.230482 0.655228,-0.404429 0.978871,-0.449495 0.157468,-0.02192 0.155691,-0.02122 0.07337,-0.02864 -0.186068,-0.01672 -0.452027,0.04263 -0.674896,0.150585 -0.144826,0.07016 -0.262676,0.153318 -0.375877,0.265244 -0.05434,0.05372 -0.09879,0.09633 -0.09879,0.09469 0,-0.0158 0.07158,-0.187395 0.111428,-0.267096 0.168497,-0.337047 0.381314,-0.533687 0.624255,-0.576801 0.03237,-0.0057 0.06003,-0.0113 0.06146,-0.0123 0.0014,-9.86e-4 -0.01964,-0.03347 -0.04683,-0.07212 -0.02719,-0.03865 -0.0643,-0.09388 -0.08248,-0.122741 -0.01817,-0.02884 -0.03598,-0.0525 -0.03959,-0.05255 -0.01373,-1.57e-4 -0.105804,0.05066 -0.178426,0.09845 -0.232514,0.153048 -0.461739,0.387387 -0.607664,0.621219 -0.111078,0.177996 -0.194681,0.390425 -0.232934,0.591874 -0.0075,0.0393 -0.01498,0.07827 -0.01671,0.08659 -0.0028,0.01357 8.69e-4,0.01444 0.03612,0.0084 0.02159,-0.0037 0.08466,-0.0065 0.140151,-0.0063 0.126842,6.68e-4 0.16606,0.01116 0.445614,0.121204 0.254198,0.100042 0.349831,0.128499 0.491858,0.146354 0.05947,0.0075 0.176801,-0.003 0.229103,-0.02048 z m 0.653855,-0.0544 c 0.332923,-0.0584 0.497534,-0.125331 0.637299,-0.259145 0.154078,-0.147517 0.23539,-0.359972 0.216191,-0.564864 l -0.0058,-0.06187 -0.03926,-0.0053 c -0.02159,-0.003 -0.0647,-0.012 -0.0958,-0.02019 l -0.05654,-0.0149 -0.175199,0.198443 c -0.27052,0.30641 -0.404511,0.471887 -0.446523,0.551447 -0.05096,0.09651 0.01322,-0.0954 0.08611,-0.257454 0.02988,-0.06642 0.113001,-0.239955 0.184724,-0.38562 0.126816,-0.257556 0.129991,-0.265307 0.115396,-0.281661 -0.01137,-0.01274 -0.05574,-0.07856 -0.06376,-0.09459 -0.0027,-0.0054 -0.196939,0.06088 -0.252128,0.08603 -0.208479,0.09501 -0.346545,0.245767 -0.373968,0.408343 -0.01421,0.08424 -0.0023,0.186018 0.05634,0.480938 0.04802,0.241565 0.04807,0.241725 0.06967,0.241725 0.01189,0 0.07635,-0.0096 0.143246,-0.02132 z m 2.057068,-0.159521 c 0.02473,-0.181517 0.03251,-0.357807 0.02022,-0.458135 -0.03298,-0.26929 -0.191305,-0.48402 -0.432151,-0.586103 -0.07107,-0.03011 -0.158019,-0.05249 -0.205048,-0.05274 -0.02297,-1.27e-4 -0.02908,0.0045 -0.04158,0.03139 -0.0081,0.01735 -0.02391,0.04577 -0.03523,0.06319 l -0.02058,0.03165 0.08729,0.144909 c 0.22818,0.378826 0.391159,0.626858 0.461228,0.701926 0.01834,0.01965 0.02988,0.03573 0.02564,0.03573 -0.01314,0 -0.167913,-0.120555 -0.260665,-0.20303 -0.07657,-0.06808 -0.185637,-0.170256 -0.463847,-0.434504 l -0.06485,-0.0616 -0.05051,0.01955 -0.05052,0.01955 -0.0058,0.04573 c -0.0073,0.05776 0.0014,0.205033 0.01768,0.298376 0.0349,0.200112 0.136367,0.361976 0.265551,0.423609 0.07763,0.03704 0.171851,0.05774 0.352294,0.07739 0.08555,0.0093 0.200947,0.02212 0.256438,0.02847 0.05549,0.0064 0.106569,0.011 0.113505,0.01029 0.0098,-9.85e-4 0.01673,-0.03148 0.03093,-0.135682 z m 0.824136,-0.0086 c 0.352516,-0.04592 0.680309,-0.182169 0.937753,-0.389794 0.03576,-0.02884 0.06693,-0.05554 0.06927,-0.05932 0.0023,-0.0038 -0.01711,-0.01772 -0.04324,-0.03092 -0.113989,-0.05767 -0.216796,-0.185506 -0.347337,-0.431895 -0.14361,-0.27105 -0.236463,-0.403663 -0.348781,-0.498133 -0.140903,-0.11851 -0.268472,-0.140845 -0.464275,-0.08129 l -0.06042,0.01838 -0.0657,0.110018 c -0.03614,0.06051 -0.06681,0.112518 -0.06817,0.115579 -0.0014,0.003 0.01442,0.0037 0.03507,0.0013 0.05564,-0.0063 0.141783,0.0228 0.203472,0.06864 0.06887,0.05119 0.128681,0.124036 0.245575,0.299117 0.108802,0.162969 0.221836,0.287668 0.304482,0.335915 l 0.04624,0.027 -0.130321,-0.0044 c -0.269707,-0.0091 -0.550898,-0.0806 -0.811353,-0.206383 -0.06474,-0.03125 -0.149285,-0.07844 -0.187879,-0.104824 -0.06166,-0.04215 -0.06797,-0.04488 -0.05201,-0.02246 0.02752,0.03866 0.151107,0.133397 0.242504,0.185912 0.157501,0.0905 0.329418,0.152182 0.518669,0.186095 0.115598,0.02072 0.334898,0.025 0.419713,0.0082 0.02737,-0.0054 0.05121,-0.0084 0.05298,-0.0066 0.004,0.0039 -0.08577,0.05446 -0.17657,0.0993 -0.325144,0.160557 -0.637582,0.200941 -0.858901,0.11101 -0.02801,-0.0114 -0.06478,-0.02985 -0.08171,-0.04106 l -0.03078,-0.02035 -0.0058,0.08999 c -0.0032,0.04949 -0.009,0.116397 -0.01284,0.148682 -0.0039,0.03229 -0.0059,0.0598 -0.0046,0.06116 0.0046,0.0046 0.12108,0.02721 0.17857,0.03458 0.09905,0.01274 0.387726,0.01073 0.496381,-0.0034 z m -1.910536,-0.90802 c 0.07206,-0.01878 0.128111,-0.05172 0.185343,-0.108948 0.105824,-0.105826 0.142476,-0.233914 0.109021,-0.381006 -0.02958,-0.130061 -0.126296,-0.237314 -0.257909,-0.28602 -0.29213,-0.108099 -0.599238,0.157206 -0.535542,0.462647 0.04694,0.225095 0.278856,0.370689 0.499087,0.313327 z m -1.0337,-0.15533 c 0.08184,-0.02296 0.181201,-0.06481 0.277287,-0.116754 l 0.07567,-0.04092 -0.0028,-0.04516 c -0.0016,-0.02484 -0.0053,-0.04777 -0.0084,-0.05097 -0.0031,-0.0033 -0.09833,-0.0379 -0.211622,-0.0771 -0.403876,-0.139744 -0.585297,-0.209364 -0.713292,-0.273718 -0.03705,-0.01865 -0.07,-0.03814 -0.07322,-0.04334 -0.0042,-0.0068 -0.0014,-0.0071 0.0099,-0.0013 0.05711,0.03025 0.332104,0.06244 0.839694,0.09829 0.101733,0.0072 0.196453,0.0149 0.210485,0.01718 0.02324,0.0038 0.02833,-6.3e-5 0.05701,-0.04266 l 0.0315,-0.04677 -0.02195,-0.04032 c -0.09486,-0.174283 -0.306906,-0.311193 -0.522302,-0.337227 -0.232975,-0.02817 -0.441348,0.05327 -0.814136,0.318174 -0.02312,0.01645 -0.0432,0.03065 -0.04462,0.03158 -0.0014,9.85e-4 0.0086,0.01818 0.02237,0.03835 0.01373,0.02015 0.08334,0.125572 0.154702,0.234243 0.178209,0.271367 0.25104,0.345727 0.378505,0.386458 0.08375,0.02677 0.243892,0.02308 0.355217,-0.0081 z m 2.198876,-0.08207 c 0.160302,-0.05742 0.21287,-0.120558 0.427293,-0.513207 0.05633,-0.103142 0.100353,-0.190867 0.09783,-0.194941 -0.008,-0.01293 -0.239228,-0.143797 -0.335869,-0.190082 -0.176579,-0.08457 -0.283233,-0.108948 -0.446103,-0.101974 -0.14416,0.0062 -0.250198,0.04289 -0.369943,0.12806 -0.09403,0.06688 -0.194577,0.186826 -0.222926,0.265919 -0.01078,0.03005 -0.01036,0.03122 0.02612,0.0737 0.03056,0.03559 0.04075,0.04241 0.05808,0.03885 0.01156,-0.0023 0.111822,-0.01772 0.222806,-0.03406 0.30003,-0.04423 0.448581,-0.06876 0.585388,-0.09671 0.106787,-0.02179 0.151132,-0.03394 0.230169,-0.06302 0.03326,-0.01223 -0.05584,0.04851 -0.132206,0.09014 -0.09495,0.05176 -0.344445,0.166688 -0.617986,0.28468 l -0.203688,0.08786 -1.74e-4,0.0524 -1.73e-4,0.05241 0.04404,0.02232 c 0.02422,0.01226 0.07625,0.03292 0.115606,0.04586 0.03936,0.01293 0.09324,0.03139 0.119745,0.04093 0.07446,0.02687 0.127525,0.03342 0.246092,0.03038 0.08233,-0.002 0.120813,-0.0069 0.15595,-0.01952 z m -1.512912,-0.680876 c 0.03055,-0.01453 0.06509,-0.02881 0.07674,-0.03175 l 0.0212,-0.0054 0.0044,-0.384002 c 0.004,-0.349674 0.01206,-0.499289 0.03056,-0.568978 0.006,-0.02269 0.0073,-0.02015 0.01277,0.02523 0.01213,0.100686 0.06479,0.341566 0.126821,0.580141 0.09812,0.377327 0.08333,0.337334 0.128951,0.348658 0.02147,0.0053 0.05949,0.01899 0.08447,0.03031 0.02498,0.01137 0.04628,0.01962 0.04733,0.01842 0.001,-0.0013 0.01154,-0.02115 0.02329,-0.04427 0.01175,-0.02312 0.03835,-0.06593 0.05909,-0.09513 0.05354,-0.07537 0.06883,-0.14082 0.06815,-0.291629 -5.35e-4,-0.105551 -0.003,-0.125089 -0.02411,-0.189173 -0.04715,-0.142877 -0.107912,-0.238493 -0.224384,-0.353103 -0.111376,-0.109593 -0.37306,-0.306272 -0.384132,-0.28871 -0.0032,0.0051 -0.07393,0.09674 -0.157172,0.203673 -0.241158,0.309808 -0.279154,0.385155 -0.271184,0.537797 0.0049,0.093 0.03556,0.18886 0.08792,0.274489 0.04257,0.06961 0.217406,0.26953 0.22942,0.262334 0.0024,-0.0013 0.02928,-0.01447 0.05984,-0.02897 z m -1.315067,-0.240761 c 0.02684,-0.01563 0.08189,-0.04277 0.122338,-0.06026 l 0.07354,-0.03181 -0.04097,-0.0234 c -0.123567,-0.07057 -0.169102,-0.223824 -0.169225,-0.569545 -2.5e-5,-0.07897 -0.0053,-0.175059 -0.0122,-0.220547 -0.01166,-0.07732 -0.05235,-0.207014 -0.07262,-0.231434 -0.01804,-0.02172 0.0029,-0.0118 0.07132,0.03384 0.287063,0.191517 0.582165,0.54696 0.704565,0.848634 l 0.02441,0.06015 -0.0052,-0.04204 c -0.01208,-0.09731 -0.08962,-0.281311 -0.173787,-0.412366 -0.149204,-0.232314 -0.386529,-0.444593 -0.602441,-0.538865 l -0.0643,-0.02807 0.0507,-9.4e-5 c 0.02788,-6.4e-5 0.09779,0.0057 0.155356,0.01287 0.465691,0.05765 0.764714,0.23819 0.860753,0.51968 0.0043,0.0127 0.01248,0.0057 0.04432,-0.03783 0.02146,-0.02937 0.06551,-0.08678 0.09788,-0.127593 l 0.05886,-0.0742 -0.058,-0.05897 c -0.08048,-0.08182 -0.164429,-0.149472 -0.287413,-0.231603 -0.346492,-0.231388 -0.784778,-0.352699 -1.164691,-0.322362 -0.063,0.005 -0.125715,0.0114 -0.139376,0.01411 l -0.02484,0.0049 0.02874,0.05228 c 0.01581,0.02874 0.03679,0.08225 0.04663,0.118894 0.02349,0.08746 0.0249,0.261124 0.0038,0.474394 -0.01979,0.20031 -0.01507,0.414329 0.01147,0.520449 0.04829,0.193124 0.142664,0.29259 0.336808,0.354995 0.03931,0.01264 0.07221,0.02323 0.07312,0.02357 8.68e-4,3.35e-4 0.02361,-0.0122 0.05044,-0.02783 z m 3.121669,-0.167038 c 0.129752,-0.28975 0.19308,-0.644665 0.169523,-0.950082 -0.01869,-0.242364 -0.07155,-0.441868 -0.17484,-0.659948 l -0.02884,-0.06089 -0.05689,0.0567 c -0.04037,0.04022 -0.07872,0.068 -0.13207,0.09564 -0.0969,0.0502 -0.143691,0.06572 -0.377864,0.125315 -0.361944,0.09211 -0.513912,0.160988 -0.628697,0.284973 -0.07772,0.08395 -0.106985,0.168017 -0.106985,0.307372 v 0.08466 l 0.05555,0.05441 c 0.03055,0.02992 0.07397,0.07625 0.09648,0.102939 l 0.04093,0.04853 0.0052,-0.0233 c 0.02052,-0.09181 0.0759,-0.163024 0.174563,-0.22445 0.06236,-0.03883 0.192496,-0.0943 0.316704,-0.134996 0.08826,-0.02891 0.228461,-0.09394 0.282925,-0.131217 0.02243,-0.01534 0.06037,-0.04635 0.08432,-0.06891 l 0.04355,-0.04099 -0.01222,0.05321 c -0.03262,0.141951 -0.114363,0.342949 -0.201616,0.495713 -0.101335,0.177415 -0.255132,0.3744 -0.366311,0.469171 -0.07561,0.06445 -0.07609,0.06532 -0.01834,0.03344 0.112078,-0.06188 0.244404,-0.184407 0.348729,-0.32294 0.159275,-0.211503 0.274303,-0.494594 0.290279,-0.714399 l 0.0055,-0.07541 0.01519,0.04466 c 0.04407,0.129644 0.08297,0.374005 0.08288,0.520674 -1.26e-4,0.240288 -0.06226,0.42649 -0.187803,0.56289 -0.02006,0.02179 -0.02812,0.03572 -0.02066,0.03572 0.01834,0 0.160669,0.04851 0.210817,0.07187 0.02417,0.01127 0.04816,0.02048 0.05333,0.02055 0.0052,3.4e-5 0.02167,-0.02734 0.03668,-0.06087 z"
           id="path32840-4"
           sodipodi:nodetypes="ssssssssssssscsssssssscssssssssscscscsssscsssscssssssssssssssssscsssssscsssssssssscssssscscsscssssssssscssssssssscscsssscsssssssssssssssssssssssscsscssssssssssssssssscssssscccsssssssssssssscsssssscssssssssssscsssssssssssssscssssscssccssssssssscssssssssssssscccssssccsscsssssssssssssssssscscsssssscsssccsssscsssscssssssccssscssssscsscssssscsssssscssssscs" /></g><path
         style="fill:#999999;fill-opacity:1;stroke:#000000;stroke-width:0.132292;stroke-linecap:round;stroke-linejoin:bevel;stroke-dasharray:none;stroke-opacity:1;paint-order:stroke fill markers"
         d="m 62.182761,78.057625 1.022612,1.040683"
         id="path5834-4-9-7"
         sodipodi:nodetypes="cc" /></g></g><style
     type="text/css"
     id="style22731">
	.st0{fill:#FFFFFF;}
	.st1{fill:none;}
</style></svg>
